<?xml version="1.0" standalone="no"?>
<!DOCTYPE svg PUBLIC "-//W3C//DTD SVG 1.1//EN" "http://www.w3.org/Graphics/SVG/1.1/DTD/svg11.dtd" >
<svg xmlns="http://www.w3.org/2000/svg" xmlns:xlink="http://www.w3.org/1999/xlink" version="1.1">
<metadata>
Created by FontForge 20170910 at Thu Feb 23 22:07:20 2017
 By Jimmy Wärting
Cyrillic adaptation By He Rez AD. SIL Open Font License
</metadata>
<defs>
<font id="CitricaCyrillic" horiz-adv-x="431" >
  <font-face 
    font-family="Citrica Cyrillic"
    font-weight="400"
    font-stretch="normal"
    units-per-em="1024"
    panose-1="0 0 0 0 0 0 0 0 0 0"
    ascent="819"
    descent="-205"
    x-height="428"
    cap-height="731"
    bbox="-3 -308 1279 908"
    underline-thickness="1"
    underline-position="-2"
    unicode-range="U+0020-FFFC"
  />
<missing-glyph horiz-adv-x="543" 
d="M0 686h410v-635h-410v635zM51 102h307v533h-307v-533z" />
    <glyph glyph-name=".notdef" horiz-adv-x="543" 
d="M0 686h410v-635h-410v635zM51 102h307v533h-307v-533z" />
    <glyph glyph-name="NULL" horiz-adv-x="0" 
 />
    <glyph glyph-name="NULL" horiz-adv-x="0" 
 />
    <glyph glyph-name="nonmarkingreturn" horiz-adv-x="0" 
 />
    <glyph glyph-name="space" unicode=" " horiz-adv-x="276" 
 />
    <glyph glyph-name="exclam" unicode="!" horiz-adv-x="103" 
d="M49 158h-31v550q0 12 9 21t22 9h30v-553q-2 -11 -9 -18q-9 -9 -21 -9zM57 4h-38v37q0 16 11 27t27 11t27 -11t11 -27q0 -15 -11 -26t-27 -11z" />
    <glyph glyph-name="quotedbl" unicode="&#x22;" horiz-adv-x="184" 
d="M21 658v80h33q13 0 22 -8q10 -9 12 -21v-84h-34q-14 0 -24 9q-9 10 -9 24zM103 658v80h33q13 0 22 -8q10 -9 12 -21v-84h-34q-14 0 -24 9q-9 10 -9 24z" />
    <glyph glyph-name="numbersign" unicode="#" horiz-adv-x="574" 
d="M490 426q-5 0 -8 1h-46q-26 -64 -55 -136h23v-1h30v-30q0 -12 -9 -21q-9 -8 -21 -8h-48q-40 -97 -86 -209q-2 -8 -8 -14q-9 -9 -21 -9h-18l-12 -1v15q-1 9 -1 15q0 10 6 18q32 78 75 185h-120q-40 -97 -86 -209q-2 -8 -8 -14q-8 -9 -21 -9h-18l-12 -1v30q0 8 4 15
q33 79 77 188h-51v30q0 12 9 21t21 9h46q26 64 56 136h-84v29q0 13 8 21q9 9 21 9h79q42 101 90 218q1 12 11 20q8 8 19 8q1 0 2 -1q6 0 18 -1l12 -1q0 -6 -1 -14q-1 -9 -1 -16q-1 -5 -2 -9q-35 -86 -84 -204h120q42 102 91 222q2 9 10 16q9 8 21 8q1 0 2 -1q5 0 17 -1
l12 -1q0 -6 -1 -14q-1 -9 -1 -16q-1 -11 -7 -18q-34 -82 -80 -195h34v-1h26v-29q0 -13 -9 -21q-9 -9 -21 -9zM196 291h120q26 63 56 136h-121q-26 -64 -55 -136z" />
    <glyph glyph-name="dollar" unicode="$" horiz-adv-x="410" 
d="M159 738h39q16 0 27 -11q12 -11 12 -27v-44q20 -3 37 -10q42 -18 62 -31q6 -4 7 -12q1 -7 -3 -13q-5 -5 -14 -15q-6 -6 -16 -18q-4 -5 -10 -6t-11 2q-15 9 -43 20q-4 1 -9 3v-170q31 -15 60 -32q51 -30 66 -73q13 -39 13 -74q0 -29 -9 -55q-20 -58 -77 -78
q-26 -8 -51 -13q-1 0 -2 -1v-82h-39q-16 0 -27 12q-10 9 -12 22v46q-25 3 -50 10q-40 12 -80 36q-6 4 -8 11q-1 2 -1 4q0 4 3 8q8 13 24 38q4 6 10 7q6 2 12 -1q50 -30 90 -35v204l-1 1q-24 11 -46 22t-37 22q-25 17 -39 44q-13 27 -13 60q0 21 4 37q4 15 5 19q8 24 41 56
q29 29 86 36v81zM263 169q34 12 34 48q1 36 -8 61q-6 20 -52 43v-160q14 3 26 8zM159 578q-26 -5 -37 -17q-15 -17 -17 -22v-1q0 -1 -5 -29q-4 -27 18 -43q12 -8 32 -17l9 -5v134z" />
    <glyph glyph-name="percent" unicode="%" horiz-adv-x="411" 
d="M49 1q-5 0 -17 -1h-12v14q-1 9 -1 15q0 7 3 13q91 227 274 680q3 5 8 10q8 8 20 7h2q6 0 18 -1l11 -1q0 -6 -1 -14q-1 -9 -1 -15q-1 -11 -7 -19q-91 -226 -269 -671h-1q-2 -5 -6 -9q-9 -9 -21 -8zM274 151q0 21 15 36q14 14 35 14t36 -14q15 -15 15 -36v-50h-51
q-21 0 -35 14q-15 15 -15 36zM127 586q0 -21 -15 -36q-14 -14 -35 -14t-36 14q-15 15 -15 36v50h51q20 0 35 -15t15 -35z" />
    <glyph glyph-name="ampersand" unicode="&#x26;" horiz-adv-x="616" 
d="M476 562h-37q-3 0 -6 2q-2 2 -2 5q-8 43 -40 75q-33 32 -81 37q-47 5 -88 -22q-40 -26 -55 -72q-10 -33 -4 -65t24 -57l266 -266q2 7 3 18q1 10 2 18q0 3 2 5q3 2 6 2h38q3 0 6 -2q2 -2 2 -6q-1 -20 -5 -40q-4 -19 -11 -38q33 -33 98 -99q5 -5 5 -11q0 -7 -5 -12l-14 -14
q-5 -5 -12 -5t-12 5l-87 87q-33 -48 -85 -76q-51 -27 -111 -28h-4q-34 1 -65 10q-31 10 -59 27q-50 32 -81 85t-32 116v2q0 62 29 113q29 53 77 85q-22 34 -29 77q-7 42 7 85q19 64 76 101q48 32 104 32q9 0 18 -1q69 -7 116 -54t55 -110q1 -4 -2 -7q-2 -3 -7 -2zM86 243
q0 -77 55 -132q54 -54 132 -54q50 0 92 24q41 24 66 64l-256 256q-40 -25 -64 -66q-25 -42 -25 -92z" />
    <glyph glyph-name="quotesingle" unicode="'" horiz-adv-x="103" 
d="M19 658v80h33q13 0 22 -8q10 -9 12 -21v-84h-34q-14 0 -24 9q-9 10 -9 24z" />
    <glyph glyph-name="parenleft" unicode="(" horiz-adv-x="205" 
d="M132 0q-37 57 -60 121q-23 65 -32 134q-5 41 -5 84v31q3 58 15 120q19 103 48 169t30 69q14 -8 37 -21q6 -3 15 -7l4 -2q-1 0 -28 -63q-28 -62 -46 -159q-10 -56 -12 -110q-3 -54 4 -104q8 -63 28 -120q21 -57 54 -108q-17 -11 -52 -34zM156 713q2 -1 5 -3z" />
    <glyph glyph-name="parenright" unicode=")" horiz-adv-x="226" 
d="M97 -11q-19 12 -56 36q35 53 56 113q22 60 30 126q7 52 4 109q-2 56 -13 115q-19 100 -47 164q-29 64 -29 65q19 11 58 31q2 -3 32 -72q31 -69 51 -176q12 -64 14 -125q1 -16 1 -31q0 -45 -5 -89q-10 -72 -34 -139t-62 -127z" />
    <glyph glyph-name="asterisk" unicode="*" horiz-adv-x="574" 
d="M433 693q-3 4 -8 8l-4 4q3 3 6 7l7 7q6 5 13 5h1q7 0 12 -4l13 -13v31h20q7 0 12 -4q5 -5 7 -12v-20q6 7 13 14q3 2 8 8l6 5q2 -3 6 -6l7 -7q6 -6 6 -14t-6 -13l-14 -14h37v-19q0 -8 -6 -13q-5 -6 -13 -6h-13l21 -21q-3 -3 -6 -7l-7 -7q-6 -5 -14 -5t-13 5l-12 12v-40
h-19q-8 0 -14 5q-6 6 -6 14v16l-10 -10q-1 0 -2 -1l-12 -12q-2 3 -6 7l-7 7q-5 5 -6 12v1q0 7 4 12l12 12h-36v19q0 7 5 13q5 5 12 6h24z" />
    <glyph glyph-name="plus" unicode="+" horiz-adv-x="390" 
d="M154 440v132h40q15 0 27 -10q11 -10 13 -25v-97h135v-40q0 -17 -11 -28q-12 -12 -29 -12h-95v-134h-40q-17 0 -28 12q-12 12 -12 28v94h-91v-1h-40v40q0 16 10 27q10 12 25 14h96z" />
    <glyph glyph-name="comma" unicode="," horiz-adv-x="164" 
d="M37 58v127h53q20 0 35 -14q16 -14 19 -34v-133h-54q-22 0 -37 16q-16 15 -16 38z" />
    <glyph glyph-name="hyphen" unicode="-" horiz-adv-x="370" 
d="M306 349h-285v37q0 14 9 25q10 11 23 13h290v-37q0 -16 -11 -27t-26 -11z" />
    <glyph glyph-name="period" unicode="." horiz-adv-x="144" 
d="M106 43q0 -18 -12 -31q-13 -12 -31 -12t-30 13q-12 12 -12 30v43h42q18 0 30 -13q13 -12 13 -30z" />
    <glyph glyph-name="slash" unicode="/" horiz-adv-x="390" 
d="M342 746q6 0 18 -1l12 -1q-1 -6 -1 -15q-1 -9 -2 -15q-1 -11 -7 -18q-92 -225 -274 -672q-3 -8 -8 -13q-8 -9 -21 -9h-30v29q0 10 5 18q93 228 277 680q3 6 8 10q9 7 21 7h2z" />
    <glyph glyph-name="zero" unicode="0" horiz-adv-x="349" 
d="M216 0h-75q-42 0 -71 29t-29 71v538q0 42 29 71t71 29h75q41 0 70 -29q30 -29 30 -71v-538q0 -42 -30 -71q-29 -29 -70 -29zM141 679q-17 0 -29 -12t-12 -29v-538q0 -17 12 -29t29 -12h75q17 0 29 12t12 29v538q0 17 -12 29t-29 12h-75z" />
    <glyph glyph-name="one" unicode="1" horiz-adv-x="226" 
d="M100 10v617h-55v54q0 23 16 39t39 16h58q4 0 7 -3t3 -7v-716q0 -4 -3 -7t-7 -3h-48q-5 0 -8 3q-2 3 -2 7z" />
    <glyph glyph-name="two" unicode="2" horiz-adv-x="308" 
d="M28 684v41q0 4 3 7q2 3 7 3q55 -3 105 -31t77 -73q14 -23 20 -51q5 -27 0 -56q-2 -9 -6 -26q-5 -17 -11 -40q-11 -43 -28 -100q-16 -57 -33 -113q-17 -58 -31 -106q-15 -49 -22 -73h146q4 0 7 -3q3 -2 3 -7v-40q0 -5 -3 -7q-3 -3 -7 -3h-199q-4 0 -7 3q-3 2 -3 7
q0 16 1 50q44 152 133 457q0 60 -42 104q-41 44 -101 47q-4 0 -6 3q-3 3 -3 7z" />
    <glyph glyph-name="three" unicode="3" horiz-adv-x="308" 
d="M155 414q-5 -3 -5 -8q0 -6 5 -9q47 -29 75 -87q28 -59 28 -112q0 -79 -60 -137q-60 -57 -146 -61q-5 0 -8 3t-3 7v35q0 4 3 7t6 3q62 4 104 45q43 41 43 97q0 39 -20 78q-20 40 -54 66q-17 14 -38 22q-21 9 -44 9v56q57 7 96 32q39 24 39 78q0 51 -36 91q-36 39 -90 49
q-4 1 -6 4q-3 2 -3 6v36q0 4 4 7q3 3 6 3h1q79 -11 132 -67q53 -55 53 -129q0 -47 -22 -73q-23 -27 -60 -51z" />
    <glyph glyph-name="four" unicode="4" horiz-adv-x="349" 
d="M259 738h39q5 0 7 -2q3 -3 3 -8v-717q0 -4 -3 -7q-2 -3 -7 -3h-39q-4 0 -7 3t-3 7v348q0 4 -3 7q-3 2 -6 3q-79 5 -135 58q-57 53 -63 132h-1v173q0 4 3 7t7 3h39q4 0 7 -3t3 -7v-168q4 -55 44 -92q40 -36 94 -41q5 -1 8 2t3 7v288q0 5 3 8q3 2 7 2z" />
    <glyph glyph-name="five" unicode="5" horiz-adv-x="390" 
d="M102 632v-185q0 -4 2 -7q3 -3 7 -3h230q3 0 6 -3q3 -2 3 -7v-315q0 -47 -33 -79q-33 -33 -79 -33h-85q-47 0 -79 33q-33 33 -33 79v55q0 4 3 7q2 3 7 3h40q4 0 7 -3q3 -2 3 -7v-55q0 -22 15 -37t37 -15h84q22 0 37 15t15 37v255q0 4 -3 7q-2 3 -7 3h-228q-4 0 -7 3
q-3 2 -3 6v246q0 46 33 79q32 33 79 33h196q4 0 7 -3q2 -3 2 -7v-41q0 -4 -2 -7q-3 -2 -7 -2h-196q-22 0 -37 -16q-15 -15 -14 -36z" />
    <glyph glyph-name="six" unicode="6" horiz-adv-x="349" 
d="M326 323v-214q0 -46 -32 -78q-33 -32 -78 -32h-95q-42 0 -71 35q-29 36 -29 113v583q0 5 2 8q3 3 8 3h39q4 0 7 -3t2 -8v-286q0 -5 3 -8t7 -3h127q46 0 78 -32t32 -78zM216 374h-127q-4 0 -7 -3t-3 -7v-255q0 -21 15 -36t36 -15h85q21 0 36 15t15 36v215q0 21 -14 35
q-15 15 -36 15z" />
    <glyph glyph-name="seven" unicode="7" horiz-adv-x="287" 
d="M43 679h-6v60h5q88 0 150 -62t62 -150v-161h-1v-363h-60v363h-156v60h158v101q0 63 -45 107q-44 45 -107 45z" />
    <glyph glyph-name="eight" unicode="8" horiz-adv-x="369" 
d="M338 632v-183h-2q-3 -14 -10 -28q-8 -13 -18 -23q14 -13 22 -31q8 -19 8 -39v-246h-2q-7 -34 -34 -56q-26 -22 -62 -22h-101q-40 0 -68 27q-29 28 -30 68v228q0 21 8 39t22 32q-13 13 -21 30q-9 18 -9 38v165q0 41 29 69q28 29 69 29h102q40 0 69 -29q28 -28 28 -68z
M244 368h-110q-2 -1 -3 -1h-2q-1 0 -3 -1q-1 0 -4 -1q0 -1 -2 -1q-5 -3 -10 -8q-8 -8 -10 -18q-1 -1 -1 -2v-234q0 -15 8 -26q2 -1 3 -2q12 -11 29 -11h102q16 0 28 11q11 12 12 27v2h-1v225q0 16 -12 28q-10 10 -24 12zM241 671h-102q-17 0 -29 -11q-11 -12 -11 -29v-163
q0 -16 11 -28q12 -12 29 -12h101q17 0 28 12q12 12 12 28v164q0 16 -11 27q-12 12 -28 12z" />
    <glyph glyph-name="nine" unicode="9" horiz-adv-x="390" 
d="M41 477v142q0 46 32 78t78 32h93q41 0 71 -35q29 -35 30 -112v-578q0 -4 -3 -7t-7 -3h-39q-5 0 -7 3q-3 3 -3 7v354q0 4 -3 7t-7 3h-125q-46 0 -78 32t-32 77zM151 427h125q4 0 7 2q3 3 3 8v182q0 21 -15 36t-36 15h-84q-22 0 -36 -15q-15 -15 -15 -36v-142q0 -21 15 -36
q14 -14 36 -14z" />
    <glyph glyph-name="colon" unicode=":" horiz-adv-x="184" 
d="M94 406h-53v53q0 22 15 38q16 15 38 15t37 -15q16 -16 16 -38q0 -21 -16 -37t-37 -16zM147 103q0 -22 -16 -38q-15 -15 -37 -15t-38 16q-15 15 -15 37v53h53q21 0 37 -16q16 -15 16 -37z" />
    <glyph glyph-name="semicolon" unicode=";" horiz-adv-x="144" 
d="M42 98v35h39q15 0 26 -10t13 -25v-98h-40q-16 0 -28 11q-11 12 -11 28v55q0 1 1 4zM86 421h-47v47q0 20 13 33q14 14 34 14q19 0 33 -14q14 -13 14 -33q0 -19 -14 -33t-33 -14z" />
    <glyph glyph-name="less" unicode="&#x3c;" horiz-adv-x="348" 
d="M230 169q-57 57 -171 170q-3 3 -6 7l-19 20l10 10q10 11 15 16q58 57 173 173h1q9 8 22 8h2q14 -1 24 -11q5 -6 12 -13q8 -7 13 -12l-8 -9q-9 -8 -15 -14q-1 -1 -2 -3l-146 -146l148 -148q8 -10 8 -22v-3q-1 -13 -11 -23l-25 -25l-9 8l-14 14q-1 1 -2 3z" />
    <glyph glyph-name="equal" unicode="=" horiz-adv-x="451" 
d="M381 310h-339v36q0 16 11 26q10 9 25 10h332v-36q0 -15 -10 -25q-9 -9 -19 -11zM381 501h-297v1h-29v36q0 15 10 26q8 7 19 9v1h326v-36q0 -15 -10 -26q-9 -9 -19 -11z" />
    <glyph glyph-name="greater" unicode="&#x3e;" horiz-adv-x="329" 
d="M95 167q-6 -7 -14 -15l-9 -8l-12 12q-8 8 -14 13q-10 10 -10 24v2q0 13 8 23q50 51 148 149l-148 148q-7 6 -15 15l-8 8q5 5 12 13q8 7 13 13q10 10 24 11h2q13 0 23 -8l199 -199q-5 -5 -12 -13l-8 -7q-3 -4 -6 -7q-57 -58 -171 -172q0 -1 -2 -2z" />
    <glyph glyph-name="question" unicode="?" horiz-adv-x="329" 
d="M306 482q0 -55 -16 -99q-17 -45 -51 -77q-37 -36 -82 -51q-40 -14 -70 -18v-118h-26q-9 0 -16 6q-8 7 -9 17v143h3l28 1q27 2 63 14q19 6 38 16q20 11 37 27q25 25 38 60q13 34 13 79q0 43 -12 77q-13 35 -39 60q-16 16 -35 27q-20 11 -39 19q-35 13 -63 15q-27 2 -28 2
h-4v51h16q11 -1 29 -4q31 -4 77 -20q45 -16 83 -55q33 -32 49 -75t16 -95v-2zM21 36q0 17 11 28q12 12 29 12t28 -12q12 -11 12 -28v-41h-40q-17 0 -29 12q-11 12 -11 29z" />
    <glyph glyph-name="at" unicode="@" horiz-adv-x="657" 
d="M330 2q-82 0 -150 40q-69 40 -110 105q-21 35 -33 76q-13 41 -13 85q0 82 40 151q40 68 105 109q35 22 76 34t85 12t85 -12t76 -34q65 -41 105 -109q40 -69 40 -151v-1q0 -44 -12 -84q-12 -41 -34 -76q-40 -65 -109 -105q-68 -40 -151 -40zM493 315v-127h66q30 55 30 120
v1q0 37 -10 71t-29 64q-34 55 -92 89t-128 34q-37 0 -72 -10q-34 -10 -64 -29q-55 -34 -89 -92t-34 -128q0 -37 10 -72q11 -35 29 -64q35 -55 93 -89t127 -34q38 0 72 10q35 11 64 29q33 21 58 50h-34q-2 -1 -4 -1h-169q-70 0 -124 50q-54 51 -56 122v7q0 74 52 126t125 52
h8q71 -2 122 -56q49 -53 49 -123zM443 196v118q0 52 -35 90q-36 37 -88 39h-5q-52 0 -90 -37q-37 -37 -37 -89v-6q2 -52 40 -87q38 -36 90 -36h118q3 0 5 2q2 3 2 6z" />
    <glyph glyph-name="A" unicode="A" horiz-adv-x="595" 
d="M574 412v-400q0 -5 -4 -8q-3 -4 -8 -4h-38q-5 0 -8 4q-4 3 -4 8v145h-426v-143q0 -5 -3 -8q-4 -4 -9 -4h-37q-5 0 -8 4q-4 3 -4 8v401q0 2 1 15q0 13 3 34q6 38 25 94q20 55 66 101q36 35 83 56t104 21t101 -22q44 -23 79 -58q23 -24 39 -52q15 -27 25 -55q18 -51 20 -91
q3 -40 3 -46zM512 413q0 1 -1 35q-2 33 -16 76q-8 23 -21 46q-13 24 -32 44q-26 27 -60 44q-35 17 -80 17q-42 -1 -77 -17q-36 -17 -62 -43q-20 -20 -33 -44q-14 -23 -22 -46q-16 -43 -19 -76t-3 -34v-202h426v200z" />
    <glyph glyph-name="B" unicode="B" horiz-adv-x="554" 
d="M324 0h-285q-5 0 -8 4q-4 3 -4 8v714q0 5 4 9q3 3 8 3h261q77 -1 132 -56q54 -55 54 -132q0 -41 -16 -78q-17 -36 -46 -62q-5 -3 -5 -9q1 -7 6 -10q44 -28 71 -75q26 -47 26 -104q0 -84 -57 -146q-58 -61 -141 -66zM460 212q0 62 -44 106t-106 44h-207q-5 0 -9 -4
q-4 -3 -4 -8v-275q0 -5 4 -9q4 -3 9 -3h221q57 5 96 48q40 43 40 101zM300 676h-197q-5 0 -9 -4t-4 -9v-226q0 -5 4 -9q4 -3 9 -3h207q48 4 81 40t33 85q0 52 -36 89q-37 36 -88 37z" />
    <glyph glyph-name="C" unicode="C" horiz-adv-x="677" 
d="M649 100q-50 -47 -115 -73q-66 -27 -139 -27q-54 0 -104 15q-50 14 -93 41q-80 50 -129 134q-48 84 -48 184q0 55 14 105q15 50 42 92q49 80 133 129t185 49q68 0 129 -23q62 -24 110 -64q-15 -16 -45 -46q-41 32 -90 51q-50 18 -105 18q-83 0 -153 -40
q-69 -41 -110 -107q-22 -35 -35 -77q-12 -41 -12 -86q0 -83 41 -153q40 -69 106 -111q35 -22 77 -34q41 -12 86 -12q61 0 114 21q54 22 95 60z" />
    <glyph glyph-name="D" unicode="D" horiz-adv-x="615" 
d="M593 364q0 -99 -47 -181q-47 -83 -124 -132q-42 -27 -91 -42q-48 -15 -101 -17h-168q-5 0 -9 4q-3 4 -3 9v719q0 5 3 9q4 3 9 3h168q53 -1 101 -16q49 -15 90 -42q78 -50 125 -132q47 -83 47 -182zM226 672h-100q-6 0 -9 -3q-4 -4 -4 -9v-592q0 -5 4 -9q3 -3 9 -3h100
q44 0 85 13q40 13 75 35q65 41 104 109q39 69 39 151q0 44 -12 85t-33 76q-40 65 -108 106q-68 40 -150 41z" />
    <glyph glyph-name="E" unicode="E" horiz-adv-x="472" 
d="M436 0h-400q-5 0 -8 4q-4 3 -4 8v714q0 5 4 9q3 3 8 3h402q5 0 9 -4t4 -9v-34q0 -5 -4 -8q-4 -4 -9 -4h-343q-5 0 -9 -4q-3 -3 -3 -9v-220q0 -6 3 -9q4 -4 9 -4h247q5 0 9 -4q4 -3 4 -8v-34q0 -5 -4 -9t-9 -4h-247q-5 0 -9 -3q-3 -4 -3 -9v-306h353q6 0 9 -4q4 -3 4 -9
v-31q0 -5 -4 -8q-3 -4 -9 -4z" />
    <glyph glyph-name="F" unicode="F" horiz-adv-x="452" 
d="M440 678h-348q-5 0 -8 -3q-4 -4 -4 -9v-224q0 -5 4 -8q3 -4 8 -4h250q6 0 9 -4q4 -4 4 -9v-34q0 -5 -4 -9q-3 -4 -9 -4h-250q-5 0 -8 -3q-4 -4 -4 -9v-350q0 -6 -4 -9q-4 -4 -9 -4h-34q-5 0 -9 4q-3 3 -3 9v718q0 5 3 9q4 3 9 3h407q5 0 8 -4q4 -4 4 -9v-34q0 -5 -4 -9
q-3 -4 -8 -4z" />
    <glyph glyph-name="G" unicode="G" horiz-adv-x="739" 
d="M695 223q0 -40 -10 -71q-11 -30 -33 -54l-1 -1v-1q-8 -8 -18 -15q-9 -8 -20 -15q-45 -31 -98 -49q-53 -17 -111 -17q-97 0 -179 48q-82 47 -130 125q-26 42 -40 90t-14 101v1q0 53 15 101q14 49 40 90q48 78 130 125q81 47 179 47q63 0 119 -20q57 -20 103 -56q4 -3 5 -9
q0 -5 -3 -9l-27 -27q-4 -4 -8 -4q-5 0 -8 2q-38 29 -84 45q-46 15 -97 15q-44 0 -85 -12t-76 -34q-65 -41 -103 -111q-39 -69 -37 -152q2 -78 41 -143q38 -65 101 -104q33 -21 72 -33t81 -13q28 0 56 4q27 5 52 14q14 6 27 12l24 12q7 4 14 9q7 4 14 9q23 19 35 43
q13 24 14 57v125q0 5 -3 9q-4 3 -9 3h-172q-5 0 -9 4q-3 4 -3 9v38q0 5 3 8q4 4 9 4h232q5 0 9 -4q3 -3 3 -8v-188z" />
    <glyph glyph-name="H" unicode="H" horiz-adv-x="594" 
d="M502 743h40q5 0 9 -3q3 -4 3 -9v-720q0 -5 -3 -9q-4 -3 -9 -3h-40q-5 0 -9 3q-3 4 -3 9v340q0 5 -4 9q-4 3 -9 3h-359q-5 0 -9 -3q-3 -4 -3 -9v-342q0 -5 -4 -9q-4 -3 -9 -3h-39q-6 0 -9 3q-4 4 -4 9v720q0 5 4 9q3 4 9 4h39q5 0 9 -4t4 -9v-288q0 -5 3 -9q4 -4 9 -4h358
q5 0 9 4t4 9v290q0 5 4 9q4 3 9 3z" />
    <glyph glyph-name="I" unicode="I" horiz-adv-x="144" 
d="M49 0q-3 0 -6 2q-2 3 -2 6v721q0 4 3 7t7 3h41q4 0 7 -3q2 -3 2 -7v-721q0 -3 -2 -6q-2 -2 -6 -2h-44z" />
    <glyph glyph-name="J" unicode="J" horiz-adv-x="493" 
d="M457 209q0 -58 -39 -116q-39 -57 -94 -78q-43 -16 -83 -16q-29 0 -57 9q-66 19 -107 69q-22 26 -36 60q-13 33 -14 70q0 5 3 8t7 3h42q4 0 7 -3t3 -7q4 -60 48 -103t105 -43t106 42q44 42 48 102v521q0 5 4 8q4 4 9 4h36q5 0 8 -4q4 -3 4 -7v-519z" />
    <glyph glyph-name="K" unicode="K" horiz-adv-x="553" 
d="M210 462q109 -147 326 -442q3 -3 3 -7q0 -3 -1 -6q-4 -7 -12 -7h-48q-3 0 -5 1q-3 2 -5 4q-99 134 -297 403q-4 5 -10 5t-10 -4l-51 -60q-2 -2 -3 -4t-1 -4v-327q0 -5 -3 -9q-4 -4 -9 -4h-39q-5 0 -9 4q-3 4 -3 9v725h32q13 0 22 -10q7 -8 9 -18v-235q0 -9 8 -12t14 4
q58 67 175 201l4 4q2 1 5 1h51q8 0 12 -7q3 -8 -2 -14q-51 -58 -152 -175q-3 -4 -3 -8t2 -8z" />
    <glyph glyph-name="L" unicode="L" horiz-adv-x="349" 
d="M215 63h77q11 -1 23 -8q13 -8 14 -20v-34h-116q-51 2 -88 27q-38 24 -61 71q-15 33 -19 61q-4 27 -4 28v543h31q13 0 23 -10q8 -8 9 -19v-512q0 -3 3 -23q4 -20 15 -43q14 -30 37 -45t56 -16z" />
    <glyph glyph-name="M" unicode="M" horiz-adv-x="676" 
d="M92 -2h-38q-6 0 -9 4q-4 3 -4 9v721q0 8 8 12q3 1 5 1q5 0 8 -4l271 -271q4 -4 9 -4t9 4q87 86 260 260q6 6 14 3q7 -3 7 -12v-708q0 -6 -3 -9q-4 -4 -9 -4h-39q-5 0 -9 4q-4 3 -4 9v554q0 8 -7 12q-8 3 -14 -3q-65 -66 -196 -197q-4 -3 -9 -3t-9 3l-207 207q-6 7 -13 3
q-8 -3 -8 -11v-568q0 -5 -4 -9q-3 -3 -9 -3z" />
    <glyph glyph-name="N" unicode="N" horiz-adv-x="657" 
d="M623 -5h-37q-5 0 -8 4q-4 3 -4 8v401l-1 34q-2 33 -16 76q-8 23 -21 47q-13 23 -32 43q-30 31 -72 47t-95 16q-52 -1 -94 -16q-41 -16 -71 -46q-20 -20 -34 -44q-13 -23 -22 -46q-16 -43 -18 -76l-3 -33v-401q0 -5 -4 -8q-3 -4 -8 -4h-37q-5 0 -9 4q-3 3 -3 8v401
q0 3 3 42q3 40 23 92q10 27 27 55t41 53q40 40 92 59q52 20 117 20q66 0 119 -20q53 -21 92 -61q24 -24 40 -52q15 -28 25 -55q18 -50 20 -90q2 -36 2 -45v-400q0 -6 -3 -9q-4 -4 -9 -4z" />
    <glyph glyph-name="O" unicode="O" horiz-adv-x="779" 
d="M390 -1q-52 0 -100 15q-48 14 -90 39q-76 48 -123 129q-47 80 -47 177q0 52 14 100q15 48 40 89q48 76 129 123q80 47 177 47q96 0 177 -46q81 -47 129 -124q25 -41 39 -89q15 -48 15 -100q0 -53 -15 -101q-14 -48 -40 -89q-47 -76 -128 -123t-177 -47zM393 656
q-44 0 -83 -12q-40 -12 -74 -33q-64 -39 -102 -106q-39 -67 -39 -147q0 -43 12 -83q11 -40 32 -74q40 -64 107 -102q67 -39 147 -39q43 0 83 12q39 11 74 33q63 39 102 106t39 147t-39 147t-103 106q-34 21 -74 33q-39 12 -82 12z" />
    <glyph glyph-name="P" unicode="P" horiz-adv-x="471" 
d="M239 677q-65 -1 -110 -49q-46 -47 -46 -112v-145q0 -4 3 -7t8 -3h147q66 0 112 46t46 112t-47 112q-46 46 -112 46h-1zM462 516q-1 -91 -67 -155q-65 -63 -156 -63h-146q-4 0 -7 -3q-3 -2 -3 -7v-260q0 -13 -8 -22q-8 -8 -20 -10h-35v520q0 91 64 157q64 65 155 66h2
q31 0 60 -8q30 -8 56 -24q48 -30 77 -80q28 -50 28 -109v-2z" />
    <glyph glyph-name="Q" unicode="Q" horiz-adv-x="780" 
d="M392 4q-53 0 -101 15q-49 14 -90 40q-78 48 -125 129t-47 179q0 97 47 179q47 81 125 129q42 26 90 40q48 15 101 15q52 0 101 -15q48 -14 90 -40q77 -48 124 -129q48 -82 48 -179q0 -53 -15 -101q-14 -49 -40 -90q-20 -33 -46 -60l92 -73q-4 -5 -10 -12t-10 -13
q-8 -10 -21 -12h-5q-10 1 -19 7l-76 60q-16 -12 -34 -22q-82 -47 -179 -47zM492 166q4 5 10 12t10 12q8 10 19 12h6q9 0 16 -5l52 -42q27 28 48 63q39 68 39 149q0 43 -12 83q-11 40 -33 75q-40 64 -107 103q-68 39 -148 39q-44 0 -84 -12q-40 -11 -75 -33
q-64 -39 -103 -107q-39 -67 -39 -148q0 -44 12 -84t33 -75q40 -64 107 -103q68 -39 149 -39q43 0 83 12t75 33l5 3z" />
    <glyph glyph-name="R" unicode="R" horiz-adv-x="513" 
d="M476 -6h-47q-3 0 -6 2q-4 2 -5 5l-144 294h-180q-4 0 -7 -3t-3 -7v-262q0 -13 -8 -22q-9 -9 -21 -10h-34v523q0 91 64 157t155 67h6q91 -1 155 -66q64 -66 62 -158q-1 -38 -14 -73t-35 -63q-8 -8 -12.5 -13t-28.5 -26l-1 -1q-8 -7 -17 -12t-18 -9q50 -102 150 -304
q2 -3 2 -6q0 -4 -2 -7q-4 -6 -11 -6zM401 518q0 66 -47 113q-47 46 -112 46h-2q-65 -1 -110 -48q-46 -48 -46 -114v-146q0 -4 3 -7t7 -3h149q65 0 111 47q47 46 47 112z" />
    <glyph glyph-name="S" unicode="S" horiz-adv-x="492" 
d="M232 -2h-15q-7 0 -14 1q-46 4 -92 20q-46 17 -93 45q-4 3 -5 8v3q0 3 2 6q6 11 20 32q3 4 8 6q5 1 9 -2q98 -59 170 -57q72 3 118 20q27 10 51 51q25 41 -4 123q-7 21 -38 43q-30 21 -68 41q-21 11 -41 21q-21 10 -41 19q-31 15 -60 29t-48 28q-31 21 -46 52
q-16 32 -15 73q0 27 5 46q5 20 6 23t5 12t14 22q16 22 52 48q37 25 102 30q16 1 31 1q60 0 105 -21q56 -26 77 -41q4 -3 4 -9q1 -5 -3 -9q-4 -5 -12 -14q-4 -5 -13 -15q-3 -4 -8 -5q-4 0 -8 3q-17 12 -61 32q-45 21 -107 16q-45 -4 -70 -20q-26 -16 -37 -31q-6 -7 -9 -13
q-2 -6 -3 -7l-1 -1q0 -2 -5 -23q-6 -22 -1 -48q3 -13 10 -26q8 -13 22 -23q17 -12 44 -25t56 -27q73 -34 138 -71q64 -38 82 -89q14 -37 16 -75q1 -9 1 -18q0 -27 -6 -51q-9 -40 -34 -68t-62 -42q-32 -11 -64 -17t-64 -6z" />
    <glyph glyph-name="T" unicode="T" horiz-adv-x="452" 
d="M428 728v-39q0 -6 -4 -9q-4 -4 -9 -4h-144q-5 0 -9 -4q-4 -3 -4 -9v-654q0 -6 -4 -9q-3 -4 -9 -4h-39q-5 0 -9 4q-3 3 -3 9v654q0 6 -4 9q-4 4 -9 4h-144q-6 0 -9 4q-4 3 -4 9v39q0 5 4 9q3 4 9 4h377q6 0 9 -4q4 -4 5 -9z" />
    <glyph glyph-name="U" unicode="U" horiz-adv-x="677" 
d="M42 740h38q5 0 9 -4q3 -4 3 -9v-407q0 -1 2 -35q2 -33 16 -77q8 -24 21 -48t33 -44q30 -32 73 -48t97 -16q53 0 95 16q42 15 73 46q20 21 34 44q14 24 22 48q17 43 19 77l3 34v408q0 5 4 9q3 3 8 3h38q5 0 9 -3q3 -4 3 -9v-407q0 -3 -3 -43q-3 -41 -23 -93
q-11 -28 -28 -57q-17 -28 -42 -53q-40 -40 -93 -60q-53 -21 -119 -21q-68 0 -122 21t-93 62q-45 46 -63 101t-23 94q-2 21 -3 35v423q0 5 4 9q3 4 8 4z" />
    <glyph glyph-name="V" unicode="V" horiz-adv-x="554" 
d="M96 -1q-13 0 -20 1q-29 4 -32 8q-3 3 -3 8v708q0 5 4 8q3 4 8 4h37q5 0 9 -4q3 -3 3 -8v-651q0 -5 4 -9q4 -3 9 -3q29 2 73 16q44 15 90 54q38 34 69 82t53 110q27 76 41 172t15 211q0 5 4 8q3 4 8 4h37q5 0 9 -4q3 -3 3 -8q-1 -120 -16 -222t-44 -183q-25 -69 -60 -123
q-35 -55 -80 -94q-65 -55 -126 -70q-62 -15 -95 -15z" />
    <glyph glyph-name="W" unicode="W" horiz-adv-x="780" 
d="M706 740h39q5 0 9 -4q4 -3 4 -9q-23 -241 -69 -724q0 -9 -8 -12q-3 -1 -6 -1q-4 0 -8 4q-91 90 -272 272q-4 3 -9 3t-9 -3q-87 -88 -262 -262q-6 -6 -14 -3q-7 3 -7 12q-25 237 -73 713q0 5 3 8q4 4 9 4h39q5 0 9 -4q4 -3 4 -8q24 -186 73 -558q0 -9 8 -12t13 3
q66 66 198 197q3 4 8 4t9 -4q70 -69 208 -208q6 -6 14 -3q8 4 8 12l69 570q0 6 4 9q4 4 9 4z" />
    <glyph glyph-name="X" unicode="X" horiz-adv-x="657" 
d="M73 729q2 -47 14 -91q11 -43 30 -81q34 -69 89 -111t119 -42q35 0 67 13q33 12 61 35q52 43 86 116t38 161q0 6 3 10t7 4h33q4 0 7 -5q3 -4 3 -9v-1q-6 -116 -53 -210q-46 -94 -117 -142q-6 -5 -6 -13q0 -9 6 -13q71 -49 117 -141q46 -93 52 -207q0 -6 -3 -11
q-3 -4 -7 -4h-32q-4 0 -7 3q-3 4 -3 9q-3 47 -14 90t-30 80q-34 69 -88 110q-55 42 -120 42q-35 0 -67 -13q-32 -12 -60 -35q-52 -43 -86 -115q-33 -72 -39 -159q0 -6 -2 -9q-3 -4 -8 -4h-32q-5 0 -7 4q-3 5 -3 11q5 115 52 208q46 92 117 141q6 4 6 13t-6 13
q-71 48 -118 142q-46 94 -51 210l-1 1q0 5 3 9q3 5 8 5h32q4 0 7 -4t3 -10z" />
    <glyph glyph-name="Y" unicode="Y" horiz-adv-x="677" 
d="M356 0h-39q-5 0 -9 4q-3 3 -3 9v130q-52 4 -96 21q-56 21 -97 63q-25 26 -41 56q-16 29 -26 57q-19 54 -22 96q-2 42 -2 48v245q0 5 3 9q4 3 9 3h39q6 0 9 -3q4 -4 4 -9v-247l2 -35q1 -35 17 -80q8 -25 21 -50q13 -24 34 -45q31 -33 75 -50q45 -16 101 -16q54 0 98 16
t76 48q21 21 35 46t23 49q17 45 20 80q3 34 3 35v246q0 5 3 9q4 4 9 4h39q6 0 9 -4q4 -4 4 -9v-245q0 -4 -4 -46q-3 -42 -24 -95q-11 -30 -28 -59q-18 -30 -44 -56q-41 -41 -96 -62q-41 -16 -89 -20v-130q0 -6 -4 -9q-3 -4 -9 -4z" />
    <glyph glyph-name="Z" unicode="Z" horiz-adv-x="595" 
d="M539 0h-519q-8 0 -12 6q-2 3 -2 6t3 6q150 215 451 646q4 5 1 11t-10 6h-338q-5 0 -8 4q-4 3 -4 8v36q0 5 4 8q3 4 8 4h448q7 0 10 -6q2 -3 2 -6q-1 -3 -3 -6q-149 -215 -446 -646q-5 -5 -1 -12q3 -6 10 -6h404q5 0 9 -3q3 -3 3 -8v-36q0 -5 -3 -9q-3 -3 -7 -3z" />
    <glyph glyph-name="bracketleft" unicode="[" horiz-adv-x="205" 
d="M176 0h-39q-42 0 -72 30t-30 72v540q0 42 30 72t72 30h39v-61h-39q-17 0 -29 -12q-13 -12 -13 -29v-541q0 -17 13 -29q12 -12 29 -12h39v-60z" />
    <glyph glyph-name="backslash" unicode="\" horiz-adv-x="369" 
d="M356 30v-29h-12q-12 1 -18 1q-10 0 -18 6q-8 7 -10 16q-90 222 -271 664q-3 4 -4 7q-2 4 -2 8q0 6 -1 15t-1 15l11 1q12 1 18 1h2q9 0 16 -4q8 -5 11 -13q92 -224 275 -671q2 -4 3 -8t1 -9z" />
    <glyph glyph-name="bracketright" unicode="]" horiz-adv-x="185" 
d="M163 636v-535q0 -42 -30 -72q-29 -29 -71 -29h-41v60h41q17 0 29 12t12 29v535q0 17 -12 29t-29 12h-41v60h41q42 0 71 -29q30 -30 30 -72z" />
    <glyph glyph-name="asciicircum" unicode="^" horiz-adv-x="246" 
d="M21 620l110 110l99 -99q4 -4 4 -10v-2q0 -6 -5 -11l-7 -7q-3 -4 -6 -6l-85 85l-74 -74q-5 -4 -11 -4h-1q-7 0 -12 5l-6 6q-4 4 -6 7z" />
    <glyph glyph-name="underscore" unicode="_" horiz-adv-x="328" 
d="M47 0h-36v36q0 13 9 24q9 10 22 12h277v-36q0 -15 -10 -25q-11 -10 -26 -10h-236v-1z" />
    <glyph glyph-name="grave" unicode="`" horiz-adv-x="144" 
d="M14 719l31 14q6 3 13 3q5 0 10 -1q13 -4 20 -15l36 -76q-7 -2 -31 -14q-7 -3 -14 -3q-6 0 -12 2q-13 4 -19 17z" />
    <glyph glyph-name="a" unicode="a" horiz-adv-x="492" 
d="M458 211v-201q0 -5 -3 -7q-3 -3 -7 -3h-201q-85 0 -149 60t-67 145v8q0 56 26 103q29 51 77 80q26 16 56 24q26 7 54 7h9q84 -4 144 -68q61 -64 61 -148zM397 70v141q0 62 -42 107q-43 46 -105 48h-5q-63 0 -108 -45t-45 -108v-5q2 -62 47 -105q46 -43 108 -43h141
q3 0 6 3t3 7z" />
    <glyph glyph-name="b" unicode="b" horiz-adv-x="492" 
d="M462 219v-4q0 -88 -62 -151q-64 -64 -154 -64h-206q-4 0 -7 3t-3 7v206q0 2 1 5v517h31q13 0 21 -9t9 -21h1v-319q0 -6 5 -9q6 -2 11 2q28 23 62 36q35 13 73 13q89 1 153 -61q64 -63 65 -151zM401 213v3q0 63 -45 108q-45 46 -110 46q-60 0 -104 -41q-44 -40 -49 -99v-3
q-1 -3 -1 -6v-151q0 -4 3 -6q3 -3 7 -3h142q64 0 110 44t47 108z" />
    <glyph glyph-name="c" unicode="c" horiz-adv-x="389" 
d="M337 89q4 -3 11 -9q8 -6 11 -9q4 -4 9 -8q4 -3 4 -8q0 -4 -4 -7q-25 -20 -53 -31q-29 -11 -59 -14q-10 -1 -20 -1q-45 0 -89 20q-55 23 -91 78q-31 45 -35 100q-1 8 -1 16q0 46 21 89q29 62 83 94q53 31 112 32h1q31 0 61 -9q31 -9 58 -28q1 -1 1 -2t-1 -2
q-10 -10 -20 -19l-20 -20q-2 -1 -3 0q-58 31 -123 10q-66 -21 -95 -91q-12 -30 -10 -64q2 -33 18 -62q37 -65 103 -78q67 -13 119 23q3 2 6 2t6 -2z" />
    <glyph glyph-name="d" unicode="d" horiz-adv-x="471" 
d="M391 69v150q0 3 -1 6v3q-6 59 -50 99q-43 41 -104 41q-64 0 -110 -46q-44 -45 -44 -108v-3q1 -64 47 -108t110 -44h142q4 0 7 3t3 7zM452 9q0 -4 -3 -7t-8 -3h-205q-90 0 -154 64q-61 62 -62 150v4q2 89 66 151t152 61q38 -1 73 -14q34 -13 62 -36q5 -4 11 -1q5 2 5 9
v322q0 12 9 21t22 9h32v-730z" />
    <glyph glyph-name="e" unicode="e" horiz-adv-x="430" 
d="M395 358q2 -3 2 -7v-1q0 -3 -2 -5l-252 -252q40 -31 91 -32q50 -1 91 28q3 2 6 2t6 -3l2 -2q9 -7 16 -13q6 -5 15 -13q3 -2 3 -7t-4 -8q-59 -45 -133 -45h-6q-79 2 -138 55q-65 57 -72 145v18q0 76 49 136q54 66 137 77q16 2 31 2q65 0 121 -38l6 -5q7 -6 14 -13
q7 -6 12 -12zM95 151q3 -4 8 -5h2q3 0 6 3l192 192q3 3 3 7q1 1 0 2q0 5 -5 7q-31 14 -63 14q-16 0 -33 -3q-50 -10 -85 -49q-31 -36 -37 -82q-1 -11 -1 -21q-1 -34 13 -65z" />
    <glyph glyph-name="f" unicode="f" horiz-adv-x="307" 
d="M41 527q0 87 62 149q61 62 148 62h5q4 0 7 -3t3 -7v-41q0 -4 -3 -7t-7 -3h-5q-62 0 -106 -44q-45 -44 -45 -107v-101h147q4 0 7 -2q3 -3 3 -7v-40q0 -4 -3 -7t-6 -3h-146v-358q0 -4 -3 -7t-7 -3h-51v529z" />
    <glyph glyph-name="g" unicode="g" horiz-adv-x="472" 
d="M83 -87q4 0 7 -3t3 -6q3 -60 47 -103q44 -42 105 -42q63 0 108 44q44 45 44 108v91h-150q-87 0 -151 62q-64 61 -65 148v3q0 87 63 150q62 63 150 62h2q87 0 149 -64t62 -151v-299q0 -88 -63 -152q-62 -64 -150 -64h-1q-86 1 -147 61q-61 59 -65 144q0 5 3 8q3 2 7 2
q14 1 42 1zM397 211q0 64 -44 109q-45 46 -108 46t-108 -45t-45 -108q1 -63 46 -108q46 -44 109 -44h140q4 0 7 3t3 7v140z" />
    <glyph glyph-name="h" unicode="h" horiz-adv-x="493" 
d="M41 8v732h31q13 0 22 -9t9 -22v-322q0 -6 6 -8q5 -3 10 1q28 23 64 36q35 14 74 14q85 0 146 -57q62 -57 69 -139v-226q0 -4 -2 -7q-3 -3 -8 -3h-41q-4 0 -7 3t-3 7v221q-6 58 -50 99q-44 40 -104 40q-61 0 -104 -40q-44 -41 -50 -99v-221q0 -5 -3 -8t-7 -3h-42
q-4 0 -7 3t-3 8zM549 9h-1v1zM557 1v1h-1zM547 10l-1 1h-1zM556 3v1h-1z" />
    <glyph glyph-name="i" unicode="i" horiz-adv-x="144" 
d="M83 494h-42v42q0 18 12 30t30 12q17 0 30 -12q12 -13 12 -30t-12 -29q-12 -13 -30 -13zM53 3q-4 0 -7 2q-2 3 -2 7v413q0 4 3 7t7 3h41q4 0 7 -3t3 -7v-413q0 -4 -3 -7q-2 -2 -6 -2h-43z" />
    <glyph glyph-name="j" unicode="j" horiz-adv-x="205" 
d="M175 431q3 0 6 -2q2 -3 2 -7v-445q-1 -73 -52 -125q-50 -53 -122 -57q-4 0 -6 2q-3 3 -3 7v36q0 3 2 5q2 3 5 3q51 4 87 41q35 37 36 88v445q0 4 3 7q2 2 6 2h36z" />
    <glyph glyph-name="k" unicode="k" horiz-adv-x="451" 
d="M226 284q67 -90 202 -269q2 -3 2 -7q0 -2 -1 -4q-3 -5 -9 -5h-53q-2 0 -4 1t-3 3q-57 76 -171 229q-3 3 -8 3q-4 0 -7 -3q-22 -27 -65 -80q-1 -2 -1 -3q-1 -1 -1 -3v-137q0 -4 -2 -7q-3 -2 -7 -2h-42q-4 0 -7 2q-3 3 -3 7v730h31q13 0 22 -9t9 -21v-438q0 -7 6 -9
q7 -2 11 3q45 53 135 160q2 2 4 3q1 1 4 1h46q6 0 8 -5q3 -6 -1 -11q-32 -39 -95 -117q-2 -2 -2 -6q0 -3 2 -6z" />
    <glyph glyph-name="l" unicode="l" horiz-adv-x="266" 
d="M88 702v-492q1 -61 45 -104q44 -44 105 -45q13 0 21 -9q9 -9 9 -21v-21q0 -4 -2 -7q-3 -3 -8 -3h-20q-87 1 -148 62q-62 62 -63 148v523h30q13 0 22 -9t9 -22z" />
    <glyph glyph-name="m" unicode="m" horiz-adv-x="533" 
d="M515 200v-192q0 -4 -3 -7q-2 -3 -7 -3h-42q-4 0 -7 3t-3 7v206q0 64 -45 109q-45 46 -109 46v-360q0 -4 -3 -7t-7 -3h-52v227q-4 60 -48 102q-45 41 -106 41v-361q0 -5 -3 -8t-7 -3h-42q-5 0 -8 3q-2 3 -2 8v398q0 10 7 18q7 7 18 7h37q45 0 85 -18q40 -17 69 -47v40
q0 10 8 18q7 7 18 7h36q58 0 106 -32q49 -32 77 -81q16 -27 24 -57q9 -30 9 -61z" />
    <glyph glyph-name="n" unicode="n" 
d="M408 215v-204q0 -5 -2 -8q-3 -2 -7 -2q-12 -1 -36 -1q-4 0 -7 3t-3 7v204q0 63 -40 108t-97 45t-97 -45t-40 -108v-207q-2 -3 -4 -5q-2 -1 -5 -1h-36q-4 0 -7 2q-3 3 -3 8v204q0 88 56 150q56 63 136 63q79 0 135 -63q57 -62 57 -150z" />
    <glyph glyph-name="o" unicode="o" horiz-adv-x="472" 
d="M237 1q-88 0 -151 63q-62 63 -62 151q0 89 62 151q63 63 151 63t151 -63t63 -151t-63 -151q-62 -63 -151 -63zM237 369q-64 0 -109 -45t-45 -109q0 -63 46 -109q45 -45 108 -45q64 0 109 45q45 46 45 109q0 64 -45 109t-109 45z" />
    <glyph glyph-name="p" unicode="p" horiz-adv-x="493" 
d="M468 209q-1 -91 -66 -154t-155 -63h-145q-4 0 -7 -3q-3 -2 -3 -7v-258q0 -13 -8 -22q-8 -8 -20 -10h-34v517q0 90 63 155t154 66h2q91 1 155 -64q64 -64 64 -155v-2zM247 368q-65 -1 -110 -48t-45 -111v-144q0 -5 3 -8t8 -3h146q65 0 111 46t46 111q0 66 -47 111
q-46 46 -111 46h-1z" />
    <glyph glyph-name="q" unicode="q" horiz-adv-x="492" 
d="M243 435q90 -1 153 -66t63 -156v-515h-35q-11 2 -19 11q-8 8 -8 21v258q0 4 -3 7q-3 2 -7 2h-144q-90 0 -156 63q-65 63 -66 153v3q0 90 65 155q64 64 154 64h3zM84 216q0 -65 46 -111q45 -45 110 -45h146q5 0 8 3q3 2 3 7v143q0 65 -45 112q-45 46 -109 47h-1
q-66 0 -112 -45q-46 -46 -46 -111z" />
    <glyph glyph-name="r" unicode="r" horiz-adv-x="266" 
d="M98 63v-51q0 -4 -3 -7t-7 -3h-42q-4 0 -7 3t-3 7v205q0 83 55 143q56 61 136 69h2q3 0 6 -2q3 -3 3 -7v-42q0 -3 -2 -6q-3 -3 -7 -3q-56 -8 -94 -51t-38 -101v-154h1z" />
    <glyph glyph-name="s" unicode="s" horiz-adv-x="287" 
d="M139 0q-30 0 -60 9t-59 26q-5 3 -7 8q-1 3 -0.5 4.5t2.5 5.5q6 9 18 28q3 4 8 5q4 1 9 -1q48 -28 83 -27q36 1 61 11q25 9 26 36q0 27 -6 45q-5 15 -39 32q-34 18 -59 30q-18 8 -34 16q-17 8 -28 16q-19 13 -29 33t-10 45q0 16 3 27q3 12 4 15q6 17 31 41t75 28q9 1 18 1
q32 0 57 -10q31 -13 46 -23q5 -3 5 -9q1 -5 -2 -9q-4 -4 -11 -12q-4 -5 -12 -14q-2 -3 -7 -4q-4 0 -8 2q-11 6 -32 15q-21 8 -49 6q-32 -3 -43 -16q-12 -12 -17 -38q-3 -20 14 -32q9 -6 23 -13q15 -7 31 -14q42 -20 79 -42q38 -22 49 -54q10 -29 10 -55q0 -21 -7 -41
q-15 -43 -57 -58q-20 -6 -39 -10q-19 -3 -37 -3z" />
    <glyph glyph-name="t" unicode="t" horiz-adv-x="349" 
d="M166 710v-212h115v-33q0 -14 -9 -23q-10 -10 -23 -10h-83v-219q2 -62 46 -106t106 -44q13 -1 22 -10t9 -22v-21q0 -4 -3 -7t-7 -3h-21q-87 1 -149 63t-64 149v220h-106v31q0 10 5 19q6 10 15 14q5 2 10 2h76v243h30q13 0 22 -9t9 -22z" />
    <glyph glyph-name="u" unicode="u" 
d="M21 215v205q0 4 2 7q3 3 8 3q11 0 35 1q4 0 7 -3t3 -7v-206q0 -63 40 -109q41 -45 98 -45t97 46q41 45 40 109v208q1 3 4 4q2 2 5 2h36q4 0 7 -3t3 -7v-205q0 -89 -56 -152q-57 -63 -137 -63q-79 0 -136 63q-56 63 -56 152z" />
    <glyph glyph-name="v" unicode="v" horiz-adv-x="349" 
d="M305 428q4 0 7 -2q3 -3 3 -8v-204q0 -88 -63 -151q-62 -63 -151 -63h-62v418q0 5 3 8q2 2 7 2h41q4 0 7 -2q3 -3 2 -8v-357q64 0 109 45q46 45 46 109v203q0 5 3 8q3 2 7 2h41z" />
    <glyph glyph-name="w" unicode="w" horiz-adv-x="533" 
d="M297 431v-369h1q63 0 109 45q45 45 45 109v215h61v-215q0 -89 -63 -152t-152 -63h-1v-1h-36q-11 0 -18 7q-8 8 -8 18v40q-29 -29 -68 -47q-40 -17 -85 -17h-36q-11 0 -18 7t-7 18v405h61v-369q61 0 105 42q44 41 48 102v225h62z" />
    <glyph glyph-name="x" unicode="x" horiz-adv-x="410" 
d="M334 9q-6 63 -44 106q-37 43 -87 43t-87 -43t-44 -106q0 -4 -3 -6q-2 -3 -5 -3h-35q-4 0 -6 3q-3 4 -3 7q1 1 1 2q5 66 35 117q30 52 76 77q5 3 5 10t-5 9q-46 25 -76 77t-35 118q-1 5 2 8q2 4 6 4h35q3 0 5 -3q3 -3 3 -7q6 -63 43 -106q38 -43 88 -43t87 43
q38 43 44 106q0 4 3 7q2 3 5 3h35q4 0 6 -4q2 -3 2 -7v-1q-5 -66 -35 -118q-31 -52 -76 -77q-5 -2 -5 -9t5 -10q45 -25 76 -77q30 -52 35 -117q1 -5 -2 -9q-2 -3 -6 -3h-35q-3 0 -5 3q-3 2 -3 6z" />
    <glyph glyph-name="y" unicode="y" 
d="M408 425v-71q0 -81 -46 -141q-47 -60 -116 -73v-127q0 -6 -4 -9q-3 -4 -9 -4h-39q-5 0 -9 4q-3 3 -3 9v126q-69 13 -116 74q-47 60 -47 140v70q0 4 3 7t8 3q12 0 36 1q3 0 6 -3t3 -7v-59q0 -2 -1 -5v-5q0 -65 41 -110q41 -46 99 -46t98 46q41 45 41 110v72l4 4q3 2 6 2
h36q4 0 7 -3q2 -2 2 -5z" />
    <glyph glyph-name="z" unicode="z" horiz-adv-x="379" 
d="M333 0h-316q-5 0 -8 5q-1 1 -1 3q0 3 2 5q82 118 245 353q3 4 1 9q-3 4 -8 4h-158q-4 0 -7 3q-2 2 -2 6v34q0 3 2 6q3 3 7 3h257q5 0 7 -5q1 -2 1 -3q1 -3 -1 -6q-82 -117 -246 -352q-3 -4 0 -9q2 -4 7 -4h217q3 0 6 -3t3 -6v-35q0 -3 -2 -6q-3 -2 -6 -2z" />
    <glyph glyph-name="braceleft" unicode="{" horiz-adv-x="205" 
d="M21 405h31v231q0 42 29 72q30 29 72 29h39v-59h-39q-17 0 -29 -12q-13 -12 -13 -30v-535q0 -18 13 -30q12 -12 29 -12h39v-59h-39q-42 0 -72 30q-29 29 -29 71v229h-31v75z" />
    <glyph glyph-name="bar" unicode="|" horiz-adv-x="123" 
d="M89 711q0 -3 -1 -5h1v-706h-29q-12 0 -20 8q-9 9 -9 21q0 4 1 8v665q-1 4 -1 9v28h29q12 0 21 -8q8 -8 8 -20z" />
    <glyph glyph-name="braceright" unicode="}" horiz-adv-x="226" 
d="M168 637v-233h34v-75h-34v-231q0 -42 -30 -72t-72 -30h-42v61h42q17 0 29 12t12 29v539q0 17 -12 29q-12 13 -29 13h-42v60h42q42 0 72 -30t30 -72z" />
    <glyph glyph-name="asciitilde" unicode="~" horiz-adv-x="574" 
d="M150 673v32q0 13 8 22q9 10 21 11h252v-32q0 -14 -10 -23q-9 -9 -23 -9z" />
    <glyph glyph-name="exclamdown" unicode="&#xa1;" horiz-adv-x="123" 
d="M103 0h-30q-13 0 -22 9t-9 21v549h31q12 0 21 -9q6 -7 8 -15h1v-555zM80 656h-39v39q0 17 11 28q12 12 28 12t28 -12q11 -11 11 -28q0 -15 -11 -27q-12 -12 -28 -12z" />
    <glyph glyph-name="sterling" unicode="&#xa3;" horiz-adv-x="534" 
d="M116 1q-2 -1 -5 -1q-5 -1 -10 4q-7 6 -3 15q6 15 18 44q8 18 -2 112q-4 39 -12 85h-75v33q0 14 10 24q9 9 23 9h31q-7 37 -15 79v5q0 2 4 39t38 72q25 25 61 37q32 11 73 11h12q40 -2 89 -16q49 -15 83 -58q13 -16 19 -32q7 -15 10 -27q1 -6 -3 -11q-4 -6 -10 -6
q-17 -1 -51 -4l-4 13q-3 13 -16 28q-18 21 -48 33q-30 11 -72 13q-33 1 -57 -6t-40 -22q-14 -16 -19 -33q-4 -17 -4 -24v-4q3 -14 11 -58q3 -14 6 -29h216v-33q0 -13 -9 -23q-8 -8 -19 -10h-178q1 -2 1 -3q8 -47 11 -82q4 -34 5 -59q0 -6 6 -10q5 -4 11 -2q21 6 46 11
q25 6 53 9q50 6 102 0q53 -6 95 -36q5 -4 6 -10v-2q0 -5 -3 -9q-9 -10 -25 -29q-4 -4 -9 -5q-5 0 -9 3q-41 28 -99 26q-58 -1 -110 -14q-28 -6 -51 -14t-38 -15q-14 -6 -44 -18z" />
    <glyph glyph-name="currency" unicode="&#xa4;" horiz-adv-x="472" 
d="M436 371l-27 -27q43 -55 43 -128q0 -69 -38 -122l47 -46l-10 -10q-5 -6 -10 -10q-8 -8 -20 -8t-20 8l-25 24q-59 -52 -140 -52q-73 0 -129 42l-52 -52l-20 20q-8 8 -9 19v1q0 10 7 18l34 34q-46 57 -46 134q0 79 49 137l-43 43l-6 7q6 7 20 20q8 8 19 9h1q10 0 18 -7
l33 -33q54 39 124 39q76 0 133 -46l47 46l20 -20q8 -8 8 -20t-8 -20zM236 376q-47 0 -84 -24h-1q-15 -10 -28 -23q-47 -47 -47 -113t47 -113t113 -47t113 47t47 113t-47 113t-113 47z" />
    <glyph glyph-name="yen" unicode="&#xa5;" horiz-adv-x="533" 
d="M301 241h196v-36q0 -15 -11 -25q-7 -8 -17 -11h-168v-28h196v-36q0 -15 -11 -25q-10 -11 -25 -11h-160v-53q0 -7 -5 -11q-4 -5 -10 -5h-48q-6 0 -10 4q-5 5 -5 11v54h-197v37q0 14 11 25q10 10 25 10h161v28h-189v36q0 15 10 26q11 10 26 10h153q-83 15 -138 87
q-57 73 -57 172v84q0 5 3 8q4 4 9 4h43q5 0 9 -4q3 -4 4 -9v-83q-1 -77 48 -132q49 -54 119 -54t119 54q49 55 49 133v87q2 4 5 6t7 2h43q5 0 9 -4q2 -2 2 -6v-86q0 -98 -57 -171t-139 -88z" />
    <glyph glyph-name="copyright" unicode="&#xa9;" horiz-adv-x="390" 
d="M193 224q-73 0 -124 52q-52 51 -52 124t52 125q51 51 124 51t125 -51q51 -52 51 -125t-51 -124q-52 -52 -125 -52zM193 531q-54 0 -92 -39q-38 -38 -38 -92t38 -92t92 -38t92 38q39 38 39 92t-39 92q-38 39 -92 39zM257 337q-11 -11 -26 -17t-33 -6q-35 0 -61 25
q-25 25 -25 61t25 61q26 26 61 26q16 0 30 -6q15 -5 26 -15q-4 -3 -11 -10q-9 7 -20 11q-12 4 -25 4q-29 0 -50 -21t-21 -50q0 -30 21 -51t50 -21q15 0 27 5t22 14q2 -3 5 -5z" />
    <glyph glyph-name="registered" unicode="&#xae;" horiz-adv-x="390" 
d="M199 222q-72 0 -123 52q-52 51 -52 123q0 73 52 124q51 51 123 51q73 0 124 -51t51 -124q0 -72 -51 -123q-51 -52 -124 -52zM199 528q-54 0 -92 -38t-38 -91q0 -54 38 -92t92 -38q53 0 91 38t38 92q0 53 -38 91t-91 38zM257 306h-12q-1 0 -2 1l-1 1q-12 25 -37 76h-2
l-1 -1h-45v-70q0 -3 -3 -5q-2 -2 -5 -3h-9v134q0 24 17 41q16 17 40 17h1q24 0 40 -17t16 -41q0 -9 -4 -18q-3 -9 -9 -16v-1h-1q-1 -2 -2 -3l-4 -4q-1 -1 -2 -1l-1 -1v-1h-1q-2 -1 -4 -3q-2 -1 -5 -2l39 -78v-1q1 -1 0 -2q-1 -2 -3 -2zM238 440q0 17 -12 29t-28 12h-1
q-17 0 -29 -12q-11 -12 -11 -29v-39q1 -1 2 -1h38q17 0 29 12t12 28z" />
    <glyph glyph-name="degree" unicode="&#xb0;" horiz-adv-x="184" 
d="M94 574q-30 0 -52 22q-21 22 -21 52t21 52q22 22 52 22q31 0 52 -22q22 -21 22 -52t-22 -52q-21 -22 -52 -22zM94 668q-8 0 -14 -6q-5 -6 -5 -14t5 -14q6 -6 14 -6t14 6t6 14t-6 14t-14 6z" />
    <glyph glyph-name="mu" unicode="&#xb5;" horiz-adv-x="451" 
d="M22 -90v509q0 4 3 7t7 3h37q4 0 7 -3t3 -7v-211q0 -66 41 -113q42 -46 101 -46t101 46q41 47 41 113v215q1 3 4 4q2 2 5 2h37q5 0 8 -3t3 -7v-212q0 -92 -59 -157q-58 -65 -140 -65q-83 0 -141 65l-3 3v-143q0 -5 -4 -9q-3 -4 -9 -4h-29q-6 0 -10 4q-3 4 -3 9z" />
    <glyph glyph-name="questiondown" unicode="&#xbf;" horiz-adv-x="390" 
d="M21 306q0 67 20 120q21 54 62 93q25 24 53 40q28 15 55 25q44 15 79 20v140h31q12 0 21 -8t10 -20v-150h-1v-21h-4l-34 -2q-34 -1 -77 -16q-23 -7 -47 -20t-44 -33q-31 -30 -47 -72t-16 -96q0 -53 16 -95q15 -41 46 -72q20 -20 44 -34q23 -13 46 -22q44 -16 77 -19
q33 -2 34 -2h5v-62h-5q-3 0 -43 4q-40 3 -92 23q-28 10 -56 27q-29 17 -54 42q-40 39 -60 92q-19 53 -19 118zM369 848q0 -20 -14 -34q-15 -15 -35 -15t-35 15q-14 14 -14 34v49h49q20 0 35 -14q14 -14 14 -35z" />
    <glyph glyph-name="Agrave" unicode="&#xc0;" horiz-adv-x="600" 
d="M579 429v-421q0 -5 -4 -8q-3 -4 -8 -4h-38q-5 0 -8 4q-4 3 -4 8v146h-430v-143q0 -5 -3 -9q-4 -4 -9 -4h-37q-5 0 -9 4t-4 9v404q0 2 1 15q0 13 4 34q5 39 25 95q20 55 66 102q36 36 84 57q47 21 105 21q57 0 102 -23q45 -22 79 -58q44 -46 62 -100q18 -55 23 -94
q2 -21 3 -35zM517 413q0 1 -2 34q-1 34 -16 78q-8 23 -20 46q-13 24 -33 44q-26 27 -61 45q-35 17 -80 17q-43 0 -78 -17q-36 -17 -62 -44q-21 -20 -34 -44q-14 -23 -22 -46q-16 -44 -19 -77t-3 -34v-204h430v202zM292 861q16 0 28 -11q12 -12 12 -29v-40h-44q-17 0 -28 12
q-12 12 -12 28v40h44z" />
    <glyph glyph-name="Aacute" unicode="&#xc1;" horiz-adv-x="599" 
d="M578 411v-403q0 -5 -3 -9q-4 -3 -9 -3h-37q-5 0 -9 3q-4 4 -4 9v146h-429v-144q0 -5 -4 -8q-4 -4 -9 -4h-37q-5 0 -9 4q-3 3 -3 8v419q1 14 4 35q6 39 25 94q20 56 66 102q36 36 84 57q47 21 106 21q57 0 101 -22q45 -23 79 -58q24 -25 40 -53t25 -55q18 -52 21 -92
q2 -41 2 -47zM516 413l-1 34q-2 34 -16 77q-8 23 -21 47t-32 44q-26 27 -61 44q-35 18 -81 18q-43 -1 -78 -18q-35 -16 -62 -43q-20 -20 -34 -44q-13 -24 -22 -47q-16 -43 -19 -77l-2 -33v-204h429v202zM284 861h45v-40q0 -16 -11 -28q-12 -12 -29 -12h-43v40q0 17 11 29
q11 10 27 11z" />
    <glyph glyph-name="Acircumflex" unicode="&#xc2;" horiz-adv-x="609" 
d="M588 411v-403q0 -5 -3 -9q-4 -3 -9 -3h-38q-5 0 -8 3q-4 4 -4 9v146h-430v-144q0 -5 -3 -8q-4 -4 -9 -4h-37q-5 0 -9 4q-3 3 -3 8v419q1 14 4 35q6 39 25 94q20 56 66 102q36 36 84 57q47 21 106 21q56 0 101 -22q45 -23 79 -58q24 -25 40 -53q15 -28 25 -55
q18 -52 21 -92q2 -41 2 -47zM526 413l-1 34q-2 34 -17 77q-7 23 -20 47t-33 44q-26 27 -60 44q-35 18 -81 18q-43 -1 -78 -18q-36 -16 -62 -43q-20 -20 -34 -44t-22 -47q-16 -43 -19 -77l-3 -33v-204h430v202zM387 760q-5 0 -8 3q-21 22 -58 59q-4 3 -8 3q-5 0 -8 -3
l-57 -57q-5 -4 -11 -3q-6 0 -11 5t-5 10t3 8l81 80q4 4 8 4q5 0 9 -4l78 -78q3 -4 3 -10v-1q0 -6 -5.5 -11t-10.5 -5z" />
    <glyph glyph-name="Atilde" unicode="&#xc3;" horiz-adv-x="599" 
d="M578 430v-420q0 -5 -3 -9q-4 -4 -9 -4h-38q-5 0 -8 4q-4 4 -4 9v146h-430v-144q0 -5 -3 -9q-4 -3 -9 -3h-37q-5 0 -9 3q-3 4 -3 9v404q0 3 3 44q3 40 23 92q11 28 28 57q16 28 41 53q36 36 84 57q47 21 106 21q56 0 101 -22q45 -23 79 -58q44 -46 62 -101q18 -54 23 -93
q3 -22 3 -36zM516 415l-1 34q-2 34 -17 77q-7 23 -20 47q-13 23 -33 44q-26 27 -61 44q-34 17 -80 17q-43 0 -78 -17q-36 -16 -62 -43q-20 -21 -34 -44q-14 -24 -22 -47q-16 -43 -19 -77q-3 -33 -3 -34v-203h430v202zM167 800v32q0 12 8 20q8 9 20 10h242v-31q0 -13 -9 -22
t-22 -9h-239z" />
    <glyph glyph-name="Adieresis" unicode="&#xc4;" horiz-adv-x="593" 
d="M572 430v-420q0 -5 -3 -9q-4 -4 -9 -4h-37q-5 0 -9 4q-3 4 -3 9v146h-430v-144q0 -5 -4 -9q-4 -3 -9 -3h-37q-5 0 -9 3q-3 4 -3 9v404q0 3 3 44q4 40 23 92q11 28 28 57q17 28 42 53q36 36 83 57q48 21 106 21q57 0 101 -22q45 -23 79 -58q44 -46 62 -101q18 -54 23 -93
q3 -22 3 -36zM511 415l-2 34q-2 34 -16 77q-8 23 -21 47q-13 23 -32 44q-26 27 -61 44t-81 17q-42 0 -78 -17q-35 -16 -62 -43q-20 -21 -34 -44q-13 -24 -22 -47q-16 -43 -19 -77q-2 -33 -2 -34v-203h430v202zM236 865q17 0 30 -12q12 -12 12 -30v-42h-45q-18 0 -30 12
t-12 30v42h45zM367 865h47v-42q0 -18 -12 -30q-13 -12 -30 -12h-45v42q0 18 12 30q12 11 28 12z" />
    <glyph glyph-name="Aring" unicode="&#xc5;" horiz-adv-x="599" 
d="M578 412v-404q0 -5 -3 -8q-4 -4 -9 -4h-37q-5 0 -9 4q-3 3 -3 8v146h-430v-143q0 -5 -4 -9q-4 -3 -9 -3h-37q-5 0 -9 3q-3 4 -3 9v404q0 3 3 43q4 41 23 93q11 28 28 56q17 29 42 54q36 36 83 57q48 21 106 21q57 0 101 -23q45 -22 79 -58q24 -24 40 -52t25 -56
q18 -51 21 -92q2 -40 2 -46zM517 413q0 1 -2 35q-2 33 -16 77q-8 23 -21 47q-13 23 -32 43q-26 28 -61 45t-81 17q-42 0 -78 -17q-35 -17 -62 -43q-20 -21 -34 -44q-13 -24 -22 -47q-16 -44 -19 -77q-2 -33 -2 -34v-204h430v202zM311 754q-5 -1 -10 -1q-21 0 -38 13
q-21 16 -25 42q-1 5 -1 10q0 21 13 38q16 21 42 25q6 1 11 1q20 0 37 -13q22 -15 25 -42q1 -5 1 -10q0 -21 -13 -38q-16 -21 -42 -25zM288 828q-3 -5 -3 -10v-3q1 -7 7 -11q4 -3 7.5 -3.5t7.5 0.5t9 6q3 5 3 10v3q-1 7 -7 11q-5 3 -10 4q-1 0 -5.5 -1t-8.5 -6z" />
    <glyph glyph-name="AE" unicode="&#xc6;" horiz-adv-x="969" 
d="M935 672h-341q-5 0 -9 -4t-4 -9v-219q0 -6 4 -9q4 -4 9 -4h246q5 0 8 -4q4 -3 4 -8v-34q0 -5 -4 -9q-3 -3 -8 -3h-246q-5 0 -9 -4t-4 -9v-304h354q5 0 9 -3q4 -4 4 -9v-31q0 -5 -4 -9t-9 -4h-406q-5 0 -9 4q-4 3 -4 8v146h-429v-143q0 -5 -4 -9q-4 -3 -9 -3h-37
q-5 0 -9 3q-3 4 -3 9v404q0 3 3 43q4 41 23 93q11 28 28 56q16 29 41 54q36 36 84 57q47 21 106 21q57 0 101 -23q45 -22 79 -58q19 -19 33 -41v101q0 5 4 9q3 4 8 4h46v-1h354q5 0 9 -4q4 -3 4 -8v-34q0 -5 -4 -9q-4 -3 -9 -3zM516 413q0 1 -1 35q-2 33 -16 77
q-8 23 -21 47q-13 23 -32 43q-26 28 -61 45t-81 17q-43 0 -78 -17t-62 -43q-20 -21 -34 -44q-13 -24 -22 -47q-16 -44 -19 -77q-2 -33 -2 -34v-204h429v202z" />
    <glyph glyph-name="Ccedilla" unicode="&#xc7;" horiz-adv-x="658" 
d="M599 136q7 -6 14 -13q6 -7 13 -14q4 -3 4 -9q0 -5 -4 -9q-49 -41 -110 -65q-53 -20 -112 -23q19 -5 34 -20q23 -23 23 -56v-80h-87q-31 1 -53 23q-24 24 -24 57v79h28q-23 3 -40 11q-49 14 -91 41q-78 48 -126 130q-47 82 -47 180v1q0 53 15 102q14 48 40 90
q48 78 130 126q82 47 181 47q63 0 120 -20t103 -56q5 -3 5 -9t-4 -10l-27 -27q-3 -3 -8 -3q-4 -1 -8 2q-38 28 -84 44t-97 16q-44 0 -85 -12q-40 -12 -75 -33q-65 -41 -104 -109q-40 -69 -39 -150q0 -44 13 -85q12 -40 34 -75q41 -64 110 -103q68 -39 150 -38q54 1 103 20
t88 52q4 2 8 2q5 0 9 -4z" />
    <glyph glyph-name="Egrave" unicode="&#xc8;" horiz-adv-x="469" 
d="M436 0h-400q-5 0 -8 4q-4 3 -4 8v709q0 6 4 9q3 4 8 4h46v-1h354q5 0 9 -3q3 -4 3 -9v-34q0 -5 -3 -8q-4 -4 -9 -4h-341q-5 0 -9 -4q-4 -3 -4 -9v-219q0 -5 4 -9q4 -3 9 -3h245q6 0 9 -4q4 -4 4 -9v-33q0 -6 -4 -9q-3 -4 -9 -4h-245q-5 0 -9 -3q-4 -4 -4 -9v-304h354
q5 0 9 -4q3 -3 3 -9v-31q0 -5 -3 -8q-4 -4 -9 -4zM253 850q12 -12 12 -28v-41h-43q-17 0 -29 12q-11 12 -11 29v40h44q15 -1 27 -12z" />
    <glyph glyph-name="Eacute" unicode="&#xc9;" horiz-adv-x="475" 
d="M442 0h-405q-5 0 -9 4q-4 3 -4 9v718q0 6 4 9q4 4 9 4h46v-1h359q5 0 9 -3q3 -4 3 -9v-34q0 -5 -3 -9q-4 -4 -9 -4h-346q-5 0 -9 -3q-4 -4 -4 -9v-223q0 -5 4 -9q4 -3 9 -3h249q5 0 9 -4t4 -9v-34q0 -5 -4 -9t-9 -4h-249q-5 0 -9 -3q-4 -4 -4 -9v-308h359q5 0 9 -4
q3 -4 3 -9v-31q0 -6 -3 -9q-4 -4 -9 -4zM243 862h44v-40q0 -17 -12 -29t-28 -12h-44v41q0 16 12 28t28 12z" />
    <glyph glyph-name="Ecircumflex" unicode="&#xca;" horiz-adv-x="472" 
d="M439 0h-403q-5 0 -8 4q-4 3 -4 8v715q0 5 4 9q3 3 8 3h403q5 0 9 -4q3 -4 3 -9v-34q0 -5 -3 -8q-4 -4 -9 -4h-344q-5 0 -9 -4q-3 -3 -3 -9v-221q0 -5 3 -9q4 -3 9 -3h248q5 0 8 -4q4 -4 4 -9v-34q0 -5 -4 -8q-3 -4 -8 -4h-248q-5 0 -9 -4q-3 -3 -3 -9v-306h356q5 0 9 -3
q3 -4 3 -9v-32q0 -5 -3 -8q-4 -4 -9 -4zM312 760q-5 0 -8 3q-21 22 -58 59q-4 3 -8 3q-5 0 -8 -3l-57 -57q-5 -4 -11 -3q-6 0 -11 5t-5 10t3 8l81 80q4 4 8 4q5 0 9 -4l78 -78q3 -4 3 -10v-1q0 -6 -5.5 -11t-10.5 -5z" />
    <glyph glyph-name="Edieresis" unicode="&#xcb;" horiz-adv-x="469" 
d="M436 0h-400q-5 0 -9 4q-3 3 -3 8v709q0 5 3 9q4 4 9 4h46v-1h354q5 0 8 -4q4 -3 4 -8v-34q0 -5 -4 -9q-3 -3 -8 -3h-342q-5 0 -8 -4q-4 -3 -4 -9v-219q0 -5 4 -9q3 -4 8 -4h246q5 0 9 -3q3 -4 3 -9v-33q0 -6 -3 -9q-4 -4 -9 -4h-246q-5 0 -8 -4q-4 -3 -4 -8v-304h354
q5 0 8 -4q4 -3 4 -9v-31q0 -5 -4 -8q-3 -4 -8 -4zM125 865h46q17 -1 29 -12q12 -12 12 -30v-42h-45q-17 0 -30 12q-12 13 -12 30v42zM303 865h45v-42q0 -17 -12 -30q-12 -12 -30 -12h-44v42q0 18 12 30t29 12z" />
    <glyph glyph-name="Igrave" unicode="&#xcc;" horiz-adv-x="143" 
d="M47 -3q-3 0 -6 3q-2 2 -2 6v723q0 4 2 7q3 2 7 2h42q4 0 7 -2q2 -3 2 -7v-723q0 -4 -2 -6q-3 -3 -6 -3h-44zM19 861h44q16 -1 28 -11q12 -12 12 -29v-40h-44q-17 0 -28 12q-12 12 -12 28v40z" />
    <glyph glyph-name="Iacute" unicode="&#xcd;" horiz-adv-x="123" 
d="M30 -3q-4 0 -6 3q-3 2 -3 6v723q0 4 3 7q3 2 7 2h41q4 0 7 -2q3 -3 3 -7v-723q0 -4 -2 -6q-3 -3 -6 -3h-44zM59 862h45v-40q0 -17 -12 -29q-11 -12 -28 -12h-43v41q0 16 11 28q11 11 27 12z" />
    <glyph glyph-name="Icircumflex" unicode="&#xce;" horiz-adv-x="184" 
d="M70 -3q-4 0 -6 3q-2 2 -2 6v723q0 4 2 7q3 2 7 2h41q5 0 7 -2q3 -3 3 -7v-723q0 -4 -2 -6q-3 -3 -6 -3h-44zM167 760q-5 0 -8 3q-21 22 -58 59q-4 3 -8 3q-5 0 -8 -3l-57 -57q-5 -4 -11 -3q-6 0 -11 5t-5 10t3 8l81 80q4 4 8 4q5 0 9 -4l78 -78q3 -4 3 -10v-1
q0 -6 -5.5 -11t-10.5 -5z" />
    <glyph glyph-name="Idieresis" unicode="&#xcf;" horiz-adv-x="225" 
d="M91 0q-3 0 -6 2q-2 3 -2 6v724q0 4 3 6q3 3 7 3h41q4 0 7 -3q3 -2 3 -6v-724q0 -3 -3 -6q-2 -2 -6 -2h-44zM77 854q13 -13 13 -30v-43h-45q-18 0 -30 13q-13 12 -13 30v42h47q17 -1 28 -12zM183 781h-44v43q0 17 12 30q11 11 27 12h48v-42q0 -18 -13 -30q-12 -13 -30 -13
z" />
    <glyph glyph-name="Ntilde" unicode="&#xd1;" horiz-adv-x="657" 
d="M619 -2h-37q-5 0 -9 3q-3 4 -3 9v402l-2 33q-1 33 -16 77q-7 23 -20 46q-13 24 -32 44q-30 31 -72 47t-96 16q-52 -1 -94 -16q-41 -15 -72 -45q-20 -21 -33 -44q-14 -23 -22 -46q-16 -43 -19 -76q-2 -33 -2 -34v-401q0 -5 -4 -9q-4 -3 -9 -3h-37q-5 0 -8 3q-4 4 -4 9v400
q0 3 4 43q3 40 23 92q10 27 27 55q16 29 41 53q39 39 92 60q52 20 117 20q67 0 120 -21q53 -20 92 -61q44 -45 62 -99t22 -93q3 -21 3 -35v-417q0 -5 -3 -9q-4 -3 -9 -3zM433 800h-238v31q0 12 8 21t19 10h243v-31q0 -13 -9 -22t-23 -9z" />
    <glyph glyph-name="Ograve" unicode="&#xd2;" horiz-adv-x="780" 
d="M391 5q-98 0 -181 48q-82 48 -131 126q-26 42 -40 91q-15 49 -15 101q0 53 15 102q14 49 40 91q49 78 131 126q83 48 181 48q53 0 102 -14t91 -41q79 -48 126 -131q48 -82 48 -181q0 -53 -14 -101q-15 -49 -41 -91q-49 -78 -131 -126t-181 -48zM391 675q-44 0 -84 -12
q-41 -12 -76 -33q-65 -41 -104 -109q-40 -68 -40 -150q0 -44 12 -84q12 -41 34 -75q40 -65 108 -105q69 -39 150 -39q44 0 85 12t75 33q65 41 105 109q39 68 39 149q0 82 -40 150q-39 68 -104 109q-35 21 -75 33q-41 12 -85 12zM400 850q12 -12 12 -28v-41h-44q-16 0 -28 12
t-12 29v40h44q16 0 28 -12z" />
    <glyph glyph-name="Oacute" unicode="&#xd3;" horiz-adv-x="779" 
d="M387 5q-53 0 -102 15q-49 14 -91 40q-78 49 -126 131q-47 82 -47 180q0 53 14 102t41 91q48 78 130 126q83 48 181 48q53 0 102 -14t92 -41q78 -48 125 -131q48 -82 48 -181q0 -53 -14 -101q-15 -49 -41 -91q-49 -78 -131 -126t-181 -48zM387 675q-44 0 -84 -12
q-41 -12 -76 -33q-64 -41 -104 -109q-39 -68 -39 -150q0 -44 12 -84q12 -41 33 -75q41 -65 109 -105q68 -39 149 -39q45 0 85 12q41 12 75 33q65 41 105 109q39 68 39 149q0 82 -39 150q-40 68 -105 109q-35 21 -75 33q-41 12 -85 12zM386 861h45v-40q0 -16 -12 -28t-28 -12
h-44v40q0 17 12 29q11 10 27 11z" />
    <glyph glyph-name="Ocircumflex" unicode="&#xd4;" horiz-adv-x="779" 
d="M392 0q-53 0 -102 14q-49 15 -91 41q-78 49 -126 131t-48 180q0 99 48 181t126 131q42 26 91 41q49 14 102 14t102 -14q49 -15 91 -41q78 -48 126 -131q48 -82 48 -181q0 -53 -15 -102q-14 -49 -40 -91q-49 -78 -131 -125q-83 -48 -181 -48zM392 670q-44 0 -85 -12
q-40 -12 -75 -33q-65 -41 -104 -109q-40 -68 -40 -150q0 -81 40 -149q39 -69 104 -109q35 -22 75 -34q41 -12 85 -12t85 12q40 12 75 34q65 40 104 109q40 68 40 149q0 44 -12 85t-34 75q-40 65 -109 105q-68 39 -149 39zM467 760q-5 0 -8 3q-21 22 -58 59q-4 3 -8 3
q-5 0 -8 -3l-57 -57q-5 -4 -11 -3q-6 0 -11 5t-5 10t3 8l81 80q4 4 8 4q5 0 9 -4l78 -78q3 -4 3 -10v-1q0 -6 -5.5 -11t-10.5 -5z" />
    <glyph glyph-name="Otilde" unicode="&#xd5;" horiz-adv-x="780" 
d="M390 0q-53 0 -102 14q-49 15 -91 41q-78 49 -126 131t-48 180q0 53 15 102q14 49 40 91q49 78 131 126t181 48q53 0 102 -14q49 -15 91 -41q78 -48 126 -131q48 -82 48 -181q0 -53 -14 -102q-15 -49 -41 -91q-49 -78 -131 -125q-83 -48 -181 -48zM390 670q-82 0 -150 -39
q-68 -40 -108 -105q-22 -34 -34 -75t-12 -85t12 -84q12 -41 34 -76q40 -65 108 -104q68 -40 150 -40q44 0 85 12q40 12 75 34q65 40 104 109q40 68 40 149q0 82 -40 150q-39 68 -104 109q-35 21 -75 33q-41 12 -85 12zM255 800v32q0 12 8 20q8 9 19 10h243v-31q0 -13 -9 -22
t-22 -9h-239z" />
    <glyph glyph-name="Odieresis" unicode="&#xd6;" horiz-adv-x="779" 
d="M387 0q-53 0 -102 14q-49 15 -91 41q-78 49 -126 131q-47 82 -47 180q0 53 14 102t41 91q48 78 130 126q83 48 181 48q53 0 102 -14q49 -15 92 -41q78 -48 125 -131q48 -82 48 -181q0 -53 -14 -102q-15 -49 -41 -91q-49 -78 -131 -125q-82 -48 -181 -48zM387 672
q-44 0 -84 -12q-41 -12 -76 -34q-64 -40 -104 -108q-39 -68 -39 -150q0 -44 12 -85q12 -40 33 -75q41 -65 109 -104q68 -40 149 -40q45 0 85 12q41 12 75 34q65 40 105 108q39 69 39 150q0 82 -39 150q-40 68 -105 108q-35 22 -75 34q-41 12 -85 12zM355 853q13 -12 13 -30
v-42h-47q-17 0 -28 12q-13 13 -13 30v42h46q17 0 29 -12zM459 865h45v-42q0 -17 -13 -30q-12 -12 -29 -12h-45v42q0 18 12 30t30 12z" />
    <glyph glyph-name="multiply" unicode="&#xd7;" horiz-adv-x="369" 
d="M53 480q-8 7 -17 17l-10 10l30 30q12 12 28 13h2q15 0 27 -9q27 -28 66 -67l100 100q7 -6 15 -15q9 -8 15 -15q12 -13 12 -30q0 -18 -12 -30l-71 -71q37 -35 80 -78q6 -6 19 -18l12 -12l-31 -31q-12 -12 -30 -12t-30 12q-32 32 -80 79l-70 -70l-2 -4q-8 -7 -18 -17
l-10 -10l-15 15q-8 9 -15 16q-12 11 -13 28v2q0 15 10 26q30 30 73 74q-29 30 -62 63q-1 1 -3 4z" />
    <glyph glyph-name="Oslash" unicode="&#xd8;" horiz-adv-x="800" 
d="M696 737q7 -8 22 -23q9 -9 9 -23q0 -13 -9 -22l-53 -53q27 -30 49 -66q48 -83 48 -182q0 -53 -15 -102q-14 -49 -40 -92q-49 -78 -132 -126t-181 -48q-54 0 -103 15q-49 14 -91 40q-29 18 -54 40l-73 -73q-5 -6 -13 -13l-7 -8l-23 23q-9 8 -10 21v1q0 12 7 20l76 76
q-16 21 -30 45q-48 82 -48 181q0 54 15 103t41 91q49 79 131 127q83 47 182 47q53 0 102 -14q49 -15 92 -41q15 -10 30 -21q19 18 55 54q4 5 13 14zM243 103q69 -40 151 -40q44 0 84 12q41 12 76 34q65 40 105 109q40 68 40 150q0 44 -12 85t-34 76q-15 23 -33 43l-429 -432
q23 -21 52 -37zM394 673q-82 0 -151 -40q-68 -39 -108 -104q-22 -35 -34 -76t-12 -85t12 -84q12 -41 34 -76q6 -11 13 -21q167 168 425 427q-14 10 -29 19q-68 40 -150 40z" />
    <glyph glyph-name="Ugrave" unicode="&#xd9;" horiz-adv-x="657" 
d="M38 740h38q5 0 8 -3q4 -4 4 -9v-403q0 -1 1 -34q2 -34 17 -77q7 -23 20 -47q13 -23 32 -44q30 -31 73 -47q42 -16 96 -16q52 0 94 16q41 15 72 46q20 20 33 44q14 23 23 46q16 43 18 76l3 34v404q0 5 4 8q3 4 8 4h38q5 0 8 -4q4 -3 4 -8v-402q0 -3 -4 -44q-3 -40 -23 -91
q-10 -28 -27 -56q-17 -29 -42 -53q-39 -40 -92 -60q-52 -20 -117 -20q-67 0 -121 21q-53 20 -92 61q-24 24 -39 52q-16 28 -26 55q-18 51 -20 91q-3 41 -3 47v401q0 5 4 9q3 3 8 3zM331 862q16 0 28 -12t12 -28v-41h-44q-17 0 -28 12q-12 12 -12 29v40h44z" />
    <glyph glyph-name="Uacute" unicode="&#xda;" horiz-adv-x="657" 
d="M38 738h38q5 0 8 -3q4 -4 4 -9v-403q0 -1 1 -34q2 -33 17 -77q7 -23 20 -47q13 -23 32 -44q30 -31 73 -47q42 -15 96 -15q52 0 94 15t72 46q20 20 34 44q13 23 22 46q16 43 18 77q3 33 3 34v403q0 5 4 8q3 4 8 4h38q5 0 8 -4q4 -3 4 -8v-402q0 -3 -4 -43q-3 -40 -23 -92
q-10 -28 -27 -56t-42 -53q-39 -39 -92 -60q-52 -20 -117 -20q-67 0 -120 21q-54 20 -93 61q-24 24 -39 52q-16 28 -26 55q-18 51 -20 92q-3 40 -3 46v401q0 5 4 9q3 3 8 3zM346 862h46v-41q0 -16 -12 -28t-29 -12h-43v40q0 17 12 29q11 11 26 12z" />
    <glyph glyph-name="Ucircumflex" unicode="&#xdb;" horiz-adv-x="656" 
d="M37 740h37q5 0 9 -3q3 -4 3 -9v-403q0 -1 2 -34q1 -33 16 -77q8 -23 21 -47q12 -23 32 -44q30 -31 72 -47q42 -15 96 -15q52 0 94 15t72 46q20 20 34 44q13 23 22 46q16 43 19 77q3 33 3 34v403q0 5 3 8q4 4 9 4h37q5 0 9 -4q3 -3 3 -8v-402q0 -3 -3 -43q-4 -41 -23 -92
q-11 -28 -28 -56q-16 -28 -41 -53q-40 -40 -92 -60q-53 -20 -118 -20q-67 0 -120 21q-53 20 -93 61q-23 24 -39 52t-25 55q-18 51 -21 92q-2 40 -2 46v401q0 5 3 9q4 3 9 3zM403 760q-5 0 -8 3q-21 22 -58 59q-4 3 -8 3q-5 0 -8 -3l-57 -57q-5 -4 -11 -3q-6 0 -11 5t-5 10
t3 8l81 80q4 4 8 4q5 0 9 -4l78 -78q3 -4 3 -10v-1q0 -6 -5.5 -11t-10.5 -5z" />
    <glyph glyph-name="Udieresis" unicode="&#xdc;" horiz-adv-x="661" 
d="M42 742h38q5 0 8 -3q4 -4 4 -9v-403q0 -1 2 -34q1 -34 16 -77q7 -23 20 -47q13 -23 33 -44q29 -31 72 -47q42 -16 96 -16q52 0 94 16q42 15 72 46q20 20 34 44q13 23 22 46q16 43 18 77l3 33v404q0 5 4 8q3 4 8 4h38q5 0 8 -4q4 -3 4 -8v-402q0 -3 -4 -43q-3 -41 -23 -92
q-10 -28 -27 -56q-17 -29 -42 -53q-39 -40 -92 -60q-52 -20 -117 -20q-67 0 -120 21q-54 20 -93 61q-44 45 -62 100q-18 54 -22 93q-3 21 -3 35q-1 14 -1 17v401q0 5 4 9q3 3 8 3zM411 781h-45v42q0 18 12 30q13 12 30 12h45v-42q0 -17 -12 -30q-13 -12 -30 -12zM305 853
q12 -12 12 -30v-42h-45q-18 0 -30 12q-12 13 -12 30v42h46q16 -1 29 -12z" />
    <glyph glyph-name="Yacute" unicode="&#xdd;" horiz-adv-x="678" 
d="M358 0h-39q-6 0 -9 4q-4 3 -4 9v130q-52 4 -96 21q-56 21 -97 64q-25 25 -41 55q-16 29 -26 58q-19 53 -22 95q-3 43 -3 49v244q0 6 4 9q4 4 9 4h39q6 0 9 -4q4 -3 4 -9v-246q0 -1 2 -36q1 -35 17 -80q8 -25 21 -49q14 -25 34 -46q31 -33 76 -49q44 -17 100 -17
q55 0 99 16q43 16 75 49q21 21 35 45q14 25 23 49q17 46 20 80q3 35 3 36v246q0 5 4 9q3 3 9 3h39q5 0 9 -3q3 -4 3 -9v-246q0 -3 -3 -45q-4 -42 -24 -96q-12 -30 -29 -59q-18 -30 -43 -55q-42 -42 -97 -63q-41 -16 -89 -20v-130q0 -6 -3 -9q-4 -4 -9 -4zM360 781h-71v53
q0 21 14 37q15 17 36 18h4q3 0 7 -1q4 1 8 1h53v-53q0 -21 -15 -38q-15 -16 -36 -17z" />
    <glyph glyph-name="agrave" unicode="&#xe0;" horiz-adv-x="482" 
d="M260 563q12 -12 12 -29v-40h-43q-17 0 -29 12q-11 12 -11 28v41h44q15 -1 27 -12zM458 211v-201q0 -5 -3 -7q-3 -3 -7 -3h-201q-85 0 -149 60t-67 145v8q0 56 26 103q29 51 77 80q26 16 56 24q26 7 54 7h9q84 -4 144 -68q61 -64 61 -148zM397 70v141q0 62 -42 107
q-43 46 -105 48h-5q-63 0 -108 -45t-45 -108v-5q2 -62 47 -105q46 -43 108 -43h141q3 0 6 3t3 7z" />
    <glyph glyph-name="aacute" unicode="&#xe1;" horiz-adv-x="492" 
d="M205 494v41q0 17 12 29t29 12h45v-41q0 -17 -12 -29t-29 -12h-45zM458 211v-201q0 -5 -3 -7q-3 -3 -7 -3h-201q-85 0 -149 60t-67 145v8q0 56 26 103q29 51 77 80q26 16 56 24q26 7 54 7h9q84 -4 144 -68q61 -64 61 -148zM397 70v141q0 62 -42 107q-43 46 -105 48h-5
q-63 0 -108 -45t-45 -108v-5q2 -62 47 -105q46 -43 108 -43h141q3 0 6 3t3 7z" />
    <glyph glyph-name="acircumflex" unicode="&#xe2;" horiz-adv-x="492" 
d="M331 478l-3 -3q-3 -3 -8 -3q-4 0 -7 3l-59 58q-3 4 -8 4q-4 0 -8 -4l-57 -56q-4 -4 -10 -4q-7 1 -11 5l-3 3q-3 3 -3 8q0 4 3 7l81 81q4 3 9 3q4 0 8 -3l78 -79q3 -4 3 -9v-1q0 -6 -5 -10zM458 211v-201q0 -5 -3 -7q-3 -3 -7 -3h-201q-85 0 -149 60t-67 145v8
q0 56 26 103q29 51 77 80q26 16 56 24q26 7 54 7h9q84 -4 144 -68q61 -64 61 -148zM397 70v141q0 62 -42 107q-43 46 -105 48h-5q-63 0 -108 -45t-45 -108v-5q2 -62 47 -105q46 -43 108 -43h141q3 0 6 3t3 7z" />
    <glyph glyph-name="atilde" unicode="&#xe3;" horiz-adv-x="492" 
d="M104 509v32q0 14 8 23t21 11h253v-32q0 -15 -10 -24q-9 -10 -23 -10h-249zM458 211v-201q0 -5 -3 -7q-3 -3 -7 -3h-201q-85 0 -149 60t-67 145v8q0 56 26 103q29 51 77 80q26 16 56 24q26 7 54 7h9q84 -4 144 -68q61 -64 61 -148zM397 70v141q0 62 -42 107
q-43 46 -105 48h-5q-63 0 -108 -45t-45 -108v-5q2 -62 47 -105q46 -43 108 -43h141q3 0 6 3t3 7z" />
    <glyph glyph-name="adieresis" unicode="&#xe4;" horiz-adv-x="492" 
d="M207 566q13 -12 13 -30v-42h-45q-18 0 -30 13q-13 12 -13 29v43h46q17 0 29 -13zM309 579h47v-43q0 -17 -13 -29q-12 -13 -30 -13h-44v42q0 18 12 30q11 12 28 13zM458 211v-201q0 -5 -3 -7q-3 -3 -7 -3h-201q-85 0 -149 60t-67 145v8q0 56 26 103q29 51 77 80
q26 16 56 24q26 7 54 7h9q84 -4 144 -68q61 -64 61 -148zM397 70v141q0 62 -42 107q-43 46 -105 48h-5q-63 0 -108 -45t-45 -108v-5q2 -62 47 -105q46 -43 108 -43h141q3 0 6 3t3 7z" />
    <glyph glyph-name="aring" unicode="&#xe5;" horiz-adv-x="492" 
d="M254 452q-6 -1 -11 -1q-20 0 -37 13q-22 16 -25 42q-1 5 -1 11q0 20 12 37q16 21 43 25q5 1 10 1q21 0 38 -13q21 -15 25 -42q1 -5 1 -10q0 -21 -13 -38q-16 -21 -42 -25zM242 533q-7 -1 -12 -7q-3 -4 -3 -10v-3q1 -7 7 -11q4 -3 7.5 -3.5t8 0.5t8.5 6q3 5 3 10v3
q-1 7 -7 11q-4 4 -9 4h-3zM458 211v-201q0 -5 -3 -7q-3 -3 -7 -3h-201q-85 0 -149 60t-67 145v8q0 56 26 103q29 51 77 80q26 16 56 24q26 7 54 7h9q84 -4 144 -68q61 -64 61 -148zM397 70v141q0 62 -42 107q-43 46 -105 48h-5q-63 0 -108 -45t-45 -108v-5q2 -62 47 -105
q46 -43 108 -43h141q3 0 6 3t3 7z" />
    <glyph glyph-name="ae" unicode="&#xe6;" horiz-adv-x="796" 
d="M761 355q2 -3 2 -7v-1q0 -3 -2 -5q-83 -84 -250 -250q40 -31 90 -31q50 -1 91 27q2 2 6 2q3 0 38 -30q3 -3 3 -8q0 -4 -4 -7q-58 -45 -131 -45h-7q-78 2 -137 54q-6 5 -11 10v-55q0 -3 -3 -6t-6 -3h-203q-85 0 -149 60q-64 61 -67 146q-1 4 -1 9q0 28 8 54q8 31 24 56
q29 49 80 78q47 26 103 26h9q84 -3 145 -67q17 -19 29 -39q9 14 20 28q53 65 136 76q16 2 31 2q65 0 119 -37q14 -11 21 -18q6 -6 11 -12zM389 70v151q-3 56 -43 99q-43 46 -106 48h-5q-63 0 -108 -45t-45 -108v-6q2 -63 48 -106q45 -42 107 -42h142q4 0 7 2q3 3 3 7z
M464 150q2 -4 7 -5q1 -1 2 -1q4 1 7 3q63 64 190 192q3 3 3 6v2q-1 5 -5 7q-30 14 -63 14q-16 0 -32 -3q-50 -10 -85 -49q-30 -35 -36 -81q-2 -11 -2 -21q0 -34 14 -64z" />
    <glyph glyph-name="ccedilla" unicode="&#xe7;" horiz-adv-x="390" 
d="M337 89q4 -3 11 -9q8 -6 11 -9q4 -4 9 -8q4 -3 4 -8q0 -4 -4 -7q-25 -20 -53 -31q-29 -11 -59 -14l-10 -1q11 -4 20 -13q15 -15 15 -38v-54h-58q-22 0 -38 16t-16 38v54h23q-24 5 -45 17q-55 23 -91 78q-31 45 -35 100q-1 8 -1 16q0 46 21 89q29 62 83 94q53 31 112 32h1
q31 0 61 -9q31 -9 58 -28q1 -1 1 -2t-1 -2q-10 -10 -20 -19l-20 -20q-2 -1 -3 0q-58 31 -123 10q-66 -21 -95 -91q-12 -30 -10 -64q2 -33 18 -62q37 -65 103 -78q67 -13 119 23q3 2 6 2t6 -2z" />
    <glyph glyph-name="egrave" unicode="&#xe8;" horiz-adv-x="430" 
d="M395 358q2 -3 2 -7v-1q0 -3 -2 -5l-252 -252q40 -31 91 -32q50 -1 91 28q3 2 6 2t6 -3l33 -28q3 -2 3 -7t-4 -8q-59 -45 -133 -45h-6q-79 2 -138 55q-65 57 -72 145v18q0 76 49 136q54 66 137 77q16 2 31 2q65 0 121 -38q13 -11 20 -18q7 -6 17 -19zM95 151q3 -4 8 -5h2
q3 0 6 3l192 192q3 3 3 7v2q0 5 -5 7q-31 14 -63 14q-16 0 -33 -3q-50 -10 -85 -49q-31 -36 -37 -82q-1 -11 -1 -21q-1 -34 13 -65zM230 563q12 -12 12 -29v-40h-43q-16 0 -28 12t-12 28v40h44q15 -1 27 -11z" />
    <glyph glyph-name="eacute" unicode="&#xe9;" horiz-adv-x="430" 
d="M395 358q2 -3 2 -7v-1q0 -3 -2 -5l-252 -252q40 -31 91 -32q50 -1 91 28q3 2 6 2t6 -3l33 -28q3 -2 3 -7t-4 -8q-59 -45 -133 -45h-6q-79 2 -138 55q-65 57 -72 145v18q0 76 49 136q54 66 137 77q16 2 31 2q65 0 121 -38q13 -11 20 -18q7 -6 17 -19zM95 151q3 -4 8 -5h2
q3 0 6 3l192 192q3 3 3 7v2q0 5 -5 7q-31 14 -63 14q-16 0 -33 -3q-50 -10 -85 -49q-31 -36 -37 -82q-1 -11 -1 -21q-1 -34 13 -65zM239 574h45v-40q0 -17 -11 -29q-12 -11 -29 -11h-42v40q0 16 12 28q10 11 25 12z" />
    <glyph glyph-name="ecircumflex" unicode="&#xea;" horiz-adv-x="430" 
d="M395 358q2 -3 2 -7v-1q0 -3 -2 -5l-252 -252q40 -31 91 -32q50 -1 91 28q3 2 6 2t6 -3l33 -28q3 -2 3 -7t-4 -8q-59 -45 -133 -45h-6q-79 2 -138 55q-65 57 -72 145v18q0 76 49 136q54 66 137 77q16 2 31 2q65 0 121 -38q13 -11 20 -18q7 -6 17 -19zM95 151q3 -4 8 -5h2
q3 0 6 3l192 192q3 3 3 7v2q0 5 -5 7q-31 14 -63 14q-16 0 -33 -3q-50 -10 -85 -49q-31 -36 -37 -82q-1 -11 -1 -21q-1 -34 13 -65zM295 478l-3 -3q-3 -3 -8 -3q-4 0 -7 3l-59 58q-3 4 -8 4q-4 0 -8 -4l-57 -56q-4 -4 -10 -4q-7 1 -11 5l-3 3q-3 3 -3 8q0 4 3 7l81 81
q4 3 9 3q4 0 8 -3l78 -79q3 -4 3 -9v-1q0 -6 -5 -10z" />
    <glyph glyph-name="edieresis" unicode="&#xeb;" horiz-adv-x="430" 
d="M395 358q2 -3 2 -7v-1q0 -3 -2 -5l-252 -252q40 -31 91 -32q50 -1 91 28q3 2 6 2t6 -3l33 -28q3 -2 3 -7t-4 -8q-59 -45 -133 -45h-6q-79 2 -138 55q-65 57 -72 145v18q0 76 49 136q54 66 137 77q16 2 31 2q65 0 121 -38q13 -11 20 -18q7 -6 17 -19zM95 151q3 -4 8 -5h2
q3 0 6 3l192 192q3 3 3 7v2q0 5 -5 7q-31 14 -63 14q-16 0 -33 -3q-50 -10 -85 -49q-31 -36 -37 -82q-1 -11 -1 -21q-1 -34 13 -65zM279 494h-46v42q0 18 12 30q11 11 28 12h47v-42q0 -18 -12 -30q-13 -12 -29 -12zM142 578q17 0 29 -12q13 -12 13 -30v-42h-45q-18 0 -30 12
t-12 30v42h45z" />
    <glyph glyph-name="igrave" unicode="&#xec;" horiz-adv-x="143" 
d="M52 0q-4 0 -6 2q-3 3 -3 7v411q0 4 3 7t7 3h41q4 0 7 -3t3 -7v-411q0 -4 -2 -7q-3 -2 -7 -2h-43zM91 563q12 -12 12 -29v-40h-43q-17 0 -28 12q-12 12 -12 28v40h43q16 0 28 -11z" />
    <glyph glyph-name="iacute" unicode="&#xed;" horiz-adv-x="123" 
d="M29 1q-4 0 -6 2t-2 6v412q0 4 2 7q3 3 7 3h41q5 0 7 -3q3 -3 3 -7v-412q0 -4 -2 -6q-3 -2 -6 -2h-44zM57 574h44v-40q0 -16 -12 -28q-11 -12 -28 -12h-42v40q0 17 11 29q11 10 27 11z" />
    <glyph glyph-name="icircumflex" unicode="&#xee;" horiz-adv-x="206" 
d="M86 1q-4 0 -6 2q-3 2 -3 6v412q0 4 3 7t7 3h41q4 0 7 -3t3 -7v-412q0 -4 -2 -6q-3 -2 -7 -2h-43zM194 478l-3 -3q-3 -3 -8 -3q-4 0 -7 3l-59 58q-3 4 -8 4q-4 0 -8 -4l-57 -56q-4 -4 -10 -4q-7 1 -11 5l-3 3q-3 3 -3 8q0 4 3 7l81 81q4 3 9 3q4 0 8 -3l78 -79q3 -4 3 -9
v-1q0 -6 -5 -10z" />
    <glyph glyph-name="idieresis" unicode="&#xef;" horiz-adv-x="225" 
d="M91 1q-4 0 -6 2q-3 2 -3 6v412q0 4 3 7t7 3h41q4 0 7 -3t3 -7v-412q0 -4 -3 -6q-2 -2 -6 -2h-43zM175 578h45v-42q0 -18 -12 -30t-30 -12h-45v42q0 18 12 30q13 12 30 12zM42 578q17 0 30 -12q12 -12 12 -30v-42h-45q-18 0 -30 12t-12 30v42h45z" />
    <glyph glyph-name="ntilde" unicode="&#xf1;" horiz-adv-x="430" 
d="M403 0h-54v65l-1 -1v149q0 64 -40 109q-40 44 -97 44t-97 -44q-41 -45 -41 -109v-153h1v-60h-55v214q0 88 56 151q57 63 136 63q80 0 136 -63q56 -62 56 -151v-214zM320 509h-250v33q0 13 8 23q8 9 21 10h253v-33q0 -13 -10 -23q-9 -10 -22 -10z" />
    <glyph glyph-name="ograve" unicode="&#xf2;" horiz-adv-x="472" 
d="M239 0q-90 0 -154 64t-64 154q0 91 64 155q64 63 154 63q89 0 153 -64q65 -64 65 -154q0 -89 -64 -154q-64 -64 -154 -64zM239 376q-66 0 -112 -47q-46 -46 -46 -111q0 -64 47 -111q46 -46 111 -46q64 0 110 46q47 47 47 111q0 65 -46 111q-46 47 -111 47zM255 563
q12 -12 12 -29v-40h-42q-17 0 -29 12q-11 11 -11 28v40h43q15 -1 27 -11z" />
    <glyph glyph-name="oacute" unicode="&#xf3;" horiz-adv-x="472" 
d="M237 0q-90 0 -154 64t-64 154t64 154t154 64t154 -64t64 -154t-64 -154t-154 -64zM237 375q-65 0 -111 -46t-46 -111t46 -111t111 -46t111 46t46 111t-46 111t-111 46zM245 572h42v-40q0 -16 -11 -28q-12 -12 -29 -12h-42v40q0 17 12 29q11 11 28 11z" />
    <glyph glyph-name="ocircumflex" unicode="&#xf4;" horiz-adv-x="472" 
d="M234 0q-90 0 -154 64t-64 154t64 154t154 64t154 -64t64 -154t-64 -154t-154 -64zM234 375q-65 0 -111 -46t-46 -111t46 -111t111 -46t111 46t46 111t-46 111t-111 46zM320 478l-3 -3q-3 -3 -8 -3q-4 0 -7 3l-59 58q-3 4 -8 4q-4 0 -8 -4l-57 -56q-4 -4 -10 -4
q-7 1 -11 5l-3 3q-3 3 -3 8q0 4 3 7l81 81q4 3 9 3q4 0 8 -3l78 -79q3 -4 3 -9v-1q0 -6 -5 -10z" />
    <glyph glyph-name="otilde" unicode="&#xf5;" horiz-adv-x="472" 
d="M238 0q-90 0 -154 64t-64 154t64 154t154 64t154 -64t64 -154t-64 -154t-154 -64zM238 375q-65 0 -111 -46t-46 -111t46 -111t111 -46t111 46t46 111t-46 111t-111 46zM129 509h-32v33q0 13 8 22t20 11h254v-32q0 -14 -10 -23q-9 -10 -23 -10h-217v-1z" />
    <glyph glyph-name="odieresis" unicode="&#xf6;" horiz-adv-x="471" 
d="M235 0q-90 0 -154 64t-64 154t64 154t154 64t154 -64t64 -154t-63 -154q-64 -64 -155 -64zM235 375q-65 0 -111 -46t-46 -111t46 -111q47 -46 111 -46q65 0 111 46q47 46 47 111t-46 111t-112 46zM171 574q17 0 29 -12q13 -12 13 -30v-42h-45q-18 0 -30 12q-13 12 -13 30
v42h46zM308 490h-46v42q0 18 12 30t30 12h45v-42q0 -18 -13 -30q-11 -11 -28 -12z" />
    <glyph glyph-name="divide" unicode="&#xf7;" horiz-adv-x="329" 
d="M269 369h-248v33q0 13 8 22t20 10h253v-32q0 -14 -10 -23q-9 -10 -23 -10zM167 473h-50v51q0 21 14 36q15 14 36 14t36 -14q15 -15 15 -36t-15 -36t-36 -15zM218 279q0 -21 -15 -35q-15 -15 -36 -15t-36 15q-14 14 -14 35v51h50q21 0 36 -15q15 -14 15 -36z" />
    <glyph glyph-name="oslash" unicode="&#xf8;" horiz-adv-x="472" 
d="M411 451q7 -8 22 -23q9 -9 9 -22q0 -14 -9 -23l-27 -27q53 -59 53 -140q0 -89 -63 -152t-152 -63q-81 0 -140 51l-32 -32q-5 -5 -12 -13l-8 -7l-22 22q-9 9 -9 21l-1 1q0 12 7 20l35 35q-33 52 -33 117q0 89 63 152t152 63q64 0 114 -33zM146 95q42 -34 98 -34
q64 0 109 46q46 46 46 109q0 56 -35 98q-79 -79 -218 -219zM244 372q-65 0 -110 -46t-45 -110q0 -40 17 -73q85 86 209 211q-32 18 -71 18z" />
    <glyph glyph-name="ugrave" unicode="&#xf9;" 
d="M24 214v206q0 4 3 7t7 3h36q3 0 6 -3t4 -7v-194q-1 -3 -1 -6v-5q0 -64 41 -109q40 -45 98 -45q57 0 97 45q41 45 40 110v208q1 3 4 4q2 2 5 2h36q4 0 7 -3t3 -7v-206q0 -89 -56 -152q-57 -63 -137 -63t-136 63q-57 63 -57 152zM236 563q12 -12 12 -29v-40h-43
q-16 0 -28 12q-12 11 -12 28v40h44q15 -1 27 -11z" />
    <glyph glyph-name="uacute" unicode="&#xfa;" 
d="M21 215v206q0 4 2 7q3 3 8 3h35q4 0 7 -2q3 -3 3 -7v-206q0 -64 40 -109q41 -46 98 -46q58 0 98 46q40 45 40 109v209q1 2 3 4q3 2 6 2h36q4 0 7 -3t3 -7v-206q0 -89 -57 -152q-56 -63 -136 -63t-137 63q-56 63 -56 152zM227 492h-43v40q0 17 12 29q12 11 28 11h43v-40
q0 -16 -12 -28t-28 -12z" />
    <glyph glyph-name="ucircumflex" unicode="&#xfb;" 
d="M21 215v206q0 4 2 7q3 3 8 3h35q4 0 7 -2q3 -3 3 -7v-206q0 -64 40 -109q41 -46 98 -46q58 0 98 46q40 45 40 109v209q1 2 3 4q3 2 6 2h36q4 0 7 -3t3 -7v-206q0 -89 -57 -152q-56 -63 -136 -63t-137 63q-56 63 -56 152zM300 478l-3 -3q-3 -3 -8 -3q-4 0 -7 3l-59 58
q-3 4 -8 4q-4 0 -8 -4l-57 -56q-4 -4 -10 -4q-7 1 -11 5l-3 3q-3 3 -3 8q0 4 3 7l81 81q4 3 9 3q4 0 8 -3l78 -79q3 -4 3 -9v-1q0 -6 -5 -10z" />
    <glyph glyph-name="udieresis" unicode="&#xfc;" 
d="M21 215v206q0 4 3 7t7 3h36q3 0 6 -2q3 -3 4 -7v-196q-1 -2 -1 -5v-5q0 -64 41 -109q40 -46 98 -46q57 0 97 46q40 45 40 109v209q1 2 4 4q2 2 5 2h36q4 0 7 -3t3 -7v-206q0 -89 -57 -152q-56 -63 -136 -63t-137 63q-56 63 -56 152zM181 562q12 -12 12 -30v-42h-47
q-17 0 -28 12q-12 12 -12 30v42h46q16 -1 29 -12zM282 574h47v-42q0 -18 -12 -30q-13 -12 -29 -12h-46v42q0 18 12 30q12 11 28 12z" />
    <glyph glyph-name="yacute" unicode="&#xfd;" 
d="M407 420v-69q0 -80 -47 -140q-47 -61 -116 -72v-135q0 1 -3 -2q-3 -2 -7 -2h-40q-4 0 -7 3t-3 7v129q-70 11 -116 71q-47 60 -47 141v69q0 4 2 7q3 3 8 3q11 0 35 1q4 0 7 -3t3 -7v-69q0 -64 40 -109q41 -45 98 -45t98 45q40 45 40 109v72q1 3 4 4q2 2 5 2h36q4 0 7 -3
t3 -7zM225 574h42v-40q0 -16 -12 -28q-11 -12 -28 -12h-42v40q0 17 11 29q12 11 29 11z" />
    <glyph glyph-name="ydieresis" unicode="&#xff;" 
d="M407 420v-69q0 -80 -47 -141q-47 -60 -116 -72v-134l-3 -2q-3 -2 -7 -2h-40q-4 0 -7 3t-3 7v128q-70 12 -116 72q-47 60 -47 141v69q0 4 2 7q3 3 8 3h35q4 0 7 -2q3 -3 3 -8v-69q0 -63 40 -109q41 -45 98 -45t98 46q40 45 40 109v72q1 2 4 4q2 2 5 2h36q4 0 7 -3t3 -7z
M170 562q13 -12 13 -30v-42h-47q-17 0 -28 12q-13 12 -13 30v42h47q16 -1 28 -12zM274 574h45v-42q0 -18 -13 -30q-12 -12 -29 -12h-45v42q0 18 12 30t30 12z" />
    <glyph glyph-name="quoteright" unicode="&#x2019;" horiz-adv-x="103" 
d="M82 738v-80q0 -14 -10 -24q-10 -9 -24 -9h-33v84q2 12 11 21q10 8 22 8h34z" />
    <glyph glyph-name="quotedblleft" unicode="&#x201c;" horiz-adv-x="574" 
d="M126 738h61q24 0 40 -16q17 -17 17 -40v-57h-61q-23 0 -40 16q-17 17 -17 41v56zM0 738h61q23 0 40 -16q16 -17 16 -40v-57h-60q-24 0 -40 16q-17 17 -17 41v56z" />
    <glyph glyph-name="quotedblright" unicode="&#x201d;" horiz-adv-x="574" 
d="M385 738h61v-56q0 -24 -17 -41q-17 -16 -40 -16h-61v57q0 23 17 40q16 16 40 16zM572 738v-56q0 -24 -17 -41q-17 -16 -40 -16h-61v57q0 23 17 40q17 16 40 16h61z" />
    <glyph glyph-name="Euro" unicode="&#x20ac;" horiz-adv-x="389" 
d="M346 88q3 -3 11 -9q7 -6 11 -10q4 -3 10 -7q3 -3 3 -8t-4 -8q-25 -19 -54 -31q-30 -11 -60 -14q-10 -1 -20 -1q-47 0 -92 20q-56 25 -93 80q-31 46 -35 103q-1 8 -1 16q0 47 20 91q31 63 85 95q55 33 115 33h1q31 0 63 -9q31 -10 60 -29q1 -1 1 -2t-1 -2l-22 -20
q-10 -9 -20 -19q-1 -1 -2 -1h-2q-58 32 -126 11q-54 -17 -84 -67h151v-30q0 -12 -9 -21q-8 -9 -20 -9h-144q-2 -15 -1 -31v-5h144q13 0 21 -9q9 -9 9 -21v-30h-155q37 -65 105 -78q68 -14 122 23q3 2 6 2q4 -1 7 -3z" />
    <glyph glyph-name="_170" horiz-adv-x="543" 
d="M0 686h410v-635h-410v635zM51 102h307v533h-307v-533z" />
    <glyph glyph-name="uni00A0" unicode="&#xa0;" horiz-adv-x="410" 
 />
    <glyph glyph-name="cent" unicode="&#xa2;" horiz-adv-x="390" 
d="M337 89q4 -3 11 -9q8 -6 11 -9q4 -4 9 -8q4 -3 4 -8q0 -4 -4 -7q-25 -20 -53 -31q-29 -11 -59 -14q-10 -1 -20 -1q-45 0 -89 19q-51 -126 -63 -155q-3 -7 -8 -13q-8 -9 -21 -9h-30v29q0 9 4 16q11 28 67 164q-23 20 -40 47q-31 45 -35 100q-1 8 -1 16q0 46 21 89
q29 62 83 94q53 31 112 32h13q43 102 58 140q3 6 8 10q9 7 21 7h2q6 0 18 -1l12 -1q-1 -6 -1 -15q-1 -9 -2 -15q-1 -11 -7 -18q-11 -27 -49 -120q25 -9 47 -24q1 -1 1 -2t-1 -2q-10 -10 -20 -19l-20 -20q-2 -1 -3 0q-14 7 -27 11q-33 -82 -59 -146q-32 -78 -57 -139
q17 -8 36 -11q67 -13 119 23q3 2 6 2t6 -2zM168 229q24 60 56 139q-17 -2 -34 -7q-66 -21 -95 -91q-12 -30 -10 -64q2 -33 18 -62q9 -16 19 -28q20 51 46 113z" />
    <glyph glyph-name="brokenbar" unicode="&#xa6;" horiz-adv-x="102" 
d="M29 478q-4 0 -6 2t-2 6v242q0 4 2 7q3 3 7 3h41q5 0 7 -3q3 -3 3 -7v-242q0 -4 -2 -6q-3 -2 -6 -2h-44zM29 0q-4 0 -6 2t-2 6v242q0 4 2 7q3 3 7 3h41q5 0 7 -3q3 -3 3 -7v-242q0 -4 -2 -6q-3 -2 -6 -2h-44z" />
    <glyph glyph-name="section" unicode="&#xa7;" horiz-adv-x="287" 
d="M139 0q-30 0 -60 9t-59 26q-5 3 -6 8q-1 2 -1 3q0 3 2 7q6 9 18 28q3 4 8 5q4 1 9 -1q48 -28 83 -27q36 1 61 11q25 9 26 36q0 27 -6 45q-5 15 -39 32q-34 18 -59 30q-18 8 -34 16q-17 8 -28 16q-19 13 -29 33t-10 45q0 16 3 27q3 12 4 15q6 17 31 41q14 13 36 21l-4 2
q-17 8 -28 16q-19 13 -29 33t-10 45q0 16 3 27q3 12 4 15q6 17 31 41t75 28q9 1 18 1q32 0 57 -10q31 -13 46 -23q5 -3 5 -9q1 -5 -2 -9q-4 -4 -11 -12q-4 -5 -12 -14q-2 -3 -7 -4q-4 0 -8 2q-11 6 -32 15q-21 8 -49 6q-32 -3 -43 -16q-12 -12 -13 -15v-2q0 -1 -4 -21
q-3 -20 14 -32q9 -6 23 -13q15 -7 31 -14q42 -20 79 -42q16 -9 27 -21l1 -1q15 -15 21 -32q10 -29 10 -55q0 -21 -7 -41q-14 -38 -48 -55q32 -20 42 -49t10 -55q0 -21 -7 -41q-15 -43 -57 -58q-20 -6 -39 -10q-19 -3 -37 -3zM182 370q-21 8 -49 6q-32 -3 -43 -16
q-12 -12 -13 -15v-2q0 -1 -4 -21q-3 -20 14 -32q9 -6 23 -13q15 -7 31 -14q4 -3 9 -5q27 3 47 11q25 9 26 36q0 27 -6 45l-2 4l-1 1q-11 6 -32 15z" />
    <glyph glyph-name="dieresis" unicode="&#xa8;" horiz-adv-x="595" 
d="M266 853q12 -12 12 -30v-42h-45q-18 0 -30 12t-12 30v42h45q17 0 30 -12zM372 781h-45v42q0 18 12 30q12 11 28 12h47v-42q0 -18 -12 -30q-13 -12 -30 -12z" />
    <glyph glyph-name="ordfeminine" unicode="&#xaa;" horiz-adv-x="168" 
d="M156 608q0 -1 -1 -2t-2 -1h-64q-27 0 -47 19t-21 46v2q0 18 8 33q9 16 25 25q8 5 17 8q8 2 17 2h3q27 -1 46 -21q19 -21 19 -47v-64zM120 672q0 13 -9 22t-21 10h-1q-13 0 -23 -9q-9 -10 -9 -23v-1q1 -12 10 -21t22 -9h29l2 2v29z" />
    <glyph glyph-name="guillemotleft" unicode="&#xab;" horiz-adv-x="574" 
d="M126 738h61q24 0 40 -16q17 -17 17 -40v-57h-61q-23 0 -40 16q-17 17 -17 41v56zM0 738h61q23 0 40 -16q16 -17 16 -40v-57h-60q-24 0 -40 16q-17 17 -17 41v56z" />
    <glyph glyph-name="logicalnot" unicode="&#xac;" horiz-adv-x="491" 
d="M97 256h-51q-4 0 -7 3t-3 7v42q0 4 3 7t7 3h205q83 0 143 -55q61 -56 69 -136v-2q0 -3 -2 -6q-3 -3 -7 -3h-42q-3 0 -6 2q-3 3 -3 7q-8 56 -51 94t-101 38h-154v-1z" />
    <glyph glyph-name="uni00AD" unicode="&#xad;" horiz-adv-x="370" 
d="M306 349h-285v37q0 14 9 25q10 11 23 13h290v-37q0 -16 -11 -27t-26 -11z" />
    <glyph glyph-name="macron" unicode="&#xaf;" horiz-adv-x="434" 
d="M376 779h-355v37q0 14 9 25q10 11 23 13h360v-37q0 -16 -11 -27t-26 -11z" />
    <glyph glyph-name="plusminus" unicode="&#xb1;" horiz-adv-x="329" 
d="M135 441h-114v33q0 13 8 22t20 10h86v108h32q14 0 23 -10q10 -9 10 -23v-75h102v-32q0 -14 -10 -23q-9 -10 -23 -10h-69v-108h-33q-13 0 -22 8t-10 20v80zM269 229h-248v33q0 13 8 22t20 10h253v-32q0 -14 -10 -23q-9 -10 -23 -10z" />
    <glyph glyph-name="acute" unicode="&#xb4;" horiz-adv-x="144" 
d="M111 692q-1 -1 -2 -4q-6 -14 -19 -42q-6 -13 -19 -17q-6 -2 -12 -2q-7 0 -14 3t-16 7q-8 5 -15 7l6 13l9 18l21 45q7 11 20 15q5 1 10 1q7 0 13 -3q7 -3 16 -7t15 -7l-5 -10q-5 -10 -8 -17z" />
    <glyph glyph-name="paragraph" unicode="&#xb6;" horiz-adv-x="890" 
d="M866 728v-39q0 -6 -4 -9q-4 -4 -9 -4h-144q-5 0 -9 -4q-4 -3 -4 -9v-654q0 -6 -4 -9q-3 -4 -9 -4h-39q-5 0 -9 4q-3 3 -3 9v654q0 6 -4 9q-4 4 -9 4h-157v-680h-35q-12 2 -20 10q-8 9 -8 22v262q0 5 -3 7q-3 3 -7 3h-146q-91 0 -156 63q-66 64 -67 155v2q0 59 28 109
q29 50 77 80q26 16 56 24q29 8 60 8h611q6 0 9 -4q4 -4 5 -9z" />
    <glyph glyph-name="periodcentered" unicode="&#xb7;" horiz-adv-x="184" 
d="M94 406h-53v53q0 22 15 38q16 15 38 15t37 -15q16 -16 16 -38q0 -21 -16 -37t-37 -16z" />
    <glyph glyph-name="ordmasculine" unicode="&#xba;" horiz-adv-x="168" 
d="M88 605q-27 0 -47 20t-20 48t20 47q20 20 47 20q28 0 48 -20t20 -47q0 -28 -20 -48t-48 -20zM88 709q-15 0 -26 -11q-10 -10 -10 -25t11 -26q10 -11 25 -11q16 0 26 11q11 11 11 26t-11 25q-10 11 -26 11z" />
    <glyph glyph-name="guillemotright" unicode="&#xbb;" horiz-adv-x="574" 
d="M385 738h61v-56q0 -24 -17 -41q-17 -16 -40 -16h-61v57q0 23 17 40q16 16 40 16zM572 738v-56q0 -24 -17 -41q-17 -16 -40 -16h-61v57q0 23 17 40q17 16 40 16h61z" />
    <glyph glyph-name="Eth" unicode="&#xd0;" horiz-adv-x="720" 
d="M155 333h-105v25q0 19 8 27l4 4q7 6 16 7h77v328q0 5 3 9q4 3 9 3h168q53 -1 101 -16q49 -15 90 -42q78 -50 125 -132q47 -83 47 -182t-47 -181q-47 -83 -124 -132q-42 -27 -91 -42q-48 -15 -101 -17h-168q-5 0 -9 4q-3 4 -3 9v328zM331 672h-100q-6 0 -9 -3q-4 -4 -4 -9
v-264h105v-15q-1 -9 0 -16q0 -13 -9 -22q-2 -2 -4 -3q-8 -6 -19 -7h-73v-265q0 -5 4 -9q3 -3 9 -3h100q44 0 85 13q40 13 75 35q65 41 104 109q39 69 39 151q0 44 -12 85t-33 76q-40 65 -108 106q-68 40 -150 41z" />
    <glyph glyph-name="Thorn" unicode="&#xde;" horiz-adv-x="471" 
d="M52 -4q-32 0 -32 12v720q0 12 32 12q31 0 31 -12v-208l1 1q64 66 156 67q90 0 156 -61.5t66 -160.5q-1 -92 -66.5 -155.5t-156.5 -63.5h-146q-10 0 -10 -10v-129q0 -12 -31 -12zM241 210q66 0 112 46t46 112t-46.5 112t-112.5 46q-66 -1 -111.5 -48.5t-45.5 -112.5v-145
q0 -10 11 -10h147z" />
    <glyph glyph-name="germandbls" unicode="&#xdf;" horiz-adv-x="577" 
d="M302 408q-3 -5 0 -10t9 -5q55 0 110 -34q54 -36 82 -81q42 -67 21 -148q-21 -80 -92 -128q-4 -3 -8 -2t-7 4l-18 30q-2 3 -1 8q1 4 3 5q51 36 65 93q15 58 -14 105q-21 34 -58 56q-38 24 -81 28q-22 3 -44 -1t-42 -16l-29 48q45 36 65 78q20 40 -8 86q-27 44 -79 59
q-38 10 -75 2v-577q0 -3 -2 -6q-2 -2 -6 -2h-44q-3 0 -6 2q-2 3 -2 6v605q-1 3 1 7q1 4 3 5l1 1q73 32 148 12q74 -19 113 -82q24 -40 19 -73q-5 -35 -24 -75z" />
    <glyph glyph-name="eth" unicode="&#xf0;" horiz-adv-x="465" 
d="M379 448q-6 39 -27 70l-82 -82l-18 18q-13 13 -13 24q0 3 1 5q0 10 6 17l60 60q-38 24 -84 20q-3 0 -5 2q-4 3 -4 7q-4 28 -4 41q-1 5 1 8q3 3 7 4q74 6 133 -38l69 69l11 -11q5 -7 11 -11q9 -9 9 -21q0 -3 -1 -5q-2 -10 -9 -19l-45 -45q33 -43 42 -102v-1q5 -43 0 -82
v-367q0 -4 -3 -7t-7 -3h-199q-86 0 -148 62q-60 61 -60 146v4q1 85 63 146q62 60 147 59q37 0 71 -12q33 -13 60 -35q5 -4 10 -2q5 3 9 23t-1 58zM79 205q1 -62 45 -104q45 -43 106 -43h137q4 0 7 3q3 2 3 6v146l-1 6v3q-5 57 -47 96q-43 39 -101 39q-62 0 -106 -44
q-43 -44 -43 -105v-3z" />
    <glyph glyph-name="thorn" unicode="&#xfe;" horiz-adv-x="855" 
d="M56 -308q-31 0 -31 11v506q0 16 2 31h-2v487q0 11 31 11t31 -11v-364l1 1q63 65 157 66q91 0 154.5 -64t63.5 -156q-1 -92 -66 -155t-155 -63h-145q-10 0 -10 -10v-279q0 -11 -31 -11zM244 54q65 0 111 46t46 111q0 66 -46.5 111.5t-111.5 45.5q-66 -1 -111 -48t-45 -111
v-144q0 -11 11 -11h146z" />
    <glyph glyph-name="figuredash" unicode="&#x2012;" horiz-adv-x="504" 
d="M446 349h-425v37q0 14 9 25q10 11 23 13h430v-37q0 -16 -11 -27t-26 -11z" />
    <glyph glyph-name="endash" unicode="&#x2013;" horiz-adv-x="434" 
d="M376 349h-355v37q0 14 9 25q10 11 23 13h360v-37q0 -16 -11 -27t-26 -11z" />
    <glyph glyph-name="emdash" unicode="&#x2014;" horiz-adv-x="504" 
d="M446 349h-425v37q0 14 9 25q10 11 23 13h430v-37q0 -16 -11 -27t-26 -11z" />
    <glyph glyph-name="quoteleft" unicode="&#x2018;" horiz-adv-x="135" 
d="M118 625h-61q-24 0 -40 16q-17 17 -17 40v57h61q23 0 40 -16q17 -17 17 -41v-56z" />
    <glyph glyph-name="quotesinglbase" unicode="&#x201a;" horiz-adv-x="134" 
d="M0 113h61q23 0 40 -16q16 -17 16 -40v-57h-60q-24 0 -40 16q-17 17 -17 41v56z" />
    <glyph glyph-name="quotereversed" unicode="&#x201b;" horiz-adv-x="135" 
d="M57 738h61v-56q0 -24 -17 -41q-17 -16 -40 -16h-61v57q0 23 17 40q16 16 40 16z" />
    <glyph glyph-name="quotedblbase" unicode="&#x201e;" horiz-adv-x="261" 
d="M126 113h61q24 0 40 -16q17 -17 17 -40v-57h-61q-23 0 -40 16q-17 17 -17 41v56zM0 113h61q23 0 40 -16q16 -17 16 -40v-57h-60q-24 0 -40 16q-17 17 -17 41v56z" />
    <glyph glyph-name="uni201F" unicode="&#x201f;" horiz-adv-x="261" 
d="M57 738h61v-56q0 -24 -17 -41q-17 -16 -40 -16h-61v57q0 23 17 40q16 16 40 16zM183 738h61v-56q0 -24 -17 -41q-16 -16 -40 -16h-60v57q0 23 16 40q17 16 40 16z" />
    <glyph glyph-name="bullet" unicode="&#x2022;" horiz-adv-x="184" 
d="M94 406h-53v53q0 22 15 38q16 15 38 15t37 -15q16 -16 16 -38q0 -21 -16 -37t-37 -16z" />
    <glyph glyph-name="ellipsis" unicode="&#x2026;" horiz-adv-x="412" 
d="M106 43q0 -18 -12 -31q-13 -12 -31 -12t-30 13q-12 12 -12 30v43h42q18 0 30 -13q13 -12 13 -30zM374 43q0 -18 -12 -31q-13 -12 -31 -12t-30 13q-12 12 -12 30v43h42q18 0 30 -13q13 -12 13 -30zM240 43q0 -18 -12 -31q-13 -12 -31 -12t-30 13q-12 12 -12 30v43h42
q18 0 30 -13q13 -12 13 -30z" />
    <glyph glyph-name="perthousand" unicode="&#x2030;" horiz-adv-x="561" 
d="M49 1q-5 0 -17 -1h-12v14q-1 9 -1 15q0 7 3 13q91 227 274 680q3 5 8 10q8 8 20 7h2q6 0 18 -1l11 -1q0 -6 -1 -14q-1 -9 -1 -15q-1 -11 -7 -19q-91 -226 -269 -671h-1q-2 -5 -6 -9q-9 -9 -21 -8zM424 151q0 21 15 36q14 14 35 14t36 -14q15 -15 15 -36v-50h-51
q-21 0 -35 14q-15 15 -15 36zM274 151q0 21 15 36q14 14 35 14t36 -14q15 -15 15 -36v-50h-51q-21 0 -35 14q-15 15 -15 36zM127 586q0 -21 -15 -36q-14 -14 -35 -14t-36 14q-15 15 -15 36v50h51q20 0 35 -15t15 -35z" />
    <glyph glyph-name="guilsinglleft" unicode="&#x2039;" horiz-adv-x="103" 
d="M19 658v80h33q13 0 22 -8q10 -9 12 -21v-84h-34q-14 0 -24 9q-9 10 -9 24z" />
    <glyph glyph-name="guilsinglright" unicode="&#x203a;" horiz-adv-x="103" 
d="M19 658v80h33q13 0 22 -8q10 -9 12 -21v-84h-34q-14 0 -24 9q-9 10 -9 24z" />
    <glyph glyph-name="exclamdbl" unicode="&#x203c;" horiz-adv-x="188" 
d="M49 158h-31v550q0 12 9 21t22 9h30v-549q0 -13 -9 -22t-21 -9zM134 158h-31v550q0 12 9 21t22 9h30v-553q-2 -11 -9 -18q-9 -9 -21 -9zM142 4h-38v37q0 16 11 27t27 11t27 -11t11 -27q0 -15 -11 -26t-27 -11zM57 4h-38v37q0 16 11 27t27 11t27 -11t11 -27q0 -15 -11 -26
t-27 -11z" />
    <glyph glyph-name="fraction" unicode="&#x2044;" horiz-adv-x="390" 
d="M342 746q6 0 18 -1l12 -1q-1 -6 -1 -15q-1 -9 -2 -15q-1 -11 -7 -18q-92 -225 -274 -672q-3 -8 -8 -13q-8 -9 -21 -9h-30v29q0 10 5 18q93 228 277 680q3 6 8 10q9 7 21 7h2z" />
    <glyph glyph-name="uni20BD" unicode="&#x20bd;" horiz-adv-x="347" 
d="M339 307q-1 -54 -39 -92q-39 -37 -92 -37h-62q-3 0 -4 -2q-2 -1 -2 -4v-30h46q13 0 21 -9q9 -9 9 -21v-30h-76v-63q0 -8 -5 -13t-12 -6h-44v82h-57v30q0 12 9 21q7 8 20 9h28v36h-33q-9 2 -15 9q-9 9 -9 21v30h57v69q0 53 37 92q38 38 92 39h1q54 1 92 -38q38 -38 38 -92
v-1zM161 357q-21 -21 -21 -50v-64q0 -3 2 -3q1 -2 3 -2h65q30 0 50 20q20 21 20 50t-21 50q-20 20 -49 20q-30 0 -49 -21z" />
    <glyph glyph-name="uniFFFC" unicode="&#xfffc;" horiz-adv-x="1025" 
d="M808 272h25q33 0 48 -103q1 -15 1 -25v-19q0 -71 -32 -113q-9 -10 -15 -10h-27q-2 0 -2 5v260q1 5 2 5zM146 272h39q18 0 23 -68q0 -27 -10 -55q15 -24 15 -65v-3q0 -60 -25 -76h-42q-2 0 -2 4v258q1 5 2 5zM757 272h4q24 0 34 -79q1 -18 1 -33v-151q0 -4 -1 -4h-6
q-1 0 -1 4v51h-59v-51q0 -4 -2 -4h-5q-2 0 -2 4v137q0 90 27 121q6 5 10 5zM454 717h3q25 0 34 -79q2 -18 2 -39v-144q0 -5 -2 -5h-5q-2 0 -2 5v51h-58v-51q0 -5 -2 -5h-6q-1 0 -1 5v137q0 95 29 123q5 2 8 2zM815 244v-214q0 -4 2 -4h13q31 0 42 88q1 16 1 25q0 76 -34 107
q-7 2 -12 2h-10q-2 0 -2 -4zM534 272q17 0 26 -65v-17q0 -43 -17 -72q20 -108 20 -113l-2 -3h-7l-22 109h-23q-2 0 -2 -4v-98q0 -3 -3 -9h-4q-2 0 -2 5v190q0 55 24 77h12zM553 720h4q2 -1 2 -5v-260q0 -5 -2 -5h-30q-24 0 -29 79q0 56 25 77h6q10 0 20 -19l1 5v118
q0 4 3 10zM662 606h6q17 0 26 -58v-23q-4 -77 -28 -77h-20l-4 -2v-100q0 -3 -3 -7h-4q-2 0 -2 5v176q0 62 22 84q4 2 7 2zM729 139v-58h59v77q-4 90 -29 90q-20 0 -28 -62q-2 -24 -2 -47zM426 527h58v77q-4 90 -28 90h-3q-20 0 -27 -86v-81zM780 606q20 0 29 -58q1 -9 1 -19
v-74q0 -5 -2 -5h-31q-27 18 -27 70v9q5 77 30 77zM595 606q27 0 30 -86v-65q0 -5 -2 -5h-29q-20 0 -28 61l-1 16q5 79 30 79zM914 606h5q18 0 27 -65v-14q0 -57 -26 -77h-5q-29 12 -29 75v7q0 50 21 72q4 2 7 2zM323 274h6q2 -1 2 -5v-104q0 -5 1 -5h50l1 12v97q0 5 2 5h5
q2 -1 2 -5v-260q0 -4 -2 -4h-5q-2 0 -2 4v126l-4 2h-47q-1 -1 -1 -5v-123q0 -3 -3 -7h-5q-2 0 -2 5v262q0 5 2 5zM69 722h5q14 0 30 -28v-5q0 -3 -5 -13h-2q-12 23 -26 23q-31 0 -41 -91q-1 -8 -1 -21v-2q0 -83 36 -109h10q12 0 26 28q1 0 6 -17q-14 -37 -33 -37h-4
q-34 0 -48 98q-2 10 -2 30v16q0 86 39 126q6 2 10 2zM601 162q12 0 21 -27v-5l-35 -93q6 -9 11 -9h3q3 0 13 9q4 -9 4 -11v-3q-5 -18 -18 -18h-2q-20 0 -29 62v26q7 67 26 67q0 2 6 2zM432 162q12 0 21 -30l-35 -95q7 -9 11 -9h3q2 0 12 9q1 0 5 -14q-7 -18 -15 -18h-5
q-25 0 -29 79q5 76 26 76q0 2 6 2zM153 135v-103q0 -4 2 -4h27q22 6 22 51v5q-4 51 -19 51h-32zM507 195v-56q0 -4 2 -4h18q15 0 21 30q3 12 3 23v9q-4 51 -20 51h-4q-15 0 -20 -53zM642 520v-44q0 -5 2 -5h22q17 0 20 58q-5 54 -20 54h-4q-17 0 -20 -63zM507 527
q0 -51 28 -56h13q2 0 2 5v56q-4 51 -20 51h-3q-16 0 -20 -56zM153 248v-88l5 -2h19q21 0 21 44q1 0 1 2q0 47 -25 47h-16zM759 532v-7q4 -51 20 -51h22v51q0 48 -20 58h-1q-21 -10 -21 -51zM574 527q4 -53 19 -53h22q1 0 1 4v40q-2 65 -20 65h-2q-16 0 -20 -56zM895 534v-12
q0 -38 19 -48q15 0 21 32q2 9 2 26q-4 51 -20 51h-3q-19 -11 -19 -49zM714 720h3q2 0 4 -10v-79h14q2 0 2 -4v-12q0 -3 -4 -9h-12v-79q0 -46 24 -56q2 -7 2 -14v-2q0 -5 -2 -5h-6q-18 0 -27 65v91h-13q-2 0 -2 5v4q0 13 4 16h11v84q0 5 2 5zM830 720h5q1 0 2 -7v-82h14
q2 0 2 -4v-12q0 -3 -3 -9h-13v-65q0 -67 23 -67l3 -10v-9q0 -5 -2 -5h-3q-20 0 -29 61q-1 19 -1 32v63h-12q-2 0 -2 5v11q0 4 4 9h10v84q1 5 2 5zM975 606h6q17 0 24 -67v-84q0 -5 -2 -5h-4q-2 0 -2 5v70q0 43 -14 58h-7q-12 0 -16 -49v-79q0 -5 -2 -5h-4q-2 0 -2 5v86
q6 65 23 65zM354 608q17 -6 17 -16q0 -3 -6 -14q-1 0 -7 5h-5q-20 -10 -20 -51v-5q0 -46 22 -53q3 0 13 9q5 -8 5 -12q-6 -21 -19 -21q-31 14 -31 79q0 56 25 77zM233 717h4q1 0 3 -9v-183q0 -45 23 -54l2 -7v-9q0 -5 -2 -5h-3q-19 0 -28 56q-1 9 -1 19v188q0 4 2 4z
M221 162h5q2 0 2 -4v-23q2 -58 19 -58q16 0 19 55v26q0 4 2 4h4q2 0 2 -4v-28q0 -58 -22 -74v-47q0 -4 -2 -4h-6q-2 0 -2 4v47q-22 17 -22 74v28q0 4 1 4zM115 608h4q2 -1 2 -4v-21q3 -61 20 -61q14 0 18 51v31q1 4 2 4h5q1 -1 1 -4v-38q-6 -65 -22 -65v-46q0 -5 -2 -5h-5
q-2 0 -2 5v42l-11 16q-12 28 -12 70v21q0 4 2 4zM639 162h35q2 0 2 -4q-30 -111 -35 -135h31q2 -1 2 -4v-10q0 -4 -2 -4h-43l-2 2l35 132v3h-23q-2 0 -2 4v12q0 4 2 4zM269 717h2q5 -1 5 -7v-171q2 -68 24 -68q2 -1 2 -18l-2 -3h-6q-20 0 -26 75v188q0 4 1 4zM203 606l1 -5
v-14l-10 -14q-7 0 -10 -51v-18q0 -17 1 -51l-2 -3h-6q-2 0 -2 5v67q0 62 22 82q3 2 6 2zM215 608h6q1 -1 1 -4v-149q0 -5 -1 -5h-6q-2 0 -2 5v149q1 4 2 4zM870 608h5q2 -1 2 -4v-149q0 -5 -2 -5h-5q-2 0 -2 5v149q1 4 2 4zM309 608h6q1 -1 1 -4v-149q0 -5 -1 -5h-6
q-1 0 -1 5v149q0 4 1 4zM578 86v-7q0 -6 2 -21h1q1 0 27 72v5q-6 4 -10 4q-15 0 -20 -53zM409 84q1 -26 3 -26l28 74q-5 7 -10 7q-21 -10 -21 -55zM220 662q3 -4 5 -12v-5q0 -16 -6 -16h-5q-1 0 -1 5v7q0 21 7 21zM875 662q2 0 6 -17q-2 -14 -5 -16h-6q-2 0 -2 5v16
q3 12 7 12zM313 662q5 0 6 -19q-1 -10 -4 -14h-7q-1 0 -1 5v9q1 19 6 19z" />
    <glyph glyph-name="uni0401" unicode="&#x401;" horiz-adv-x="472" 
d="M434 0h-400q-5 0 -9 4q-3 3 -3 8v709q0 5 3 9q4 4 9 4h46v-1h354q5 0 8 -4q4 -3 4 -8v-34q0 -5 -4 -9q-3 -3 -8 -3h-342q-5 0 -8 -4q-4 -3 -4 -9v-219q0 -5 4 -9q3 -4 8 -4h246q5 0 9 -3q3 -4 3 -9v-33q0 -6 -3 -9q-4 -4 -9 -4h-246q-5 0 -8 -4q-4 -3 -4 -8v-304h354
q5 0 8 -4q4 -3 4 -9v-31q0 -5 -4 -8q-3 -4 -8 -4zM123 865h46q17 -1 29 -12q12 -12 12 -30v-42h-45q-17 0 -30 12q-12 13 -12 30v42zM301 865h45v-42q0 -17 -12 -30q-12 -12 -30 -12h-44v42q0 18 12 30t29 12z" />
    <glyph glyph-name="uni0404" unicode="&#x404;" horiz-adv-x="677" 
d="M649 100q-50 -47 -115 -73q-66 -27 -139 -27q-54 0 -104 15q-50 14 -93 41q-80 50 -129 134q-48 84 -48 184q0 55 14 105q15 50 42 92q49 80 133 129t185 49q68 0 129 -23q62 -24 110 -64q-15 -16 -45 -46q-41 32 -90 51q-50 18 -105 18q-83 0 -153 -40
q-69 -41 -110 -107q-22 -35 -35 -77q-6 -20 -9 -41v-1q0 -6 3 -9q4 -4 9 -4h247q5 0 9 -4q4 -3 4 -8v-38q0 -5 -4 -9t-9 -4h-247q-5 0 -9 -3q-3 -4 -3 -9v-1q8 -58 38 -108q40 -69 106 -111q35 -22 77 -34q41 -12 86 -12q61 0 114 21q54 22 95 60z" />
    <glyph glyph-name="uni0406" unicode="&#x406;" horiz-adv-x="144" 
d="M49 0q-3 0 -6 2q-2 3 -2 6v721q0 4 3 7t7 3h41q4 0 7 -3q2 -3 2 -7v-721q0 -3 -2 -6q-2 -2 -6 -2h-44z" />
    <glyph glyph-name="uni0407" unicode="&#x407;" horiz-adv-x="225" 
d="M91 0q-3 0 -6 2q-2 3 -2 6v724q0 4 3 6q3 3 7 3h41q4 0 7 -3q3 -2 3 -6v-724q0 -3 -3 -6q-2 -2 -6 -2h-44zM77 854q13 -13 13 -30v-43h-45q-18 0 -30 13q-13 12 -13 30v42h47q17 -1 28 -12zM183 781h-44v43q0 17 12 30q11 11 27 12h48v-42q0 -18 -13 -30q-12 -13 -30 -13
z" />
    <glyph glyph-name="uni040E" unicode="&#x40e;" horiz-adv-x="698" 
d="M44 229v2q0 3 3 6t7 3h43q7 0 10 -3q4 -4 4 -8q1 -2 2 -5q8 -25 21 -50q13 -24 34 -45q31 -33 75 -50q45 -16 101 -16q54 0 98 16t76 48q21 21 35 46t23 49q17 45 20 80q3 34 3 35v89q-16 -23 -36 -43q-41 -41 -96 -62t-123 -21q-70 0 -126 22q-56 21 -97 63
q-25 26 -41 56q-16 29 -26 57q-19 54 -22 96q-2 42 -2 48v85q0 5 3 9q4 3 9 3h39q6 0 9 -3q4 -4 4 -9v-87l2 -35q1 -35 17 -80q8 -25 21 -50q13 -24 34 -45q31 -33 75 -50q45 -16 101 -16q54 0 98 16t76 48q21 21 35 46t23 49q17 45 20 80q3 34 3 35v86q0 5 3 9q4 4 9 4h39
q6 0 9 -4q4 -4 4 -9v-386q0 -4 -4 -46q-3 -42 -24 -95q-11 -30 -28 -59q-18 -30 -44 -56q-41 -41 -96 -62t-123 -21q-70 0 -126 22q-56 21 -97 63q-25 26 -41 56q-16 29 -26 57q-6 17 -10 32zM257 839l-1 15q0 8 1 15q18 -2 24 -6q6 -29 25 -48q18 -19 41 -19t41 19
q19 19 25 48q8 5 24 6q1 -7 1 -15l-1 -15q-6 -37 -36 -60q-25 -19 -54 -19t-54 19q-30 23 -36 60z" />
    <glyph glyph-name="uni0410" unicode="&#x410;" horiz-adv-x="595" 
d="M574 412v-400q0 -5 -4 -8q-3 -4 -8 -4h-38q-5 0 -8 4q-4 3 -4 8v145h-426v-143q0 -5 -3 -8q-4 -4 -9 -4h-37q-5 0 -8 4q-4 3 -4 8v401q0 2 1 15q0 13 3 34q6 38 25 94q20 55 66 101q36 35 83 56t104 21t101 -22q44 -23 79 -58q23 -24 39 -52q15 -27 25 -55q18 -51 20 -91
q3 -40 3 -46zM512 413q0 1 -1 35q-2 33 -16 76q-8 23 -21 46q-13 24 -32 44q-26 27 -60 44q-35 17 -80 17q-42 -1 -77 -17q-36 -17 -62 -43q-20 -20 -33 -44q-14 -23 -22 -46q-16 -43 -19 -76t-3 -34v-202h426v200z" />
    <glyph glyph-name="uni0411" unicode="&#x411;" horiz-adv-x="544" 
d="M90 494q0 -5 3 -7q3 -3 7 -3h168q99 0 171 -69q72 -70 73 -170v-2q0 -65 -30 -120q-32 -55 -85 -88q-28 -17 -61 -26q-32 -9 -66 -9h-2q-100 1 -171 72q-70 73 -70 173v481q0 5 4 9q3 3 8 3h407q5 0 8 -4q4 -4 4 -10v-35q0 -6 -4 -10q-3 -4 -8 -4h-348q-2 -1 -4 -3
q-4 -4 -4 -9v-169zM269 63q75 0 127 52q53 52 53 127t-52 127t-127 52h-167q-6 0 -9 -3q-4 -4 -4 -8v-164q0 -74 52 -127q52 -55 125 -56h2z" />
    <glyph glyph-name="uni0412" unicode="&#x412;" horiz-adv-x="554" 
d="M324 0h-285q-5 0 -8 4q-4 3 -4 8v714q0 5 4 9q3 3 8 3h261q77 -1 132 -56q54 -55 54 -132q0 -41 -16 -78q-17 -36 -46 -62q-5 -3 -5 -9q1 -7 6 -10q44 -28 71 -75q26 -47 26 -104q0 -84 -57 -146q-58 -61 -141 -66zM460 212q0 62 -44 106t-106 44h-207q-5 0 -9 -4
q-4 -3 -4 -8v-275q0 -5 4 -9q4 -3 9 -3h221q57 5 96 48q40 43 40 101zM300 676h-197q-5 0 -9 -4t-4 -9v-226q0 -5 4 -9q4 -3 9 -3h207q48 4 81 40t33 85q0 52 -36 89q-37 36 -88 37z" />
    <glyph glyph-name="uni0413" unicode="&#x413;" horiz-adv-x="452" 
d="M440 678h-348q-5 0 -8 -3q-4 -4 -4 -9v-658q0 -6 -4 -9q-4 -4 -9 -4h-34q-5 0 -9 4q-3 3 -3 9v718q0 5 3 9q4 3 9 3h407q5 0 8 -4q4 -4 4 -9v-34q0 -5 -4 -9q-3 -4 -8 -4z" />
    <glyph glyph-name="uni0414" unicode="&#x414;" horiz-adv-x="861" 
d="M615 736q13 0 20 -1q8 -1 9 -1q5 -1 16 -3q4 0 7 -4q3 -3 3 -8v-647q1 -4 4 -6q4 -4 9 -4h144q5 0 9 -4q4 -3 4 -9v-36q-1 -5 -5 -9q-3 -4 -9 -4h-787q-6 0 -9 4q-4 4 -5 9v36q0 6 4 9q4 4 9 4h144q5 0 9 4q2 2 3 5q3 96 16 180q15 102 44 183q25 69 60 123q35 55 80 94
q65 55 126 70q62 15 95 15zM256 75q0 -6 4 -9q4 -4 9 -4h327q5 0 9 4q4 3 4 9v587q0 5 -4 9q-4 3 -9 3q-29 -2 -73 -16q-44 -15 -90 -54q-38 -34 -69 -82t-53 -110q-27 -76 -41 -172q-11 -77 -15 -165h1z" />
    <glyph glyph-name="uni0415" unicode="&#x415;" horiz-adv-x="472" 
d="M436 0h-400q-5 0 -8 4q-4 3 -4 8v714q0 5 4 9q3 3 8 3h402q5 0 9 -4t4 -9v-34q0 -5 -4 -8q-4 -4 -9 -4h-343q-5 0 -9 -4q-3 -3 -3 -9v-220q0 -6 3 -9q4 -4 9 -4h247q5 0 9 -4q4 -3 4 -8v-34q0 -5 -4 -9t-9 -4h-247q-5 0 -9 -3q-3 -4 -3 -9v-306h353q6 0 9 -4q4 -3 4 -9
v-31q0 -5 -4 -8q-3 -4 -9 -4z" />
    <glyph glyph-name="uni0416" unicode="&#x416;" horiz-adv-x="996" 
d="M476 12v329q0 2 -1 4t-3 4l-51 60q-4 4 -10 4t-10 -5q-198 -269 -297 -403q-2 -2 -5 -4q-2 -1 -5 -1h-48q-8 0 -12 7q-1 3 -1 6q0 4 3 7q217 295 326 442q2 4 2 8t-3 8q-101 117 -152 175q-5 6 -2 14q4 7 12 7h51q3 0 5 -1l4 -4q117 -134 175 -201q6 -7 14 -4t8 12v186
q0 5 4 8q4 4 10 4h35q6 0 10 -4q4 -3 4 -8v-186q0 -9 8 -12t14 4q58 67 175 201l4 4q2 1 5 1h51q8 0 12 -7q3 -8 -2 -14q-51 -58 -152 -175q-3 -4 -3 -8t2 -8q109 -147 326 -442q3 -3 3 -7q0 -3 -1 -6q-4 -7 -12 -7h-48q-3 0 -5 1q-3 2 -5 4q-99 134 -297 403q-4 5 -10 5
t-10 -4l-51 -60q-2 -2 -3 -4t-1 -4v-329q0 -5 -4 -8q-4 -4 -10 -4h-35q-6 0 -10 4q-4 3 -4 8z" />
    <glyph glyph-name="uni0417" unicode="&#x417;" horiz-adv-x="386" 
d="M66 676q-10 0 -21 1q-4 0 -7 3q-3 2 -4 6l-6 39q-1 4 2 8t7 5h95q77 -1 132 -56q54 -55 54 -132q0 -41 -16 -78q-17 -36 -46 -62q-5 -3 -5 -9q1 -7 6 -10q44 -28 71 -75q26 -47 26 -104q0 -84 -57 -146q-58 -61 -141 -66h-119q-4 1 -7 5t-2 8l6 40q1 4 4 6q3 3 7 3
q11 1 21 1h90q57 5 96 48q40 43 40 101q0 62 -44 106t-123 46q-15 1 -31 1v56q16 0 31 1q65 7 98 43t33 85q0 52 -36 89q-37 36 -88 37h-66z" />
    <glyph glyph-name="uni0418" unicode="&#x418;" horiz-adv-x="677" 
d="M642 725v-722q0 -5 -3 -9q-4 -3 -9 -3h-38q-5 0 -8 3q-4 4 -4 9v109q-15 -21 -34 -40q-40 -40 -93 -60q-53 -21 -119 -21q-68 0 -122 21t-93 62q-45 46 -63 101t-23 94q-2 21 -3 35v423q0 5 4 9q3 4 8 4h38q5 0 9 -4q3 -4 3 -9v-407q0 -1 2 -35q2 -33 16 -77
q8 -24 21 -48t33 -44q30 -32 73 -48t97 -16q53 0 95 16q42 15 73 46q20 21 34 44q14 24 22 48q17 43 19 77l3 34v408q0 5 4 9q3 3 8 3h38q5 0 9 -3q3 -4 3 -9z" />
    <glyph glyph-name="uni0419" unicode="&#x419;" horiz-adv-x="677" 
d="M42 740h38q5 0 9 -4q3 -4 3 -9v-407q0 -1 2 -35q2 -33 16 -77q8 -24 21 -48t33 -44q30 -32 73 -48t97 -16q53 0 95 16q42 15 73 46q20 21 34 44q14 24 22 48q17 43 19 77l3 34v408q0 5 4 9q3 3 8 3h38q5 0 9 -3q3 -4 3 -9v-722q0 -5 -3 -9q-4 -3 -9 -3h-38q-5 0 -8 3
q-4 4 -4 9v109q-15 -21 -34 -40q-40 -40 -93 -60q-53 -21 -119 -21q-68 0 -122 21t-93 62q-45 46 -63 101t-23 94q-2 21 -3 35v423q0 5 4 9q3 4 8 4zM246 839l-1 15q0 8 1 15q18 -2 24 -6q6 -29 25 -48q18 -19 41 -19t41 19q19 19 25 48q8 5 24 6q1 -7 1 -15l-1 -15
q-6 -37 -36 -60q-25 -19 -54 -19t-54 19q-30 23 -36 60z" />
    <glyph glyph-name="uni041A" unicode="&#x41a;" horiz-adv-x="553" 
d="M210 462q109 -147 326 -442q3 -3 3 -7q0 -3 -1 -6q-4 -7 -12 -7h-48q-3 0 -5 1q-3 2 -5 4q-99 134 -297 403q-4 5 -10 5t-10 -4l-51 -60q-2 -2 -3 -4t-1 -4v-327q0 -5 -3 -9q-4 -4 -9 -4h-39q-5 0 -9 4q-3 4 -3 9v725h32q13 0 22 -10q7 -8 9 -18v-235q0 -9 8 -12t14 4
q58 67 175 201l4 4q2 1 5 1h51q8 0 12 -7q3 -8 -2 -14q-51 -58 -152 -175q-3 -4 -3 -8t2 -8z" />
    <glyph glyph-name="uni041B" unicode="&#x41b;" horiz-adv-x="554" 
d="M462 720q13 0 29 -2q20 -3 23 -7q3 -3 3 -8v-708q0 -5 -4 -8q-3 -4 -8 -4h-37q-5 0 -9 4q-3 3 -3 8v651q0 5 -4 9q-4 3 -9 3q-29 -2 -73 -16q-44 -15 -90 -54q-38 -34 -69 -82t-53 -110q-27 -76 -41 -172t-15 -211q0 -5 -4 -8q-3 -4 -8 -4h-37q-5 0 -9 4q-3 3 -3 8
q1 120 16 222t44 183q25 69 60 123q35 55 80 94q65 55 126 70q62 15 95 15z" />
    <glyph glyph-name="uni041C" unicode="&#x41c;" horiz-adv-x="676" 
d="M92 -2h-38q-6 0 -9 4q-4 3 -4 9v721q0 8 8 12q3 1 5 1q5 0 8 -4l271 -271q4 -4 9 -4t9 4q87 86 260 260q6 6 14 3q7 -3 7 -12v-708q0 -6 -3 -9q-4 -4 -9 -4h-39q-5 0 -9 4q-4 3 -4 9v554q0 8 -7 12q-8 3 -14 -3q-65 -66 -196 -197q-4 -3 -9 -3t-9 3l-207 207q-6 7 -13 3
q-8 -3 -8 -11v-568q0 -5 -4 -9q-3 -3 -9 -3z" />
    <glyph glyph-name="uni041D" unicode="&#x41d;" horiz-adv-x="594" 
d="M502 743h40q5 0 9 -3q3 -4 3 -9v-720q0 -5 -3 -9q-4 -3 -9 -3h-40q-5 0 -9 3q-3 4 -3 9v340q0 5 -4 9q-4 3 -9 3h-359q-5 0 -9 -3q-3 -4 -3 -9v-342q0 -5 -4 -9q-4 -3 -9 -3h-39q-6 0 -9 3q-4 4 -4 9v720q0 5 4 9q3 4 9 4h39q5 0 9 -4t4 -9v-288q0 -5 3 -9q4 -4 9 -4h358
q5 0 9 4t4 9v290q0 5 4 9q4 3 9 3z" />
    <glyph glyph-name="uni041E" unicode="&#x41e;" horiz-adv-x="779" 
d="M390 -1q-52 0 -100 15q-48 14 -90 39q-76 48 -123 129q-47 80 -47 177q0 52 14 100q15 48 40 89q48 76 129 123q80 47 177 47q96 0 177 -46q81 -47 129 -124q25 -41 39 -89q15 -48 15 -100q0 -53 -15 -101q-14 -48 -40 -89q-47 -76 -128 -123t-177 -47zM393 656
q-44 0 -83 -12q-40 -12 -74 -33q-64 -39 -102 -106q-39 -67 -39 -147q0 -43 12 -83q11 -40 32 -74q40 -64 107 -102q67 -39 147 -39q43 0 83 12q39 11 74 33q63 39 102 106t39 147t-39 147t-103 106q-34 21 -74 33q-39 12 -82 12z" />
    <glyph glyph-name="uni041F" unicode="&#x41f;" horiz-adv-x="657" 
d="M623 -5h-37q-5 0 -8 4q-4 3 -4 8v401l-1 34q-2 33 -16 76q-8 23 -21 47q-13 23 -32 43q-30 31 -72 47t-95 16q-52 -1 -94 -16q-41 -16 -71 -46q-20 -20 -34 -44q-13 -23 -22 -46q-16 -43 -18 -76l-3 -33v-401q0 -5 -4 -8q-3 -4 -8 -4h-37q-5 0 -9 4q-3 3 -3 8v401
q0 3 3 42q3 40 23 92q10 27 27 55t41 53q40 40 92 59q52 20 117 20q66 0 119 -20q53 -21 92 -61q24 -24 40 -52q15 -28 25 -55q18 -50 20 -90q2 -36 2 -45v-400q0 -6 -3 -9q-4 -4 -9 -4z" />
    <glyph glyph-name="uni0420" unicode="&#x420;" horiz-adv-x="471" 
d="M462 516q-1 -91 -67 -155q-65 -63 -156 -63h-146q-4 0 -7 -3q-3 -2 -3 -7v-260q0 -13 -8 -22q-8 -8 -20 -10h-35v520q0 91 64 157q64 65 155 66h2q31 0 60 -8q30 -8 56 -24q48 -30 77 -80q28 -50 28 -109v-2zM239 677q-65 -1 -110 -49q-46 -47 -46 -112v-145q0 -4 3 -7
t8 -3h147q66 0 112 46t46 112t-47 112q-46 46 -112 46h-1z" />
    <glyph glyph-name="uni0421" unicode="&#x421;" horiz-adv-x="677" 
d="M649 100q-50 -47 -115 -73q-66 -27 -139 -27q-54 0 -104 15q-50 14 -93 41q-80 50 -129 134q-48 84 -48 184q0 55 14 105q15 50 42 92q49 80 133 129t185 49q68 0 129 -23q62 -24 110 -64q-15 -16 -45 -46q-41 32 -90 51q-50 18 -105 18q-83 0 -153 -40
q-69 -41 -110 -107q-22 -35 -35 -77q-12 -41 -12 -86q0 -83 41 -153q40 -69 106 -111q35 -22 77 -34q41 -12 86 -12q61 0 114 21q54 22 95 60z" />
    <glyph glyph-name="uni0422" unicode="&#x422;" horiz-adv-x="452" 
d="M428 728v-39q0 -6 -4 -9q-4 -4 -9 -4h-144q-5 0 -9 -4q-4 -3 -4 -9v-654q0 -6 -4 -9q-3 -4 -9 -4h-39q-5 0 -9 4q-3 3 -3 9v654q0 6 -4 9q-4 4 -9 4h-144q-6 0 -9 4q-4 3 -4 9v39q0 5 4 9q3 4 9 4h377q6 0 9 -4q4 -4 5 -9z" />
    <glyph glyph-name="uni0423" unicode="&#x423;" horiz-adv-x="698" 
d="M44 229q0 5 3 8t7 3h44q6 0 9 -3q4 -4 4 -8q1 -2 2 -5q8 -25 21 -50q13 -24 34 -45q31 -33 75 -50q45 -16 101 -16q54 0 98 16t76 48q21 21 35 46t23 49q17 45 20 80q3 34 3 35v89q-16 -23 -36 -43q-41 -41 -96 -62t-123 -21q-70 0 -126 22q-56 21 -97 63q-25 26 -41 56
q-16 29 -26 57q-19 54 -22 96q-2 42 -2 48v85q0 5 3 9q4 3 9 3h39q6 0 9 -3q4 -4 4 -9v-87l2 -35q1 -35 17 -80q8 -25 21 -50q13 -24 34 -45q31 -33 75 -50q45 -16 101 -16q54 0 98 16t76 48q21 21 35 46t23 49q17 45 20 80q3 34 3 35v86q0 5 3 9q4 4 9 4h39q6 0 9 -4
q4 -4 4 -9v-386q0 -4 -4 -46q-3 -42 -24 -95q-11 -30 -28 -59q-18 -30 -44 -56q-41 -41 -96 -62t-123 -21q-70 0 -126 22q-56 21 -97 63q-25 26 -41 56q-16 29 -26 57q-6 17 -10 32z" />
    <glyph glyph-name="uni0424" unicode="&#x424;" horiz-adv-x="838" 
d="M387 728q0 5 4 8q4 4 10 4h35q6 0 10 -4q4 -3 4 -8v-207l1 1q64 65 155 66h2q31 0 60 -8q30 -8 56 -24q48 -30 77 -80q28 -50 28 -109v-2q-1 -91 -67 -155q-65 -63 -156 -63h-146q-4 0 -7 -3q-3 -2 -3 -7v-129q0 -5 -4 -8q-4 -4 -10 -4h-35q-6 0 -10 4q-4 3 -4 8v131
q-1 3 -3 5q-3 3 -7 3h-146q-91 0 -156 63q-66 64 -67 155v2q0 59 28 109q29 50 77 80q26 16 56 24q29 8 60 8h2q91 -1 155 -66l1 -1v207zM606 526q-65 -1 -110 -49q-44 -45 -46 -106v-151q0 -4 3 -7t8 -3h147q66 0 112 46t46 112t-47 112q-46 46 -112 46h-1zM387 220v151
q-3 61 -46 106q-45 48 -110 49h-1q-66 0 -112 -46q-47 -46 -47 -112t46 -112t112 -46h147q5 0 8 3t3 7z" />
    <glyph glyph-name="uni0425" unicode="&#x425;" horiz-adv-x="657" 
d="M73 729q2 -47 14 -91q11 -43 30 -81q34 -69 89 -111t119 -42q35 0 67 13q33 12 61 35q52 43 86 116t38 161q0 6 3 10t7 4h33q4 0 7 -5q3 -4 3 -9v-1q-6 -116 -53 -210q-46 -94 -117 -142q-6 -5 -6 -13q0 -9 6 -13q71 -49 117 -141q46 -93 52 -207q0 -6 -3 -11
q-3 -4 -7 -4h-32q-4 0 -7 3q-3 4 -3 9q-3 47 -14 90t-30 80q-34 69 -88 110q-55 42 -120 42q-35 0 -67 -13q-32 -12 -60 -35q-52 -43 -86 -115q-33 -72 -39 -159q0 -6 -2 -9q-3 -4 -8 -4h-32q-5 0 -7 4q-3 5 -3 11q5 115 52 208q46 92 117 141q6 4 6 13t-6 13
q-71 48 -118 142q-46 94 -51 210l-1 1q0 5 3 9q3 5 8 5h32q4 0 7 -4t3 -10z" />
    <glyph glyph-name="uni0426" unicode="&#x426;" horiz-adv-x="781" 
d="M514 148q-6 5 -14 11l-8 7q4 5 10 12t10 12q8 10 19 12h6q9 0 16 -5l1 -1l4 10q17 43 19 77l3 34v408q0 5 4 9q3 3 8 3h38q5 0 9 -3q3 -4 3 -9v-407q0 -3 -3 -43q-3 -41 -23 -93q-5 -13 -12 -26l117 -94q5 -3 15 -11l10 -8q-4 -5 -10 -12t-10 -13q-8 -10 -21 -11
q-3 -1 -5 0q-10 0 -19 6l-110 88q-11 -15 -25 -29q-40 -40 -93 -60q-53 -21 -119 -21q-68 0 -122 21t-93 62q-45 46 -63 101t-23 94q-2 21 -3 35v423q0 5 4 9q3 4 8 4h38q5 0 9 -4q3 -4 3 -9v-407q0 -1 2 -35q2 -33 16 -77q8 -24 21 -48t33 -44q30 -32 73 -48t97 -16
q53 0 95 16q42 15 73 46q12 12 22 25q-4 4 -8 7z" />
    <glyph glyph-name="uni0427" unicode="&#x427;" horiz-adv-x="657" 
d="M632 735q3 -3 3 -9v-717q0 -6 -4 -9q-3 -4 -8 -4h-38q-4 0 -8 4q-3 3 -3 9v402q-12 -16 -26 -30q-39 -40 -92 -61q-53 -20 -119 -20q-65 0 -117 20q-52 19 -92 59q-24 25 -41 53t-27 55q-20 52 -23 92q-3 39 -3 42v104q0 5 3 8q4 4 9 4h37q5 0 8 -4q4 -3 4 -8v-104l3 -33
q2 -33 18 -76q9 -23 22 -46q14 -24 34 -44q30 -30 71 -46q42 -15 94 -16q53 0 95 16t72 47q19 20 32 43q13 24 21 47q14 43 16 76l1 34v104q0 5 4 8q3 4 8 4h37q5 0 9 -4z" />
    <glyph glyph-name="uni0428" unicode="&#x428;" horiz-adv-x="1210" 
d="M1172 736q3 -3 3 -9v-714q0 -6 -3 -9q-4 -4 -9 -4h-37q-5 0 -8 4q-4 3 -4 8v90q-12 -16 -26 -30q-39 -40 -92 -61q-53 -20 -119 -20q-65 0 -117 20q-52 19 -92 59q-24 25 -41 53q-12 20 -21 39q-8 -19 -18 -38q-16 -28 -40 -52q-39 -40 -92 -61q-53 -20 -119 -20
q-65 0 -117 20q-52 19 -92 59q-24 25 -41 53t-27 55q-20 52 -23 92q-3 39 -3 42v414q0 5 3 8q4 4 9 4h37q5 0 8 -4q4 -3 4 -8v-414l3 -33q2 -33 18 -76q9 -23 22 -46q14 -24 34 -44q30 -30 71 -46q42 -15 94 -16q53 0 95 16t72 47q19 20 32 43q13 24 21 47q14 43 16 76l1 34
v412q0 5 3 8q4 4 9 4h37q5 0 8 -4q4 -3 4 -8v-414l3 -33q2 -33 18 -76q9 -23 22 -46q14 -24 34 -44q30 -30 71 -46q42 -15 94 -16q53 0 95 16t72 47q19 20 32 43q13 24 21 47q14 43 16 76l1 34v414q0 5 4 8q3 4 8 4h37q5 0 9 -4z" />
    <glyph glyph-name="uni0429" unicode="&#x429;" horiz-adv-x="1314" 
d="M1172 736q3 -3 3 -9v-413q0 -9 -2 -45q-2 -40 -20 -90q-5 -13 -11 -26l137 -108q-4 -5 -10 -12t-10 -13q-8 -10 -21 -11q-3 -1 -5 0q-10 0 -19 6l-104 82q-10 -13 -22 -25q-39 -40 -92 -61q-53 -20 -119 -20q-65 0 -117 20q-52 19 -92 59q-24 25 -41 53q-12 20 -21 39
q-8 -19 -18 -38q-16 -28 -40 -52q-39 -40 -92 -61q-53 -20 -119 -20q-65 0 -117 20q-52 19 -92 59q-24 25 -41 53t-27 55q-20 52 -23 92q-3 39 -3 42v414q0 5 3 8q4 4 9 4h37q5 0 8 -4q4 -3 4 -8v-414l3 -33q2 -33 18 -76q9 -23 22 -46q14 -24 34 -44q30 -30 71 -46
q42 -15 94 -16q53 0 95 16t72 47q19 20 32 43q13 24 21 47q14 43 16 76l1 34v412q0 5 3 8q4 4 9 4h37q5 0 8 -4q4 -3 4 -8v-414l3 -33q2 -33 18 -76q9 -23 22 -46q14 -24 34 -44q30 -30 71 -46q42 -15 94 -16q53 0 95 16t72 47q10 10 18 22l-4 4l-32 27q4 5 10 12t10 12
q8 10 19 12h6q9 0 17 -6l5 -4l4 11q14 43 16 76l1 34v414q0 5 4 8q3 4 8 4h37q5 0 9 -4z" />
    <glyph glyph-name="uni042A" unicode="&#x42a;" horiz-adv-x="711" 
d="M428 0h-223q-11 0 -11 11v651q0 6 -4 9q-4 4 -9 4h-144q-6 0 -9 4q-4 3 -4 9v37q0 5 4 9q3 4 9 4h193q26 0 27 -34v-268q0 -6 5 -10l5 -1q4 0 8 4q67 55 153 55q99 0 170.5 -70t72.5 -171q0 -101 -71 -172t-172 -71zM433 63q75 0 128 51t55 128q0 74 -52.5 126.5
t-128.5 52.5q-69 0 -120 -46.5t-57 -115.5l-1 -10v-175q0 -11 11 -11h165z" />
    <glyph glyph-name="uni042B" unicode="&#x42b;" horiz-adv-x="688" 
d="M261 0h-223q-11 0 -11 11v727h36q26 0 27 -34v-268q0 -6 5 -10l5 -1q4 0 8 4q67 55 153 55q99 0 170.5 -70t72.5 -171q0 -101 -71 -172t-172 -71zM266 63q75 0 128 51t55 128q0 74 -52.5 126.5t-128.5 52.5q-69 0 -120 -46.5t-57 -115.5l-1 -10v-175q0 -11 11 -11h165z
M593 0q-3 0 -6 2q-2 3 -2 6v720q0 4 3 7t7 3h41q4 0 7 -3q2 -3 2 -7v-720q0 -3 -2 -6q-2 -2 -6 -2h-44z" />
    <glyph glyph-name="uni042C" unicode="&#x42c;" horiz-adv-x="544" 
d="M261 0h-223q-11 0 -11 11v727h36q26 0 27 -34v-268q0 -6 5 -10l5 -1q4 0 8 4q67 55 153 55q99 0 170.5 -70t72.5 -171q0 -101 -71 -172t-172 -71zM266 63q75 0 128 51t55 128q0 74 -52.5 126.5t-128.5 52.5q-69 0 -120 -46.5t-57 -115.5l-1 -10v-175q0 -11 11 -11h165z
" />
    <glyph glyph-name="uni042D" unicode="&#x42d;" horiz-adv-x="677" 
d="M21 100l46 46q41 -38 95 -60q53 -21 114 -21q45 0 86 12q42 12 77 34q66 42 106 111q29 50 38 108v1q0 5 -3 9q-4 3 -9 3h-247q-5 0 -9 4t-4 9v38q0 5 4 8q4 4 9 4h247q5 0 9 4q3 3 3 9v1q-3 21 -9 41q-13 42 -35 77q-41 66 -110 107q-70 40 -153 40q-55 0 -105 -18
q-49 -19 -90 -51q-30 30 -45 46q48 40 110 64q61 23 129 23q101 0 185 -49t133 -129q27 -42 42 -92q14 -50 14 -105q0 -100 -48 -184q-49 -84 -129 -134q-43 -27 -93 -41q-50 -15 -104 -15q-73 0 -139 27q-65 26 -115 73z" />
    <glyph glyph-name="uni042E" unicode="&#x42e;" horiz-adv-x="1058" 
d="M669 -1q-52 0 -100 15q-48 14 -90 39q-76 48 -123 129q-47 79 -47 175q-1 1 -2 3q-4 3 -9 3h-180q-5 0 -9 -3q-3 -4 -3 -9v-342q0 -5 -4 -9q-4 -3 -9 -3h-39q-6 0 -9 3q-4 4 -4 9v720q0 5 4 9q3 4 9 4h39q5 0 9 -4t4 -9v-288q0 -5 3 -9q4 -4 9 -4h179q13 0 17 4l3 3
q2 12 6 24q15 48 40 89q48 76 129 123q80 47 177 47q96 0 177 -46q81 -47 129 -124q25 -41 39 -89q15 -48 15 -100q0 -53 -15 -101q-14 -48 -40 -89q-47 -76 -128 -123t-177 -47zM672 656q-44 0 -83 -12q-40 -12 -74 -33q-64 -39 -102 -106q-39 -67 -39 -147q0 -43 12 -83
q11 -40 32 -74q40 -64 107 -102q67 -39 147 -39q43 0 83 12q39 11 74 33q63 39 102 106t39 147t-39 147t-103 106q-34 21 -74 33q-39 12 -82 12z" />
    <glyph glyph-name="uni042F" unicode="&#x42f;" horiz-adv-x="513" 
d="M23 0q-2 3 -2 7q0 3 2 6q100 202 150 304q-9 4 -18 9t-17 12l-1 1q-24 21 -28.5 26t-12.5 13q-22 28 -35 63t-14 73q-2 92 62 158q64 65 155 66h6q91 -1 155 -67t64 -157v-523h-34q-12 1 -21 10q-8 9 -8 22v262q0 4 -3 7t-7 3h-180l-144 -294q-1 -3 -5 -5q-3 -2 -6 -2
h-47q-7 0 -11 6zM156 406q46 -47 111 -47h149q4 0 7 3t3 7v146q0 66 -46 114q-45 47 -110 48h-2q-65 0 -112 -46q-47 -47 -47 -113t47 -112z" />
    <glyph glyph-name="uni0430" unicode="&#x430;" horiz-adv-x="492" 
d="M458 211v-201q0 -5 -3 -7q-3 -3 -7 -3h-201q-85 0 -149 60t-67 145v8q0 56 26 103q29 51 77 80q26 16 56 24q26 7 54 7h9q84 -4 144 -68q61 -64 61 -148zM397 70v141q0 62 -42 107q-43 46 -105 48h-5q-63 0 -108 -45t-45 -108v-5q2 -62 47 -105q46 -43 108 -43h141
q3 0 6 3t3 7z" />
    <glyph glyph-name="uni0431" unicode="&#x431;" horiz-adv-x="475" 
d="M32 214v308q0 88 63 152q62 64 150 64h1q86 -1 147 -61q61 -59 65 -144q0 -5 -3 -8q-3 -2 -7 -2q-14 -1 -42 -1q-4 0 -7 3t-3 6q-3 60 -47 103q-44 42 -105 42q-63 0 -108 -44q-44 -45 -44 -108v-147q0 -6 5 -9q5 -2 10 2q27 22 60 35q34 12 71 12q85 1 147 -59
q62 -61 63 -146v-4q0 -85 -60 -146q-62 -62 -148 -62h-199q-4 0 -7 3t-3 7v199q0 2 1 5zM389 206v3q0 61 -43 105q-44 44 -106 44q-58 0 -101 -39q-42 -39 -47 -96v-3q-1 -3 -1 -6v-146q0 -4 3 -6q3 -3 7 -3h137q61 0 106 43q44 42 45 104z" />
    <glyph glyph-name="uni0432" unicode="&#x432;" horiz-adv-x="350" 
d="M272 130q0 32 -24 54q-23 23 -56 23h-91q-3 0 -5 -2t-2 -4v-140q0 -3 2 -5q2 -1 5 -1h98q31 2 51 24q22 22 22 51zM185 376h-84q-3 0 -5 -2t-2 -4v-103q0 -2 2 -4q2 -1 5 -1h90q25 2 42 18q18 16 18 38q0 24 -19 41q-20 16 -47 17zM212 0h-166q-3 0 -5 2t-2 5v416
q0 3 2 5t5 2h152q45 -1 77 -33q31 -32 31 -77q0 -24 -9 -45q-10 -21 -27 -36q-3 -2 -3 -5q1 -5 4 -6q25 -17 41 -44q15 -27 15 -61q0 -48 -33 -85q-34 -35 -82 -38z" />
    <glyph glyph-name="uni0433" unicode="&#x433;" horiz-adv-x="287" 
d="M115 3q-19 4 -39 10q-42 15 -57 58q-7 20 -7 41q0 26 10 55q11 32 49 54q37 22 79 42q16 7 31 14q14 7 23 13q17 12 14 32q-5 26 -17 38q-11 13 -43 16q-28 2 -49 -6q-21 -9 -32 -15q-4 -2 -8 -2q-5 1 -7 4q-8 9 -12 14q-7 8 -11 12q-3 4 -2 9q0 6 5 9q15 10 46 23
q25 10 57 10q9 0 18 -1q50 -4 75 -28t31 -41q1 -3 4 -15q3 -11 3 -27q0 -25 -10 -45t-29 -33q-11 -8 -28 -16q-16 -8 -34 -16q-25 -12 -59 -30q-34 -17 -39 -32q-6 -18 -6 -45q1 -27 26 -36q25 -10 61 -11q35 -1 83 27q5 2 9 1q5 -1 8 -5q12 -19 18 -28q2 -4 2.5 -5.5
t-0.5 -4.5q-2 -5 -7 -8q-29 -17 -59 -26t-60 -9q-18 0 -37 3z" />
    <glyph glyph-name="uni0434" unicode="&#x434;" horiz-adv-x="472" 
d="M83 -87q4 0 7 -3t3 -6q3 -60 47 -103q44 -42 105 -42q63 0 108 44q44 45 44 108v91h-150q-87 0 -151 62q-64 61 -65 148v3q0 87 63 150q62 63 150 62h2q87 0 149 -64t62 -151v-299q0 -88 -63 -152q-62 -64 -150 -64h-1q-86 1 -147 61q-61 59 -65 144q0 5 3 8q3 2 7 2
q14 1 42 1zM397 211q0 64 -44 109q-45 46 -108 46t-108 -45t-45 -108q1 -63 46 -108q46 -44 109 -44h140q4 0 7 3t3 7v140z" />
    <glyph glyph-name="uni0435" unicode="&#x435;" horiz-adv-x="430" 
d="M395 358q2 -3 2 -7v-1q0 -3 -2 -5l-252 -252q40 -31 91 -32q50 -1 91 28q3 2 6 2t6 -3l33 -28q3 -2 3 -7t-4 -8q-59 -45 -133 -45h-6q-79 2 -138 55q-65 57 -72 145v18q0 76 49 136q54 66 137 77q16 2 31 2q65 0 121 -38q13 -11 20 -18q7 -6 17 -19zM95 151q3 -4 8 -5h2
q3 0 6 3l192 192q3 3 3 7v2q0 5 -5 7q-31 14 -63 14q-16 0 -33 -3q-50 -10 -85 -49q-31 -36 -37 -82q-1 -11 -1 -21q-1 -34 13 -65z" />
    <glyph glyph-name="uni0436" unicode="&#x436;" horiz-adv-x="744" 
d="M401 11q0 -5 -3 -8t-7 -3h-42q-5 0 -8 3q-2 3 -2 8v136q-1 1 -1 2t-1 3q-43 53 -65 80q-3 3 -7 3q-5 0 -8 -3q-114 -153 -171 -229q-1 -2 -3 -3t-4 -1h-53q-6 0 -9 5q-1 2 -1 4q0 4 2 7q135 179 202 269q2 3 2 6q0 4 -2 6q-63 78 -95 117q-4 5 -1 11q2 5 8 5h46q3 0 4 -1
q2 -1 4 -3q90 -107 136 -160q4 -5 11 -3q6 2 6 9v147q0 5 2 8q3 3 8 3h42q4 0 7 -3t3 -8v-147q0 -7 6 -9q7 -2 11 3q45 53 135 160q2 2 4 3q1 1 4 1h46q6 0 8 -5q3 -6 -1 -11q-32 -39 -95 -117q-2 -2 -2 -6q0 -3 2 -6q67 -90 202 -269q2 -3 2 -7q0 -2 -1 -4q-3 -5 -9 -5h-53
q-2 0 -4 1t-3 3q-57 76 -171 229q-3 3 -8 3q-4 0 -7 -3q-22 -27 -64 -80q-1 -2 -1 -3q-1 -1 -1 -3v-135z" />
    <glyph glyph-name="uni0437" unicode="&#x437;" horiz-adv-x="271" 
d="M95 209h-18v51h18q42 4 59 20q18 16 18 38q0 24 -19 41q-20 16 -47 17h-57q-3 0 -4 3q-2 2 -3 6l-3 33q-1 5 1 8t4 4h75q45 -1 77 -33q31 -32 31 -77q0 -24 -9 -45q-10 -21 -27 -36q-3 -2 -3 -5q1 -5 4 -6q25 -17 41 -44q15 -27 15 -61q0 -48 -33 -85q-34 -35 -82 -38
h-89q-2 1 -4 4t-1 8l3 34l2 6q2 2 5 2q6 1 12 1h59q31 2 51 24q22 22 22 51q0 32 -24 54q-23 23 -74 25z" />
    <glyph glyph-name="uni0438" unicode="&#x438;" 
d="M21 215v205q0 4 2 7q3 3 8 3h35q4 0 7 -3t3 -7v-205q0 -63 40 -109q41 -45 98 -45t97 46q41 45 40 109v208q1 3 4 4q2 2 5 2h36q4 0 7 -3t3 -7v-410q0 -4 -3 -7t-7 -3h-36q-3 0 -5 2q-3 1 -4 4v58l-1 -1q-57 -63 -137 -63q-79 0 -136 63q-56 63 -56 152z" />
    <glyph glyph-name="uni0439" unicode="&#x439;" 
d="M21 215v205q0 4 2 7q3 3 8 3h35q4 0 7 -3t3 -7v-205q0 -63 40 -109q41 -45 98 -45t97 46q41 45 40 109v208q1 3 4 4q2 2 5 2h36q4 0 7 -3t3 -7v-410q0 -4 -3 -7t-7 -3h-36q-3 0 -5 2q-3 1 -4 4v58l-1 -1q-57 -63 -137 -63q-79 0 -136 63q-56 63 -56 152zM124 551l-1 15
q0 8 1 15q18 -2 24 -6q6 -29 25 -48q18 -19 41 -19t41 19q19 19 25 48q8 5 24 6q1 -7 1 -15l-1 -15q-6 -37 -36 -60q-25 -19 -54 -19t-54 19q-30 23 -36 60z" />
    <glyph glyph-name="uni043A" unicode="&#x43a;" horiz-adv-x="451" 
d="M107 9q0 -4 -2 -7q-3 -2 -7 -2h-42q-4 0 -7 2q-3 3 -3 7v420h31q13 0 22 -9t9 -21v-128q0 -7 6 -9q7 -2 11 3q45 53 135 160q2 2 4 3q1 1 4 1h46q6 0 8 -5q3 -6 -1 -11q-32 -39 -95 -117q-2 -2 -2 -6q0 -3 2 -6q67 -90 202 -269q2 -3 2 -7q0 -2 -1 -4q-3 -5 -9 -5h-53
q-2 0 -4 1t-3 3q-57 76 -171 229q-3 3 -8 3q-4 0 -7 -3q-22 -27 -65 -80q-1 -2 -1 -3q-1 -1 -1 -3v-137z" />
    <glyph glyph-name="uni043B" unicode="&#x43b;" horiz-adv-x="349" 
d="M49 0q-4 0 -7 2q-3 3 -3 8v204q0 88 63 151q62 63 151 63h62v-418q0 -5 -3 -8q-2 -2 -7 -2h-41q-4 0 -7 2q-3 3 -2 8v357q-64 0 -109 -45q-46 -45 -46 -109v-203q0 -5 -3 -8q-3 -2 -7 -2h-41z" />
    <glyph glyph-name="uni043C" unicode="&#x43c;" horiz-adv-x="373" 
d="M52 -3q-31 0 -31 11v404q0 4 6 7q4 0 83 -78q78 -80 81 -80t5 3l147 147l4 2l4 -1q4 -1 4 -7v-397q0 -10 -31 -10t-31 10v249q0 5 -4 7l-4 1l-4 -2l-85 -86l-5 -1l-5 1l-91 91q-2 3 -5 3q-7 -3 -7 -7v-256q0 -11 -31 -11z" />
    <glyph glyph-name="uni043D" unicode="&#x43d;" horiz-adv-x="349" 
d="M278 430h40q3 0 5 -2t2 -5v-415q0 -3 -2 -5t-5 -2h-40q-3 0 -5 2t-2 5v187q0 3 -2 5q-3 2 -6 2h-172q-2 0 -5 -2q-2 -2 -2 -5v-188q0 -3 -2 -5t-5 -2h-41q-3 0 -5 2t-2 5v415q0 3 2 5t5 2h41q3 0 5 -2t2 -5v-157q0 -3 2 -5q3 -3 5 -3h172q3 0 5 3q2 2 2 5v158q0 3 3 5
q2 2 5 2z" />
    <glyph glyph-name="uni043E" unicode="&#x43e;" horiz-adv-x="472" 
d="M237 1q-88 0 -151 63q-62 63 -62 151q0 89 62 151q63 63 151 63t151 -63t63 -151t-63 -151q-62 -63 -151 -63zM237 369q-64 0 -109 -45t-45 -109q0 -63 46 -109q45 -45 108 -45q64 0 109 45q45 46 45 109q0 64 -45 109t-109 45z" />
    <glyph glyph-name="uni043F" unicode="&#x43f;" 
d="M408 215v-204q0 -5 -2 -8q-3 -2 -7 -2q-12 -1 -36 -1q-4 0 -7 3t-3 7v204q0 63 -40 108t-97 45t-97 -45t-40 -108v-207q-2 -3 -4 -5q-2 -1 -5 -1h-36q-4 0 -7 2q-3 3 -3 8v204q0 88 56 150q56 63 136 63q79 0 135 -63q57 -62 57 -150z" />
    <glyph glyph-name="uni0440" unicode="&#x440;" horiz-adv-x="493" 
d="M468 209q-1 -91 -66 -154t-155 -63h-145q-4 0 -7 -3q-3 -2 -3 -7v-258q0 -13 -8 -22q-8 -8 -20 -10h-34v517q0 90 63 155t154 66h2q91 1 155 -64q64 -64 64 -155v-2zM247 368q-65 -1 -110 -48t-45 -111v-144q0 -5 3 -8t8 -3h146q65 0 111 46t46 111q0 66 -47 111
q-46 46 -111 46h-1z" />
    <glyph glyph-name="uni0441" unicode="&#x441;" horiz-adv-x="389" 
d="M337 89q4 -3 11 -9q8 -6 11 -9q4 -4 9 -8q4 -3 4 -8q0 -4 -4 -7q-25 -20 -53 -31q-29 -11 -59 -14q-10 -1 -20 -1q-45 0 -89 20q-55 23 -91 78q-31 45 -35 100q-1 8 -1 16q0 46 21 89q29 62 83 94q53 31 112 32h1q31 0 61 -9q31 -9 58 -28q1 -1 1 -2t-1 -2
q-10 -10 -20 -19l-20 -20q-2 -1 -3 0q-58 31 -123 10q-66 -21 -95 -91q-12 -30 -10 -64q2 -33 18 -62q37 -65 103 -78q67 -13 119 23q3 2 6 2t6 -2z" />
    <glyph glyph-name="uni0442" unicode="&#x442;" horiz-adv-x="533" 
d="M515 200v-192q0 -4 -3 -7q-2 -3 -7 -3h-42q-4 0 -7 3t-3 7v206q0 64 -45 109q-45 46 -109 46v-360q0 -4 -3 -7t-7 -3h-52v227q-4 60 -48 102q-45 41 -106 41v-361q0 -5 -3 -8t-7 -3h-42q-5 0 -8 3q-2 3 -2 8v398q0 10 7 18q7 7 18 7h37q45 0 85 -18q40 -17 69 -47v40
q0 10 8 18q7 7 18 7h36q58 0 106 -32q49 -32 77 -81q16 -27 24 -57q9 -30 9 -61z" />
    <glyph glyph-name="uni0443" unicode="&#x443;" 
d="M21 215v205q0 4 2 7q3 3 8 3h35q4 0 7 -3t3 -7v-205q0 -63 40 -109q41 -45 98 -45t97 46q41 45 40 109v208q1 3 4 4q2 2 5 2h36q4 0 7 -3t3 -7v-499q0 -88 -57 -152t-137 -64h-1q-78 1 -134 61q-55 59 -59 144q0 5 3 8q2 2 6 2q13 1 38 0q4 0 7 -3q2 -3 2 -6
q3 -59 43 -102q40 -42 96 -42q57 0 98 44q40 45 40 108v145l-1 -1q-57 -63 -137 -63q-79 0 -136 63q-56 63 -56 152z" />
    <glyph glyph-name="uni0444" unicode="&#x444;" horiz-adv-x="860" 
d="M428 -308q-31 0 -31 11v282q-2 7 -10 7h-145q-90 0 -155 63t-66 155q0 92 63.5 156t155.5 64q93 -1 156 -66l1 -1v364q0 11 31 11t31 -11v-364l1 1q63 65 157 66q91 0 154.5 -64t63.5 -156q-1 -92 -66 -155t-155 -63h-145q-10 0 -10 -10v-279q0 -11 -31 -11zM616 54
q65 0 111 46t46 111q0 66 -46.5 111.5t-111.5 45.5q-66 -1 -111 -48q-43 -45 -45 -105v-150q0 -11 11 -11h146zM386 54q11 0 11 11v150q-3 60 -45 105q-45 47 -110 48q-66 0 -112.5 -45.5t-46.5 -111.5q0 -65 46 -111t111 -46h146z" />
    <glyph glyph-name="uni0445" unicode="&#x445;" horiz-adv-x="410" 
d="M334 9q-6 63 -44 106q-37 43 -87 43t-87 -43t-44 -106q0 -4 -3 -6q-2 -3 -5 -3h-35q-4 0 -6 3q-3 4 -3 7q1 1 1 2q5 66 35 117q30 52 76 77q5 3 5 10t-5 9q-46 25 -76 77t-35 118q-1 5 2 8q2 4 6 4h35q3 0 5 -3q3 -3 3 -7q6 -63 43 -106q38 -43 88 -43t87 43
q38 43 44 106q0 4 3 7q2 3 5 3h35q4 0 6 -4q2 -3 2 -7v-1q-5 -66 -35 -118q-31 -52 -76 -77q-5 -2 -5 -9t5 -10q45 -25 76 -77q30 -52 35 -117q1 -5 -2 -9q-2 -3 -6 -3h-35q-3 0 -5 3q-3 2 -3 6z" />
    <glyph glyph-name="uni0446" unicode="&#x446;" horiz-adv-x="531" 
d="M506 42q-4 -4 -9 -10t-9 -12q-7 -9 -19 -9.5t-20 4.5l-84 66q-7 -9 -15 -18q-57 -63 -137 -63q-79 0 -136 63q-56 63 -56 152v205q0 4 2 7q3 3 8 3h35q4 0 7 -3t3 -7v-205q0 -63 40 -109q41 -45 98 -45t97 46q4 5 9 10l-17 16q4 4 14.5 16.5t20.5 14.5h6q7 24 7 52v208
q1 3 4 4q2 2 5 2h36q4 0 7 -3t3 -7v-205q0 -45 -15 -84z" />
    <glyph glyph-name="uni0447" unicode="&#x447;" horiz-adv-x="437" 
d="M356 210q-56 -63 -135 -63q-80 0 -136 63q-56 62 -56 150v59q0 5 3 8q3 2 7 2h36q3 0 5 -1q2 -2 4 -5v-62q0 -63 40 -108t97 -45t97 45t40 108v59q0 4 3 7t7 3q24 0 36 -1q4 0 7 -2q2 -3 2 -8v-408q0 -5 -2 -8q-3 -2 -7 -2q-12 -1 -36 -1q-4 0 -7 3t-3 7v202z" />
    <glyph glyph-name="uni0448" unicode="&#x448;" horiz-adv-x="760" 
d="M680 63q-56 -63 -135 -63q-80 0 -136 63q-17 19 -29 40q-12 -21 -29 -40q-56 -63 -135 -63q-80 0 -136 63q-56 62 -56 150v207q0 5 3 8q3 2 7 2h36q3 0 5 -1q2 -2 4 -5v-210q0 -63 40 -108t97 -45t97 45q37 41 40 98v216q0 5 3 8q3 2 7 2h36q3 0 5 -1q2 -2 4 -5v-210
q0 -63 40 -108t97 -45t97 45t40 108v207q0 4 3 7t7 3q24 0 36 -1q4 0 7 -2q2 -3 2 -8v-409q0 -5 -2 -8q-3 -2 -7 -2q-12 -1 -36 -1q-4 0 -7 3t-3 7v55z" />
    <glyph glyph-name="uni0449" unicode="&#x449;" horiz-adv-x="860" 
d="M680 63q-56 -63 -135 -63q-80 0 -136 63q-17 19 -29 40q-12 -21 -29 -40q-56 -63 -135 -63q-80 0 -136 63q-56 62 -56 150v207q0 5 3 8q3 2 7 2h36q3 0 5 -1q2 -2 4 -5v-210q0 -63 40 -108t97 -45t97 45q37 41 40 98v216q0 5 3 8q3 2 7 2h36q3 0 5 -1q2 -2 4 -5v-220
q3 -57 40 -98q40 -45 97 -45t97 45q5 5 9 11q-5 5 -10 9l-7 7q4 4 14.5 16.5t20.5 14.5h6q7 23 7 50v207q0 4 3 7t7 3q24 0 36 -1q4 0 7 -2q2 -3 2 -8v-207q0 -45 -15 -83l115 -88q-4 -4 -9 -10t-9 -12q-7 -9 -19 -9.5t-20 4.5l-84 66h-1q-7 -9 -15 -18z" />
    <glyph glyph-name="uni044A" unicode="&#x44a;" horiz-adv-x="439" 
d="M168 401v-140q0 -4 4 -6q4 -1 7 2q19 15 42 24q23 8 49 8q59 1 102 -41t44 -101v-3q0 -59 -42 -101q-43 -43 -103 -43h-158q-3 0 -5 2t-2 5v351q-1 4 -4 7q-4 4 -9 4h-81q-6 0 -9 4q-4 3 -4 9v36q0 5 4 9q3 4 9 4h125q13 0 22 -9t9 -21zM354 144v2q0 33 -27 58
q-27 24 -66 24q-36 0 -63 -22q-26 -21 -30 -53v-85q0 -3 2 -3q2 -2 3 -2h87q38 0 66 24q27 23 28 57z" />
    <glyph glyph-name="uni044B" unicode="&#x44b;" horiz-adv-x="491" 
d="M101 401v-149q0 -4 4 -6q4 -1 7 2q19 15 42 24q23 8 49 8q59 1 102 -41t44 -101v-3q0 -59 -42 -101q-43 -43 -103 -43h-158q-3 0 -5 2t-2 5v433h31q13 0 22 -9t9 -21zM420 -6q-4 0 -7 2q-2 3 -2 7v418q0 4 3 7t7 3h41q4 0 7 -3t3 -7v-418q0 -4 -3 -7q-2 -2 -6 -2h-43z
M287 135v2q0 33 -27 58q-27 24 -66 24q-36 0 -63 -22q-26 -21 -30 -53v-85q0 -3 2 -3q2 -2 3 -2h87q38 0 66 24q27 23 28 57z" />
    <glyph glyph-name="uni044C" unicode="&#x44c;" horiz-adv-x="372" 
d="M101 401v-140q0 -4 4 -6q4 -1 7 2q19 15 42 24q23 8 49 8q59 1 102 -41t44 -101v-3q0 -59 -42 -101q-43 -43 -103 -43h-158q-3 0 -5 2t-2 5v424h31q13 0 22 -9t9 -21zM287 144v2q0 33 -27 58q-27 24 -66 24q-36 0 -63 -22q-26 -21 -30 -53v-85q0 -3 2 -3q2 -2 3 -2h87
q38 0 66 24q27 23 28 57z" />
    <glyph glyph-name="uni044D" unicode="&#x44d;" horiz-adv-x="389" 
d="M61 91q3 0 6 -2q52 -36 119 -23q66 13 103 78q12 20 16 43v3q0 3 -2 6q-2 2 -5 2h-141q-3 0 -6 3q-2 2 -2 6v26q0 3 2 5q3 3 6 3h141q3 0 5 3l2 2q-3 12 -8 24q-29 70 -95 91q-65 21 -123 -10q-1 -1 -3 0l-20 20q-10 9 -20 19q-1 1 -1 2t1 2q27 19 58 28q30 9 61 9h1
q59 -1 112 -32q54 -32 83 -94q21 -43 21 -89q0 -8 -1 -16q-4 -55 -35 -100q-36 -55 -91 -78q-44 -20 -89 -20q-10 0 -20 1q-30 3 -59 14q-28 11 -53 31q-4 3 -4 7q0 5 4 8l31 26q3 2 6 2z" />
    <glyph glyph-name="uni044E" unicode="&#x44e;" horiz-adv-x="632" 
d="M397 1q-88 0 -151 63q-56 56 -62 133q0 2 -1 3q-3 2 -6 2h-86q-2 0 -5 -2q-2 -2 -2 -5v-188q0 -3 -2 -5t-5 -2h-41q-3 0 -5 2t-2 5v415q0 3 2 5t5 2h41q3 0 5 -2t2 -5v-157q0 -3 2 -5q3 -3 5 -3h86q8 0 11 3q12 60 58 106q63 63 151 63t151 -63t63 -151t-63 -151
q-62 -63 -151 -63zM397 369q-64 0 -109 -45t-45 -109q0 -63 46 -109q45 -45 108 -45q64 0 109 45q45 46 45 109q0 64 -45 109t-109 45z" />
    <glyph glyph-name="uni044F" unicode="&#x44f;" horiz-adv-x="332" 
d="M40 4q-1 2 -1 4t1 4l87 175l-11 5q-5 3 -14 10q-11 8 -21.5 22t-18.5 34q-7 20 -8 42q-1 53 36 91t89 38h3q53 0 90 -38t37 -91v-301h-44q-7 1 -12 6t-5 12v151q0 3 -1 4q-2 2 -4 2h-55q-54 -113 -82 -169q-1 -2 -3 -3t-3 -1h-54q-4 0 -6 3zM135 255q19 -20 46 -20h63
q2 0 3 1q1 2 1 3v61q0 28 -19 48t-46 20h-1q-28 0 -47 -19q-20 -20 -20 -47q0 -28 20 -47z" />
    <glyph glyph-name="uni0451" unicode="&#x451;" horiz-adv-x="430" 
d="M395 358q2 -3 2 -7v-1q0 -3 -2 -5l-252 -252q40 -31 91 -32q50 -1 91 28q3 2 6 2t6 -3l33 -28q3 -2 3 -7t-4 -8q-59 -45 -133 -45h-6q-79 2 -138 55q-65 57 -72 145v18q0 76 49 136q54 66 137 77q16 2 31 2q65 0 121 -38q13 -11 20 -18q7 -6 17 -19zM95 151q3 -4 8 -5h2
q3 0 6 3l192 192q3 3 3 7v2q0 5 -5 7q-31 14 -63 14q-16 0 -33 -3q-50 -10 -85 -49q-31 -36 -37 -82q-1 -11 -1 -21q-1 -34 13 -65zM279 494h-46v42q0 18 12 30q11 11 28 12h47v-42q0 -18 -12 -30q-13 -12 -29 -12zM142 578q17 0 29 -12q13 -12 13 -30v-42h-45q-18 0 -30 12
t-12 30v42h45z" />
    <glyph glyph-name="uni0454" unicode="&#x454;" horiz-adv-x="389" 
d="M337 89l31 -26q4 -3 4 -8q0 -4 -4 -7q-25 -20 -53 -31q-29 -11 -59 -14q-10 -1 -20 -1q-45 0 -89 20q-55 23 -91 78q-31 45 -35 100q-1 8 -1 16q0 46 21 89q29 62 83 94q53 31 112 32h1q31 0 61 -9q31 -9 58 -28q1 -1 1 -2t-1 -2q-10 -10 -20 -19l-20 -20q-2 -1 -3 0
q-58 31 -123 10q-66 -21 -95 -91q-5 -12 -8 -24l2 -2q2 -3 5 -3h141q3 0 6 -3q2 -2 2 -5v-26q0 -4 -2 -6q-3 -3 -6 -3h-141q-3 0 -5 -2q-2 -3 -2 -6v-3q4 -23 16 -43q37 -65 103 -78q67 -13 119 23q3 2 6 2t6 -2z" />
    <glyph glyph-name="uni0456" unicode="&#x456;" horiz-adv-x="144" 
d="M53 3q-4 0 -7 2q-2 3 -2 7v413q0 4 3 7t7 3h41q4 0 7 -3t3 -7v-413q0 -4 -3 -7q-2 -2 -6 -2h-43zM83 494h-42v42q0 18 12 30t30 12q17 0 30 -12q12 -13 12 -30t-12 -29q-12 -13 -30 -13z" />
    <glyph glyph-name="uni0457" unicode="&#x457;" horiz-adv-x="225" 
d="M91 1q-4 0 -6 2q-3 2 -3 6v412q0 4 3 7t7 3h41q4 0 7 -3t3 -7v-412q0 -4 -3 -6q-2 -2 -6 -2h-43zM175 578h45v-42q0 -18 -12 -30t-30 -12h-45v42q0 18 12 30q13 12 30 12zM42 578q17 0 30 -12q12 -12 12 -30v-42h-45q-18 0 -30 12t-12 30v42h45z" />
    <glyph glyph-name="uni045E" unicode="&#x45e;" 
d="M21 215v205q0 4 2 7q3 3 8 3h35q4 0 7 -3t3 -7v-205q0 -63 40 -109q41 -45 98 -45t97 46q41 45 40 109v208q1 3 4 4q2 2 5 2h36q4 0 7 -3t3 -7v-499q0 -88 -57 -152t-137 -64h-1q-78 1 -134 61q-55 59 -59 144q0 5 3 8q2 2 6 2q13 1 38 0q4 0 7 -3q2 -3 2 -6
q3 -59 43 -102q40 -42 96 -42q57 0 98 44q40 45 40 108v145l-1 -1q-57 -63 -137 -63q-79 0 -136 63q-56 63 -56 152zM122 551l-1 15q0 8 1 15q18 -2 24 -6q6 -29 25 -48q18 -19 41 -19t41 19q19 19 25 48q8 5 24 6q1 -7 1 -15l-1 -15q-6 -37 -36 -60q-25 -19 -54 -19t-54 19
q-30 23 -36 60z" />
    <glyph glyph-name="uni0490" unicode="&#x490;" horiz-adv-x="452" 
d="M418 678h-326q-5 0 -8 -3q-4 -4 -4 -9v-658q0 -6 -4 -9q-4 -4 -9 -4h-34q-5 0 -9 4q-3 3 -3 9v718q0 5 3 9q4 3 9 3h346q4 1 7 4q4 4 4 9v144q0 6 4 9q3 4 9 4h36q5 0 9 -4q4 -3 4 -9v-191q0 -26 -34 -26z" />
    <glyph glyph-name="uni0491" unicode="&#x491;" horiz-adv-x="335" 
d="M175 431q3 0 6 -2q2 -3 2 -7v-5q2 -48 36 -83q36 -36 87 -40q3 0 5 -3q2 -2 2 -5v-36q0 -4 -3 -7q-2 -2 -6 -2q-72 4 -121 56v-115q-1 -73 -52 -125q-50 -53 -122 -57q-4 0 -6 2q-3 3 -3 7v36q0 3 2 5q2 3 5 3q51 4 87 41q35 37 36 88v240q0 4 3 7q2 2 6 2h36z" />
    <glyph glyph-name="uni04C1" unicode="&#x4c1;" horiz-adv-x="996" 
d="M476 12v329q0 2 -1 4t-3 4l-51 60q-4 4 -10 4t-10 -5q-198 -269 -297 -403q-2 -2 -5 -4q-2 -1 -5 -1h-48q-8 0 -12 7q-1 3 -1 6q0 4 3 7q217 295 326 442q2 4 2 8t-3 8q-101 117 -152 175q-5 6 -2 14q4 7 12 7h51q3 0 5 -1l4 -4q117 -134 175 -201q6 -7 14 -4q7 2 8 9
v189q0 5 4 8q4 4 10 4h35q6 0 10 -4q4 -3 4 -8v-186q0 -9 8 -12t14 4q58 67 175 201l4 4q2 1 5 1h51q8 0 12 -7q3 -8 -2 -14q-51 -58 -152 -175q-3 -4 -3 -8t2 -8q109 -147 326 -442q3 -3 3 -7q0 -3 -1 -6q-4 -7 -12 -7h-48q-3 0 -5 1q-3 2 -5 4q-99 134 -297 403
q-4 5 -10 5t-10 -4l-51 -60q-2 -2 -3 -4t-1 -4v-329q0 -5 -4 -8q-4 -4 -10 -4h-35q-6 0 -10 4q-4 3 -4 8zM418 839l-1 15q0 8 1 15q18 -2 24 -6q6 -29 25 -48q18 -19 41 -19t41 19q19 19 25 48q8 5 24 6q1 -7 1 -15l-1 -15q-6 -37 -36 -60q-25 -19 -54 -19t-54 19
q-30 23 -36 60z" />
    <glyph glyph-name="uni04C2" unicode="&#x4c2;" horiz-adv-x="744" 
d="M401 11q0 -5 -3 -8t-7 -3h-42q-5 0 -8 3q-2 3 -2 8v136q-1 1 -1 2t-1 3q-43 53 -65 80q-3 3 -7 3q-5 0 -8 -3q-114 -153 -171 -229q-1 -2 -3 -3t-4 -1h-53q-6 0 -9 5q-1 2 -1 4q0 4 2 7q135 179 202 269q2 3 2 6q0 4 -2 6q-63 78 -95 117q-4 5 -1 11q2 5 8 5h46q3 0 4 -1
q2 -1 4 -3q90 -107 136 -160q4 -5 11 -3q6 2 6 9v147q0 5 2 8q3 3 8 3h42q4 0 7 -3t3 -8v-147q0 -7 6 -9q7 -2 11 3q45 53 135 160q2 2 4 3q1 1 4 1h46q6 0 8 -5q3 -6 -1 -11q-32 -39 -95 -117q-2 -2 -2 -6q0 -3 2 -6q67 -90 202 -269q2 -3 2 -7q0 -2 -1 -4q-3 -5 -9 -5h-53
q-2 0 -4 1t-3 3q-57 76 -171 229q-3 3 -8 3q-4 0 -7 -3q-22 -27 -64 -80q-1 -2 -1 -3q-1 -1 -1 -3v-135zM280 551l-1 15q0 8 1 15q18 -2 24 -6q6 -29 25 -48q18 -19 41 -19t41 19q19 19 25 48q8 5 24 6q1 -7 1 -15l-1 -15q-6 -37 -36 -60q-25 -19 -54 -19t-54 19
q-30 23 -36 60z" />
    <glyph glyph-name="uni0218" unicode="&#x218;" horiz-adv-x="492" 
d="M232 -2h-15q-7 0 -14 1q-46 4 -92 20q-46 17 -93 45q-4 3 -5 8v3q0 3 2 6q6 11 20 32q3 4 8 6q5 1 9 -2q98 -59 170 -57q72 3 118 20q27 10 51 51q25 41 -4 123q-7 21 -38 43q-30 21 -68 41q-21 11 -41 21q-21 10 -41 19q-31 15 -60 29t-48 28q-31 21 -46 52
q-16 32 -15 73q0 27 5 46q5 20 6 23t5 12t14 22q16 22 52 48q37 25 102 30q16 1 31 1q60 0 105 -21q56 -26 77 -41q4 -3 4 -9q1 -5 -3 -9q-4 -5 -12 -14q-4 -5 -13 -15q-3 -4 -8 -5q-4 0 -8 3q-17 12 -61 32q-45 21 -107 16q-45 -4 -70 -20q-26 -16 -37 -31q-6 -7 -9 -13
q-2 -6 -3 -7l-1 -1q0 -2 -5 -23q-6 -22 -1 -48q3 -13 10 -26q8 -13 22 -23q17 -12 44 -25t56 -27q73 -34 138 -71q64 -38 82 -89q14 -37 16 -75q1 -9 1 -18q0 -27 -6 -51q-9 -40 -34 -68t-62 -42q-32 -11 -64 -17t-64 -6zM205 -124v80h33q13 0 22 -8q10 -9 12 -21v-84h-34
q-14 0 -24 9q-9 10 -9 24z" />
    <glyph glyph-name="uni0219" unicode="&#x219;" horiz-adv-x="287" 
d="M139 0q-30 0 -60 9t-59 26q-5 3 -6 8q-1 2 -1 3q0 3 2 7q6 9 18 28q3 4 8 5q4 1 9 -1q48 -28 83 -27q36 1 61 11q25 9 26 36q0 27 -6 45q-5 15 -39 32q-34 18 -59 30q-18 8 -34 16q-17 8 -28 16q-19 13 -29 33t-10 45q0 16 3 27q3 12 4 15q6 17 31 41t75 28q9 1 18 1
q32 0 57 -10q31 -13 46 -23q5 -3 5 -9q1 -5 -2 -9q-4 -4 -11 -12q-4 -5 -12 -14q-2 -3 -7 -4q-4 0 -8 2q-11 6 -32 15q-21 8 -49 6q-32 -3 -43 -16q-12 -12 -13 -15v-2q0 -1 -4 -21q-3 -20 14 -32q9 -6 23 -13q15 -7 31 -14q42 -20 79 -42q38 -22 49 -54q10 -29 10 -55
q0 -21 -7 -41q-15 -43 -57 -58q-20 -6 -39 -10q-19 -3 -37 -3zM113 -124v80h33q13 0 22 -8q10 -9 12 -21v-84h-34q-14 0 -24 9q-9 10 -9 24z" />
    <glyph glyph-name="uni021A" unicode="&#x21a;" horiz-adv-x="452" 
d="M428 728v-39q0 -6 -4 -9q-4 -4 -9 -4h-144q-5 0 -9 -4q-4 -3 -4 -9v-654q0 -6 -4 -9q-3 -4 -9 -4h-39q-5 0 -9 4q-3 3 -3 9v654q0 6 -4 9q-4 4 -9 4h-144q-6 0 -9 4q-4 3 -4 9v39q0 5 4 9q3 4 9 4h377q6 0 9 -4q4 -4 5 -9zM193 -124v80h33q13 0 22 -8q10 -9 12 -21v-84
h-34q-14 0 -24 9q-9 10 -9 24z" />
    <glyph glyph-name="uni021B" unicode="&#x21b;" horiz-adv-x="349" 
d="M166 710v-213h76q1 0 3 1h36v-33q0 -14 -9 -23q-10 -10 -23 -10h-83v-219q2 -62 46 -106t106 -44q13 -1 22 -10t9 -22v-21q0 -4 -3 -7t-7 -3h-21q-87 1 -149 63t-64 149v220h-106v31q0 10 5 19q6 10 15 14q5 2 10 2t9 -1h67v244h30q13 0 22 -9t9 -22zM125 -124v80h33
q13 0 22 -8q10 -9 12 -21v-84h-34q-14 0 -24 9q-9 10 -9 24z" />
    <glyph glyph-name="Abreve" unicode="&#x102;" horiz-adv-x="595" 
d="M574 412v-400q0 -5 -4 -8q-3 -4 -8 -4h-38q-5 0 -8 4q-4 3 -4 8v145h-426v-143q0 -5 -3 -8q-4 -4 -9 -4h-37q-5 0 -8 4q-4 3 -4 8v401q0 2 1 15q0 13 3 34q6 38 25 94q20 55 66 101q36 35 83 56t104 21t101 -22q44 -23 79 -58q23 -24 39 -52q15 -27 25 -55q18 -51 20 -91
q3 -40 3 -46zM512 413q0 1 -1 35q-2 33 -16 76q-8 23 -21 46q-13 24 -32 44q-26 27 -60 44q-35 17 -80 17q-42 -1 -77 -17q-36 -17 -62 -43q-20 -20 -33 -44q-14 -23 -22 -46q-16 -43 -19 -76t-3 -34v-202h426v200zM210 839l-1 15q0 8 1 15q18 -2 24 -6q6 -29 25 -48
q18 -19 41 -19t41 19q19 19 25 48q8 5 24 6q1 -7 1 -15l-1 -15q-6 -37 -36 -60q-25 -19 -54 -19t-54 19q-30 23 -36 60z" />
    <glyph glyph-name="abreve" unicode="&#x103;" horiz-adv-x="492" 
d="M458 211v-201q0 -5 -3 -7q-3 -3 -7 -3h-201q-85 0 -149 60t-67 145v8q0 56 26 103q29 51 77 80q26 16 56 24q26 7 54 7h9q84 -4 144 -68q61 -64 61 -148zM397 70v141q0 62 -42 107q-43 46 -105 48h-5q-63 0 -108 -45t-45 -108v-5q2 -62 47 -105q46 -43 108 -43h141
q3 0 6 3t3 7zM155 546l-1 15q0 8 1 15q18 -2 24 -6q6 -29 25 -48q18 -19 41 -19t41 19q19 19 25 48q8 5 24 6q1 -7 1 -15l-1 -15q-6 -37 -36 -60q-25 -19 -54 -19t-54 19q-30 23 -36 60z" />
    <glyph glyph-name="Aogonek" unicode="&#x104;" horiz-adv-x="595" 
d="M574 412v-486q0 -33 -23 -56q-24 -24 -57 -24h-79v84q0 33 23 57q23 23 56 23h18v147h-426v-143q0 -5 -3 -8q-4 -4 -9 -4h-37q-5 0 -8 4q-4 3 -4 8v401q0 2 1 15q0 13 3 34q6 38 25 94q20 55 66 101q36 35 83 56t104 21t101 -22q44 -23 79 -58q23 -24 39 -52
q15 -27 25 -55q18 -51 20 -91q3 -40 3 -46zM512 413q0 1 -1 35q-2 33 -16 76q-8 23 -21 46q-13 24 -32 44q-26 27 -60 44q-35 17 -80 17q-42 -1 -77 -17q-36 -17 -62 -43q-20 -20 -33 -44q-14 -23 -22 -46q-16 -43 -19 -76t-3 -34v-202h426v200z" />
    <glyph glyph-name="aogonek" unicode="&#x105;" horiz-adv-x="492" 
d="M458 211v-201q0 -3 -1 -5h1v-54q0 -22 -16 -38t-38 -16h-58v54q0 23 15 38q7 7 15 11h-129q-85 0 -149 60t-67 145v8q0 56 26 103q29 51 77 80q26 16 56 24q26 7 54 7h9q84 -4 144 -68q61 -64 61 -148zM397 70v141q0 62 -42 107q-43 46 -105 48h-5q-63 0 -108 -45
t-45 -108v-5q2 -62 47 -105q46 -43 108 -43h141q3 0 6 3t3 7z" />
    <glyph glyph-name="Cacute" unicode="&#x106;" horiz-adv-x="677" 
d="M649 100q-50 -47 -115 -73q-66 -27 -139 -27q-54 0 -104 15q-50 14 -93 41q-80 50 -129 134q-48 84 -48 184q0 55 14 105q15 50 42 92q49 80 133 129t185 49q68 0 129 -23q62 -24 110 -64q-15 -16 -45 -46q-41 32 -90 51q-50 18 -105 18q-83 0 -153 -40
q-69 -41 -110 -107q-22 -35 -35 -77q-12 -41 -12 -86q0 -83 41 -153q40 -69 106 -111q35 -22 77 -34q41 -12 86 -12q61 0 114 21q54 22 95 60zM341 861h45v-40q0 -16 -11 -28q-12 -12 -29 -12h-43v40q0 17 11 29q11 10 27 11z" />
    <glyph glyph-name="cacute" unicode="&#x107;" horiz-adv-x="389" 
d="M337 89q4 -3 11 -9q8 -6 11 -9q4 -4 9 -8q4 -3 4 -8q0 -4 -4 -7q-25 -20 -53 -31q-29 -11 -59 -14q-10 -1 -20 -1q-45 0 -89 20q-55 23 -91 78q-31 45 -35 100q-1 8 -1 16q0 46 21 89q29 62 83 94q53 31 112 32h1q31 0 61 -9q31 -9 58 -28q1 -1 1 -2t-1 -2
q-10 -10 -20 -19l-20 -20q-2 -1 -3 0q-58 31 -123 10q-66 -21 -95 -91q-12 -30 -10 -64q2 -33 18 -62q37 -65 103 -78q67 -13 119 23q3 2 6 2t6 -2zM162 494v41q0 17 12 29t29 12h45v-41q0 -17 -12 -29t-29 -12h-45z" />
    <glyph glyph-name="Ccaron" unicode="&#x10c;" horiz-adv-x="677" 
d="M649 100q-50 -47 -115 -73q-66 -27 -139 -27q-54 0 -104 15q-50 14 -93 41q-80 50 -129 134q-48 84 -48 184q0 55 14 105q15 50 42 92q49 80 133 129t185 49q68 0 129 -23q62 -24 110 -64q-15 -16 -45 -46q-41 32 -90 51q-50 18 -105 18q-83 0 -153 -40
q-69 -41 -110 -107q-22 -35 -35 -77q-12 -41 -12 -86q0 -83 41 -153q40 -69 106 -111q35 -22 77 -34q41 -12 86 -12q61 0 114 21q54 22 95 60zM426 853v-1q0 -6 -3 -10l-78 -78q-4 -4 -9 -4q-4 0 -8 4l-81 80q-3 3 -3 8t5 10t11 5q6 1 11 -3l57 -57q3 -3 8 -3q4 0 8 3
q37 37 58 59q3 3 8 3t10.5 -5t5.5 -11z" />
    <glyph glyph-name="ccaron" unicode="&#x10d;" horiz-adv-x="389" 
d="M337 89q4 -3 11 -9q8 -6 11 -9q4 -4 9 -8q4 -3 4 -8q0 -4 -4 -7q-25 -20 -53 -31q-29 -11 -59 -14q-10 -1 -20 -1q-45 0 -89 20q-55 23 -91 78q-31 45 -35 100q-1 8 -1 16q0 46 21 89q29 62 83 94q53 31 112 32h1q31 0 61 -9q31 -9 58 -28q1 -1 1 -2t-1 -2
q-10 -10 -20 -19l-20 -20q-2 -1 -3 0q-58 31 -123 10q-66 -21 -95 -91q-12 -30 -10 -64q2 -33 18 -62q37 -65 103 -78q67 -13 119 23q3 2 6 2t6 -2zM287 564v-1q0 -5 -3 -9l-78 -79q-4 -3 -8 -3q-5 0 -9 3l-81 81q-3 3 -3 7q0 5 3 8l3 3q4 4 11 5q6 0 10 -4l57 -56
q4 -4 8 -4q5 0 8 4l59 58q3 3 7 3q5 0 8 -3l3 -3q5 -4 5 -10z" />
    <glyph glyph-name="Dcaron" unicode="&#x10e;" horiz-adv-x="615" 
d="M593 364q0 -99 -47 -181q-47 -83 -124 -132q-42 -27 -91 -42q-48 -15 -101 -17h-168q-5 0 -9 4q-3 4 -3 9v719q0 5 3 9q4 3 9 3h168q53 -1 101 -16q49 -15 90 -42q78 -50 125 -132q47 -83 47 -182zM226 672h-100q-6 0 -9 -3q-4 -4 -4 -9v-592q0 -5 4 -9q3 -3 9 -3h100
q44 0 85 13q40 13 75 35q65 41 104 109q39 69 39 151q0 44 -12 85t-33 76q-40 65 -108 106q-68 40 -150 41zM321 853v-1q0 -6 -3 -10l-78 -78q-4 -4 -9 -4q-4 0 -8 4l-81 80q-3 3 -3 8t5 10t11 5q6 1 11 -3l57 -57q3 -3 8 -3q4 0 8 3q37 37 58 59q3 3 8 3t10.5 -5t5.5 -11z
" />
    <glyph glyph-name="dcaron" unicode="&#x10f;" horiz-adv-x="558" 
d="M472 658v80h33q13 0 22 -8q10 -9 12 -21v-84h-34q-14 0 -24 9q-9 10 -9 24zM391 69v150q0 3 -1 6v3q-6 59 -50 99q-43 41 -104 41q-64 0 -110 -46q-44 -45 -44 -108v-3q1 -64 47 -108t110 -44h142q4 0 7 3t3 7zM452 9q0 -4 -3 -7t-8 -3h-205q-90 0 -154 64
q-61 62 -62 150v4q2 89 66 151t152 61q38 -1 73 -14q34 -13 62 -36q5 -4 11 -1q5 2 5 9v322q0 12 9 21t22 9h32v-730z" />
    <glyph glyph-name="Dcroat" unicode="&#x110;" horiz-adv-x="720" 
d="M155 333h-105v25q0 19 8 27l4 4q7 6 16 7h77v328q0 5 3 9q4 3 9 3h168q53 -1 101 -16q49 -15 90 -42q78 -50 125 -132q47 -83 47 -182t-47 -181q-47 -83 -124 -132q-42 -27 -91 -42q-48 -15 -101 -17h-168q-5 0 -9 4q-3 4 -3 9v328zM331 672h-100q-6 0 -9 -3q-4 -4 -4 -9
v-264h105v-15q-1 -9 0 -16q0 -13 -9 -22q-2 -2 -4 -3q-8 -6 -19 -7h-73v-265q0 -5 4 -9q3 -3 9 -3h100q44 0 85 13q40 13 75 35q65 41 104 109q39 69 39 151q0 44 -12 85t-33 76q-40 65 -108 106q-68 40 -150 41z" />
    <glyph glyph-name="dcroat" unicode="&#x111;" horiz-adv-x="598" 
d="M452 9q0 -4 -3 -7t-8 -3h-205q-90 0 -154 64q-61 62 -62 150v4q2 89 66 151t152 61q38 -1 73 -14q34 -13 62 -36q5 -4 11 -1q5 2 5 9v229h-105v25q0 18 8 26l4 4q7 6 16 7h77v31q0 12 9 21t22 9h32v-61h105v-15q-1 -9 0 -16q0 -12 -9 -21q-2 -2 -4 -3q-8 -6 -19 -7h-73
v-607zM391 69v150q0 3 -1 6v3q-6 59 -50 99q-43 41 -104 41q-64 0 -110 -46q-44 -45 -44 -108v-3q1 -64 47 -108t110 -44h142q4 0 7 3t3 7z" />
    <glyph glyph-name="Ecaron" unicode="&#x11a;" horiz-adv-x="472" 
d="M439 0h-403q-5 0 -8 4q-4 3 -4 8v715q0 5 4 9q3 3 8 3h403q5 0 9 -4q3 -4 3 -9v-34q0 -5 -3 -8q-4 -4 -9 -4h-344q-5 0 -9 -4q-3 -3 -3 -9v-221q0 -5 3 -9q4 -3 9 -3h248q5 0 8 -4q4 -4 4 -9v-34q0 -5 -4 -8q-3 -4 -8 -4h-248q-5 0 -9 -4q-3 -3 -3 -9v-306h356q5 0 9 -3
q3 -4 3 -9v-32q0 -5 -3 -8q-4 -4 -9 -4zM328 853v-1q0 -6 -3 -10l-78 -78q-4 -4 -9 -4q-4 0 -8 4l-81 80q-3 3 -3 8t5 10t11 5q6 1 11 -3l57 -57q3 -3 8 -3q4 0 8 3q37 37 58 59q3 3 8 3t10.5 -5t5.5 -11z" />
    <glyph glyph-name="ecaron" unicode="&#x11b;" horiz-adv-x="430" 
d="M395 358q2 -3 2 -7v-1q0 -3 -2 -5l-252 -252q40 -31 91 -32q50 -1 91 28q3 2 6 2t6 -3l33 -28q3 -2 3 -7t-4 -8q-59 -45 -133 -45h-6q-79 2 -138 55q-65 57 -72 145v18q0 76 49 136q54 66 137 77q16 2 31 2q65 0 121 -38q13 -11 20 -18q7 -6 17 -19zM95 151q3 -4 8 -5h2
q3 0 6 3l192 192q3 3 3 7v2q0 5 -5 7q-31 14 -63 14q-16 0 -33 -3q-50 -10 -85 -49q-31 -36 -37 -82q-1 -11 -1 -21q-1 -34 13 -65zM300 564v-1q0 -5 -3 -9l-78 -79q-4 -3 -8 -3q-5 0 -9 3l-81 81q-3 3 -3 7q0 5 3 8l3 3q4 4 11 5q6 0 10 -4l57 -56q4 -4 8 -4q5 0 8 4l59 58
q3 3 7 3q5 0 8 -3l3 -3q5 -4 5 -10z" />
    <glyph glyph-name="dotlessi" unicode="&#x131;" horiz-adv-x="144" 
d="M83 490h-42v42q0 18 12 30t30 12q17 0 30 -12q12 -13 12 -30t-12 -29q-12 -13 -30 -13zM53 3q-4 0 -7 2q-2 3 -2 7v413q0 4 3 7t7 3h41q4 0 7 -3t3 -7v-413q0 -4 -3 -7q-2 -2 -6 -2h-43z" />
    <glyph glyph-name="Lslash" unicode="&#x141;" horiz-adv-x="423" 
d="M72 248l-18 18q-13 13 -13 24q0 3 1 5q0 10 6 17l67 67v352h31q13 0 23 -10q8 -8 9 -19v-260l43 43l11 -11q5 -7 11 -11q9 -9 9 -21q0 -3 -1 -5q-2 -10 -9 -19l-64 -64v-164q0 -3 3 -23q4 -20 15 -43q14 -30 37 -45t56 -16h77q11 -1 23 -8q13 -8 14 -20v-34h-116
q-51 2 -88 27q-38 24 -61 71q-15 33 -19 61q-4 27 -4 28v103z" />
    <glyph glyph-name="lslash" unicode="&#x142;" horiz-adv-x="342" 
d="M58 248l-18 18q-13 13 -13 24q0 3 1 5q0 10 6 17l69 69v352h30q13 0 22 -9t9 -22v-260l43 43l11 -11q5 -7 11 -11q9 -9 9 -21q0 -3 -1 -5q-2 -10 -9 -19l-64 -64v-144q1 -61 45 -104q44 -44 105 -45q13 0 21 -9q9 -9 9 -21v-21q0 -4 -2 -7q-3 -3 -8 -3h-20q-87 1 -148 62
q-62 62 -63 148v83z" />
    <glyph glyph-name="Nacute" unicode="&#x143;" horiz-adv-x="657" 
d="M623 -5h-37q-5 0 -8 4q-4 3 -4 8v401l-1 34q-2 33 -16 76q-8 23 -21 47q-13 23 -32 43q-30 31 -72 47t-95 16q-52 -1 -94 -16q-41 -16 -71 -46q-20 -20 -34 -44q-13 -23 -22 -46q-16 -43 -18 -76l-3 -33v-401q0 -5 -4 -8q-3 -4 -8 -4h-37q-5 0 -9 4q-3 3 -3 8v401
q0 3 3 42q3 40 23 92q10 27 27 55t41 53q40 40 92 59q52 20 117 20q66 0 119 -20q53 -21 92 -61q24 -24 40 -52q15 -28 25 -55q18 -50 20 -90q2 -36 2 -45v-400q0 -6 -3 -9q-4 -4 -9 -4zM340 861h45v-40q0 -16 -11 -28q-12 -12 -29 -12h-43v40q0 17 11 29q11 10 27 11z" />
    <glyph glyph-name="nacute" unicode="&#x144;" 
d="M408 215v-204q0 -5 -2 -8q-3 -2 -7 -2q-12 -1 -36 -1q-4 0 -7 3t-3 7v204q0 63 -40 108t-97 45t-97 -45t-40 -108v-207q-2 -3 -4 -5q-2 -1 -5 -1h-36q-4 0 -7 2q-3 3 -3 8v204q0 88 56 150q56 63 136 63q79 0 135 -63q57 -62 57 -150zM182 494v41q0 17 12 29t29 12h45
v-41q0 -17 -12 -29t-29 -12h-45z" />
    <glyph glyph-name="Ncaron" unicode="&#x147;" horiz-adv-x="657" 
d="M623 -5h-37q-5 0 -8 4q-4 3 -4 8v401l-1 34q-2 33 -16 76q-8 23 -21 47q-13 23 -32 43q-30 31 -72 47t-95 16q-52 -1 -94 -16q-41 -16 -71 -46q-20 -20 -34 -44q-13 -23 -22 -46q-16 -43 -18 -76l-3 -33v-401q0 -5 -4 -8q-3 -4 -8 -4h-37q-5 0 -9 4q-3 3 -3 8v401
q0 3 3 42q3 40 23 92q10 27 27 55t41 53q40 40 92 59q52 20 117 20q66 0 119 -20q53 -21 92 -61q24 -24 40 -52q15 -28 25 -55q18 -50 20 -90q2 -36 2 -45v-400q0 -6 -3 -9q-4 -4 -9 -4zM426 853v-1q0 -6 -3 -10l-78 -78q-4 -4 -9 -4q-4 0 -8 4l-81 80q-3 3 -3 8t5 10t11 5
q6 1 11 -3l57 -57q3 -3 8 -3q4 0 8 3q37 37 58 59q3 3 8 3t10.5 -5t5.5 -11z" />
    <glyph glyph-name="ncaron" unicode="&#x148;" 
d="M408 215v-204q0 -5 -2 -8q-3 -2 -7 -2q-12 -1 -36 -1q-4 0 -7 3t-3 7v204q0 63 -40 108t-97 45t-97 -45t-40 -108v-207q-2 -3 -4 -5q-2 -1 -5 -1h-36q-4 0 -7 2q-3 3 -3 8v204q0 88 56 150q56 63 136 63q79 0 135 -63q57 -62 57 -150zM307 564v-1q0 -5 -3 -9l-78 -79
q-4 -3 -8 -3q-5 0 -9 3l-81 81q-3 3 -3 7q0 5 3 8l3 3q4 4 11 5q6 0 10 -4l57 -56q4 -4 8 -4q5 0 8 4l59 58q3 3 7 3q5 0 8 -3l3 -3q5 -4 5 -10z" />
    <glyph glyph-name="OE" unicode="&#x152;" horiz-adv-x="838" 
d="M802 0h-382q-15 -1 -30 -1q-52 0 -100 15q-48 14 -90 39q-76 48 -123 129q-47 80 -47 177q0 52 14 100q15 48 40 89q48 76 129 123q80 47 177 47v8q0 5 4 9q3 3 8 3h402q5 0 9 -4t4 -9v-34q0 -5 -4 -8q-4 -4 -9 -4h-343q-5 0 -9 -4q-3 -3 -3 -9v-220q0 -6 3 -9q4 -4 9 -4
h247q5 0 9 -4q4 -3 4 -8v-34q0 -5 -4 -9t-9 -4h-247q-5 0 -9 -3q-3 -4 -3 -9v-306h353q6 0 9 -4q4 -3 4 -9v-31q0 -5 -4 -8q-3 -4 -9 -4zM310 644q-40 -12 -74 -33q-64 -39 -102 -106q-39 -67 -39 -147q0 -43 12 -83q11 -40 32 -74q40 -64 107 -102q65 -39 144 -39v596
q-43 -1 -80 -12z" />
    <glyph glyph-name="oe" unicode="&#x153;" horiz-adv-x="801" 
d="M766 358q2 -3 2 -7v-1q0 -3 -2 -5l-252 -252q40 -31 91 -32q50 -1 91 28q3 2 6 2t6 -3l2 -2q9 -7 16 -13q6 -5 15 -13q3 -2 3 -7t-4 -8q-59 -45 -133 -45h-6q-79 2 -138 55q-26 22 -43 49q-13 -21 -32 -40q-62 -63 -151 -63q-88 0 -151 63q-62 63 -62 151q0 89 62 151
q63 63 151 63t151 -63q19 -19 32 -40q9 14 20 28q54 66 137 77q16 2 31 2q65 0 121 -38l6 -5q7 -6 14 -13q7 -6 12 -12zM237 369q-64 0 -109 -45t-45 -109q0 -63 46 -109q45 -45 108 -45q64 0 109 45q42 43 45 102v7q0 64 -45 109t-109 45zM466 151q3 -4 8 -5h2q3 0 6 3
l192 192q3 3 3 7q1 1 0 2q0 5 -5 7q-31 14 -63 14q-16 0 -33 -3q-50 -10 -85 -49q-31 -36 -37 -82q-1 -11 -1 -21q-1 -34 13 -65z" />
    <glyph glyph-name="Rcaron" unicode="&#x158;" horiz-adv-x="513" 
d="M476 -6h-47q-3 0 -6 2q-4 2 -5 5l-144 294h-180q-4 0 -7 -3t-3 -7v-262q0 -13 -8 -22q-9 -9 -21 -10h-34v523q0 91 64 157t155 67h6q91 -1 155 -66q64 -66 62 -158q-1 -38 -14 -73t-35 -63q-8 -8 -12.5 -13t-28.5 -26l-1 -1q-8 -7 -17 -12t-18 -9q50 -102 150 -304
q2 -3 2 -6q0 -4 -2 -7q-4 -6 -11 -6zM401 518q0 66 -47 113q-47 46 -112 46h-2q-65 -1 -110 -48q-46 -48 -46 -114v-146q0 -4 3 -7t7 -3h149q65 0 111 47q47 46 47 112zM346 853v-1q0 -6 -3 -10l-78 -78q-4 -4 -9 -4q-4 0 -8 4l-81 80q-3 3 -3 8t5 10t11 5q6 1 11 -3l57 -57
q3 -3 8 -3q4 0 8 3q37 37 58 59q3 3 8 3t10.5 -5t5.5 -11z" />
    <glyph glyph-name="rcaron" unicode="&#x159;" horiz-adv-x="266" 
d="M98 63v-51q0 -4 -3 -7t-7 -3h-42q-4 0 -7 3t-3 7v205q0 83 55 143q56 61 136 69h2q3 0 6 -2q3 -3 3 -7v-42q0 -3 -2 -6q-3 -3 -7 -3q-56 -8 -94 -51t-38 -101v-154h1zM228 564v-1q0 -5 -3 -9l-78 -79q-4 -3 -8 -3q-5 0 -9 3l-81 81q-3 3 -3 7q0 5 3 8l3 3q4 4 11 5
q6 0 10 -4l57 -56q4 -4 8 -4q5 0 8 4l59 58q3 3 7 3q5 0 8 -3l3 -3q5 -4 5 -10z" />
    <glyph glyph-name="Sacute" unicode="&#x15a;" horiz-adv-x="492" 
d="M232 -2h-15q-7 0 -14 1q-46 4 -92 20q-46 17 -93 45q-4 3 -5 8v3q0 3 2 6q6 11 20 32q3 4 8 6q5 1 9 -2q98 -59 170 -57q72 3 118 20q27 10 51 51q25 41 -4 123q-7 21 -38 43q-30 21 -68 41q-21 11 -41 21q-21 10 -41 19q-31 15 -60 29t-48 28q-31 21 -46 52
q-16 32 -15 73q0 27 5 46q5 20 6 23t5 12t14 22q16 22 52 48q37 25 102 30q16 1 31 1q60 0 105 -21q56 -26 77 -41q4 -3 4 -9q1 -5 -3 -9q-4 -5 -12 -14q-4 -5 -13 -15q-3 -4 -8 -5q-4 0 -8 3q-17 12 -61 32q-45 21 -107 16q-45 -4 -70 -20q-26 -16 -37 -31q-6 -7 -9 -13
q-2 -6 -3 -7l-1 -1q0 -2 -5 -23q-6 -22 -1 -48q3 -13 10 -26q8 -13 22 -23q17 -12 44 -25t56 -27q73 -34 138 -71q64 -38 82 -89q14 -37 16 -75q1 -9 1 -18q0 -27 -6 -51q-9 -40 -34 -68t-62 -42q-32 -11 -64 -17t-64 -6zM243 861h45v-40q0 -16 -11 -28q-12 -12 -29 -12h-43
v40q0 17 11 29q11 10 27 11z" />
    <glyph glyph-name="sacute" unicode="&#x15b;" horiz-adv-x="287" 
d="M139 0q-30 0 -60 9t-59 26q-5 3 -7 8q-1 3 -0.5 4.5t2.5 5.5q6 9 18 28q3 4 8 5q4 1 9 -1q48 -28 83 -27q36 1 61 11q25 9 26 36q0 27 -6 45q-5 15 -39 32q-34 18 -59 30q-18 8 -34 16q-17 8 -28 16q-19 13 -29 33t-10 45q0 16 3 27q3 12 4 15q6 17 31 41t75 28q9 1 18 1
q32 0 57 -10q31 -13 46 -23q5 -3 5 -9q1 -5 -2 -9q-4 -4 -11 -12q-4 -5 -12 -14q-2 -3 -7 -4q-4 0 -8 2q-11 6 -32 15q-21 8 -49 6q-32 -3 -43 -16q-12 -12 -17 -38q-3 -20 14 -32q9 -6 23 -13q15 -7 31 -14q42 -20 79 -42q38 -22 49 -54q10 -29 10 -55q0 -21 -7 -41
q-15 -43 -57 -58q-20 -6 -39 -10q-19 -3 -37 -3zM112 494v41q0 17 12 29t29 12h45v-41q0 -17 -12 -29t-29 -12h-45z" />
    <glyph glyph-name="Scedilla" unicode="&#x15e;" horiz-adv-x="492" 
d="M203 -1q-46 4 -92 20q-46 17 -93 45q-4 3 -5 8v3q0 3 2 6q6 11 20 32q3 4 8 6q5 1 9 -2q98 -59 170 -57q72 3 118 20q27 10 51 51q25 41 -4 123q-7 21 -38 43q-30 21 -68 41q-21 11 -41 21q-21 10 -41 19q-31 15 -60 29t-48 28q-31 21 -46 52q-16 32 -15 73q0 27 5 46
q5 20 6 23t5 12t14 22q16 22 52 48q37 25 102 30q16 1 31 1q60 0 105 -21q56 -26 77 -41q4 -3 4 -9q1 -5 -3 -9q-4 -5 -12 -14q-4 -5 -13 -15q-3 -4 -8 -5q-4 0 -8 3q-17 12 -61 32q-45 21 -107 16q-45 -4 -70 -20q-26 -16 -37 -31q-6 -7 -9 -13q-2 -6 -3 -7l-1 -1
q0 -2 -5 -23q-6 -22 -1 -48q3 -13 10 -26q8 -13 22 -23q17 -12 44 -25t56 -27q73 -34 138 -71q64 -38 82 -89q14 -37 16 -75q1 -9 1 -18q0 -27 -6 -51q-9 -40 -34 -68t-62 -42q-28 -10 -56 -16q26 -3 46 -22q23 -23 23 -56v-80h-84q-33 0 -56 23q-24 24 -24 57v71z" />
    <glyph glyph-name="scedilla" unicode="&#x15f;" horiz-adv-x="287" 
d="M79 9q-30 9 -59 26q-5 3 -7 8q-1 3 -0.5 4.5t2.5 5.5q6 9 18 28q3 4 8 5q4 1 9 -1q48 -28 83 -27q36 1 61 11q25 9 26 36q0 27 -6 45q-5 15 -39 32q-34 18 -59 30q-18 8 -34 16q-17 8 -28 16q-19 13 -29 33t-10 45q0 16 3 27q3 12 4 15q6 17 31 41t75 28q9 1 18 1
q32 0 57 -10q31 -13 46 -23q5 -3 5 -9q1 -5 -2 -9q-4 -4 -11 -12q-4 -5 -12 -14q-2 -3 -7 -4q-4 0 -8 2q-11 6 -32 15q-21 8 -49 6q-32 -3 -43 -16q-12 -12 -17 -38q-3 -20 14 -32q9 -6 23 -13q15 -7 31 -14q42 -20 79 -42q38 -22 49 -54q10 -29 10 -55q0 -21 -7 -41
q-15 -43 -57 -58q-16 -5 -31 -9q18 -2 31 -15q15 -15 15 -38v-54h-58q-22 0 -38 16t-16 38v50q-20 2 -39 8z" />
    <glyph glyph-name="Scaron" unicode="&#x160;" horiz-adv-x="492" 
d="M232 -2h-15q-7 1 -14 1q-46 4 -92 20q-46 17 -93 45q-4 3 -5 8v3q0 3 2 6q6 11 20 32q3 4 8 6q5 1 9 -2q98 -59 170 -57q72 3 118 20q27 10 51 51q25 41 -4 123q-7 21 -38 43q-30 21 -68 41q-21 11 -41 21q-21 10 -41 19q-31 15 -60 29t-48 28q-31 21 -46 52
q-16 32 -15 73q0 27 5 46q5 20 6 23t5 12t14 22q16 22 52 48q37 25 102 30q16 1 31 1q60 0 105 -21q56 -26 77 -41q4 -3 4 -9q1 -5 -3 -9q-4 -5 -12 -14q-4 -5 -13 -15q-3 -4 -8 -5q-4 0 -8 3q-17 12 -61 32q-45 21 -107 16q-45 -4 -70 -20q-26 -16 -37 -31q-6 -7 -9 -13
q-2 -6 -3 -7l-1 -1q0 -2 -5 -23q-6 -22 -1 -48q3 -13 10 -26q8 -13 22 -23q17 -12 44 -25t56 -27q73 -34 138 -71q64 -38 82 -89q14 -37 16 -75q1 -9 1 -18q0 -27 -6 -51q-9 -40 -34 -68t-62 -42q-32 -11 -64 -17t-64 -6zM329 853v-1q0 -6 -3 -10l-78 -78q-4 -4 -9 -4
q-4 0 -8 4l-81 80q-3 3 -3 8t5 10t11 5q6 1 11 -3l57 -57q3 -3 8 -3q4 0 8 3q37 37 58 59q3 3 8 3t10.5 -5t5.5 -11z" />
    <glyph glyph-name="scaron" unicode="&#x161;" horiz-adv-x="287" 
d="M139 0q-30 0 -60 9t-59 26q-5 3 -7 8q-1 3 -0.5 4.5t2.5 5.5q6 9 18 28q3 4 8 5q4 1 9 -1q48 -28 83 -27q36 1 61 11q25 9 26 36q0 27 -6 45q-5 15 -39 32q-34 18 -59 30q-18 8 -34 16q-17 8 -28 16q-19 13 -29 33t-10 45q0 16 3 27q3 12 4 15q6 17 31 41t75 28q9 1 18 1
q32 0 57 -10q31 -13 46 -23q5 -3 5 -9q1 -5 -2 -9q-4 -4 -11 -12q-4 -5 -12 -14q-2 -3 -7 -4q-4 0 -8 2q-11 6 -32 15q-21 8 -49 6q-32 -3 -43 -16q-12 -12 -17 -38q-3 -20 14 -32q9 -6 23 -13q15 -7 31 -14q42 -20 79 -42q38 -22 49 -54q10 -29 10 -55q0 -21 -7 -41
q-15 -43 -57 -58q-20 -6 -39 -10q-19 -3 -37 -3zM237 564v-1q0 -5 -3 -9l-78 -79q-4 -3 -8 -3q-5 0 -9 3l-81 81q-3 3 -3 7q0 5 3 8l3 3q4 4 11 5q6 0 10 -4l57 -56q4 -4 8 -4q5 0 8 4l59 58q3 3 7 3q5 0 8 -3l3 -3q5 -4 5 -10z" />
    <glyph glyph-name="uni0162" unicode="&#x162;" horiz-adv-x="452" 
d="M281 6q33 0 57 -23q23 -23 23 -56v-80h-84q-33 0 -56 23q-24 24 -24 57v73q-3 3 -3 9v654q0 6 -4 9q-4 4 -9 4h-144q-6 0 -9 4q-4 3 -4 9v39q0 5 4 9q3 4 9 4h377q6 0 9 -4q4 -4 5 -9v-39q0 -6 -4 -9q-4 -4 -9 -4h-144q-5 0 -9 -4q-4 -3 -4 -9v-654q0 -2 -1 -3h24z" />
    <glyph glyph-name="uni0163" unicode="&#x163;" horiz-adv-x="349" 
d="M166 710v-212h115v-33q0 -14 -9 -23q-10 -10 -23 -10h-83v-219q2 -62 46 -106t106 -44q13 -1 22 -10t9 -22v-21q0 -4 -3 -7t-7 -3h-21q-87 1 -149 63t-64 149v220h-106v31q0 10 5 19q6 10 15 14q5 2 10 2h76v243h30q13 0 22 -9t9 -22zM205 5q23 0 39 -16q15 -15 15 -38
v-54h-58q-22 0 -38 16t-16 38v54h58z" />
    <glyph glyph-name="Tcaron" unicode="&#x164;" horiz-adv-x="452" 
d="M428 728v-39q0 -6 -4 -9q-4 -4 -9 -4h-144q-5 0 -9 -4q-4 -3 -4 -9v-654q0 -6 -4 -9q-3 -4 -9 -4h-39q-5 0 -9 4q-3 3 -3 9v654q0 6 -4 9q-4 4 -9 4h-144q-6 0 -9 4q-4 3 -4 9v39q0 5 4 9q3 4 9 4h377q6 0 9 -4q4 -4 5 -9zM317 853v-1q0 -6 -3 -10l-78 -78q-4 -4 -9 -4
q-4 0 -8 4l-81 80q-3 3 -3 8t5 10t11 5q6 1 11 -3l57 -57q3 -3 8 -3q4 0 8 3q37 37 58 59q3 3 8 3t10.5 -5t5.5 -11z" />
    <glyph glyph-name="tcaron" unicode="&#x165;" horiz-adv-x="349" 
d="M166 710v-212h115v-33q0 -14 -9 -23q-10 -10 -23 -10h-83v-219q2 -62 46 -106t106 -44q13 -1 22 -10t9 -22v-21q0 -4 -3 -7t-7 -3h-21q-87 1 -149 63t-64 149v220h-106v31q0 10 5 19q6 10 15 14q5 2 10 2h76v243h30q13 0 22 -9t9 -22zM187 658v80h33q13 0 22 -8
q10 -9 12 -21v-84h-34q-14 0 -24 9q-9 10 -9 24z" />
    <glyph glyph-name="Uring" unicode="&#x16e;" horiz-adv-x="677" 
d="M42 740h38q5 0 9 -4q3 -4 3 -9v-407q0 -1 2 -35q2 -33 16 -77q8 -24 21 -48t33 -44q30 -32 73 -48t97 -16q53 0 95 16q42 15 73 46q20 21 34 44q14 24 22 48q17 43 19 77l3 34v408q0 5 4 9q3 3 8 3h38q5 0 9 -3q3 -4 3 -9v-407q0 -3 -3 -43q-3 -41 -23 -93
q-11 -28 -28 -57q-17 -28 -42 -53q-40 -40 -93 -60q-53 -21 -119 -21q-68 0 -122 21t-93 62q-45 46 -63 101t-23 94q-2 21 -3 35v423q0 5 4 9q3 4 8 4zM346 754q-5 -1 -10 -1q-21 0 -38 13q-21 16 -25 42q-1 5 -1 10q0 21 13 38q16 21 42 25q6 1 11 1q20 0 37 -13
q22 -15 25 -42q1 -5 1 -10q0 -21 -13 -38q-16 -21 -42 -25zM323 828q-3 -5 -3 -10v-3q1 -7 7 -11q4 -3 7.5 -3.5t7.5 0.5t9 6q3 5 3 10v3q-1 7 -7 11q-5 3 -10 4q-1 0 -5.5 -1t-8.5 -6z" />
    <glyph glyph-name="uring" unicode="&#x16f;" 
d="M21 215v205q0 4 2 7q3 3 8 3q11 0 35 1q4 0 7 -3t3 -7v-206q0 -63 40 -109q41 -45 98 -45t97 46q41 45 40 109v208q1 3 4 4q2 2 5 2h36q4 0 7 -3t3 -7v-205q0 -89 -56 -152q-57 -63 -137 -63q-79 0 -136 63q-56 63 -56 152zM213 452q-6 -1 -11 -1q-20 0 -37 13
q-22 16 -25 42q-1 5 -1 11q0 20 12 37q16 21 43 25q5 1 10 1q21 0 38 -13q21 -15 25 -42q1 -5 1 -10q0 -21 -13 -38q-16 -21 -42 -25zM201 533q-7 -1 -12 -7q-3 -4 -3 -10v-3q1 -7 7 -11q4 -3 7.5 -3.5t8 0.5t8.5 6q3 5 3 10v3q-1 7 -7 11q-4 4 -9 4h-3z" />
    <glyph glyph-name="Ydieresis" unicode="&#x178;" horiz-adv-x="677" 
d="M356 0h-39q-5 0 -9 4q-3 3 -3 9v130q-52 4 -96 21q-56 21 -97 63q-25 26 -41 56q-16 29 -26 57q-19 54 -22 96q-2 42 -2 48v245q0 5 3 9q4 3 9 3h39q6 0 9 -3q4 -4 4 -9v-247l2 -35q1 -35 17 -80q8 -25 21 -50q13 -24 34 -45q31 -33 75 -50q45 -16 101 -16q54 0 98 16
t76 48q21 21 35 46t23 49q17 45 20 80q3 34 3 35v246q0 5 3 9q4 4 9 4h39q6 0 9 -4q4 -4 4 -9v-245q0 -4 -4 -46q-3 -42 -24 -95q-11 -30 -28 -59q-18 -30 -44 -56q-41 -41 -96 -62q-41 -16 -89 -20v-130q0 -6 -4 -9q-3 -4 -9 -4zM407 781h-45v42q0 18 12 30q13 12 30 12h45
v-42q0 -17 -12 -30q-13 -12 -30 -12zM301 853q12 -12 12 -30v-42h-45q-18 0 -30 12q-12 13 -12 30v42h46q16 -1 29 -12z" />
    <glyph glyph-name="Zacute" unicode="&#x179;" horiz-adv-x="595" 
d="M539 0h-519q-8 0 -12 6q-2 3 -2 6t3 6q150 215 451 646q4 5 1 11t-10 6h-338q-5 0 -8 4q-4 3 -4 8v36q0 5 4 8q3 4 8 4h448q7 0 10 -6q2 -3 2 -6q-1 -3 -3 -6q-149 -215 -446 -646q-5 -5 -1 -12q3 -6 10 -6h404q5 0 9 -3q3 -3 3 -8v-36q0 -5 -3 -9q-3 -3 -7 -3zM296 861
h45v-40q0 -16 -11 -28q-12 -12 -29 -12h-43v40q0 17 11 29q11 10 27 11z" />
    <glyph glyph-name="zacute" unicode="&#x17a;" horiz-adv-x="379" 
d="M333 0h-316q-5 0 -8 5q-1 1 -1 3q0 3 2 5q82 118 245 353q3 4 1 9q-3 4 -8 4h-158q-4 0 -7 3q-2 2 -2 6v34q0 3 2 6q3 3 7 3h257q5 0 7 -5q1 -2 1 -3q1 -3 -1 -6q-82 -117 -246 -352q-3 -4 0 -9q2 -4 7 -4h217q3 0 6 -3t3 -6v-35q0 -3 -2 -6q-3 -2 -6 -2zM148 494v41
q0 17 12 29t29 12h45v-41q0 -17 -12 -29t-29 -12h-45z" />
    <glyph glyph-name="Zdotaccent" unicode="&#x17b;" horiz-adv-x="595" 
d="M539 0h-519q-8 0 -12 6q-2 3 -2 6t3 6q150 215 451 646q4 5 1 11t-10 6h-338q-5 0 -8 4q-4 3 -4 8v36q0 5 4 8q3 4 8 4h448q7 0 10 -6q2 -3 2 -6q-1 -3 -3 -6q-149 -215 -446 -646q-5 -5 -1 -12q3 -6 10 -6h404q5 0 9 -3q3 -3 3 -8v-36q0 -5 -3 -9q-3 -3 -7 -3zM332 824
q0 -18 -12 -31q-13 -12 -31 -12t-30 13q-12 12 -12 30v43h42q18 0 30 -13q13 -12 13 -30z" />
    <glyph glyph-name="zdotaccent" unicode="&#x17c;" horiz-adv-x="379" 
d="M333 0h-316q-5 0 -8 5q-1 1 -1 3q0 3 2 5q82 118 245 353q3 4 1 9q-3 4 -8 4h-158q-4 0 -7 3q-2 2 -2 6v34q0 3 2 6q3 3 7 3h257q5 0 7 -5q1 -2 1 -3q1 -3 -1 -6q-82 -117 -246 -352q-3 -4 0 -9q2 -4 7 -4h217q3 0 6 -3t3 -6v-35q0 -3 -2 -6q-3 -2 -6 -2zM224 537
q0 -18 -12 -31q-13 -12 -31 -12t-30 13q-12 12 -12 30v43h42q18 0 30 -13q13 -12 13 -30z" />
    <glyph glyph-name="Zcaron" unicode="&#x17d;" horiz-adv-x="595" 
d="M539 0h-519q-8 0 -12 6q-2 3 -2 6t3 6q150 215 451 646q4 5 1 11t-10 6h-338q-5 0 -8 4q-4 3 -4 8v36q0 5 4 8q3 4 8 4h448q7 0 10 -6q2 -3 2 -6q-1 -3 -3 -6q-149 -215 -446 -646q-5 -5 -1 -12q3 -6 10 -6h404q5 0 9 -3q3 -3 3 -8v-36q0 -5 -3 -9q-3 -3 -7 -3zM381 853
v-1q0 -6 -3 -10l-78 -78q-4 -4 -9 -4q-4 0 -8 4l-81 80q-3 3 -3 8t5 10t11 5q6 1 11 -3l57 -57q3 -3 8 -3q4 0 8 3q37 37 58 59q3 3 8 3t10.5 -5t5.5 -11z" />
    <glyph glyph-name="zcaron" unicode="&#x17e;" horiz-adv-x="379" 
d="M333 0h-316q-5 0 -8 5q-1 1 -1 3q0 3 2 5q82 118 245 353q3 4 1 9q-3 4 -8 4h-158q-4 0 -7 3q-2 2 -2 6v34q0 3 2 6q3 3 7 3h257q5 0 7 -5q1 -2 1 -3q1 -3 -1 -6q-82 -117 -246 -352q-3 -4 0 -9q2 -4 7 -4h217q3 0 6 -3t3 -6v-35q0 -3 -2 -6q-3 -2 -6 -2zM273 564v-1
q0 -5 -3 -9l-78 -79q-4 -3 -8 -3q-5 0 -9 3l-81 81q-3 3 -3 7q0 5 3 8l3 3q4 4 11 5q6 0 10 -4l57 -56q4 -4 8 -4q5 0 8 4l59 58q3 3 7 3q5 0 8 -3l3 -3q5 -4 5 -10z" />
    <glyph glyph-name="uni2116" unicode="&#x2116;" horiz-adv-x="1025" 
d="M623 -5h-37q-5 0 -8 4q-4 3 -4 8v401l-1 34q-2 33 -16 76q-8 23 -21 47q-13 23 -32 43q-30 31 -72 47t-95 16q-52 -1 -94 -16q-41 -16 -71 -46q-20 -20 -34 -44q-13 -23 -22 -46q-16 -43 -18 -76l-3 -33v-401q0 -5 -4 -8q-3 -4 -8 -4h-37q-5 0 -9 4q-3 3 -3 8v401
q0 3 3 42q3 40 23 92q10 27 27 55t41 53q40 40 92 59q52 20 117 20q66 0 119 -20q53 -21 92 -61q24 -24 40 -52q15 -28 25 -55q18 -50 20 -90q2 -36 2 -45v-400q0 -6 -3 -9q-4 -4 -9 -4zM828 224q-73 0 -124 52q-52 51 -52 124t52 125q51 51 124 51t125 -51q51 -52 51 -125
t-51 -124q-52 -52 -125 -52zM828 531q-54 0 -92 -39q-38 -38 -38 -92t38 -92t92 -38t92 38q39 38 39 92t-39 92q-38 39 -92 39zM967 118h-315v37q0 14 9 25q10 11 23 13h320v-37q0 -16 -11 -27t-26 -11z" />
    <glyph glyph-name="trademark" unicode="&#x2122;" horiz-adv-x="468" 
d="M204 500q-2 0 -4 1q-1 1 -1 3v232q0 2 3 4h2q2 0 3 -1l107 -87q2 -2 4 -2t3 2q34 27 103 83q2 2 5 1t3 -4v-227q0 -2 -1 -3q-2 -2 -4 -2h-15q-2 0 -4 2q-1 1 -1 3v178q0 2 -3 4q-3 1 -6 -1q-25 -21 -77 -64q-1 -1 -3 -1t-4 1l-82 67q-2 2 -5 1t-3 -4v-182q0 -2 -1 -3
q-2 -1 -4 -1h-15zM151 723q0 -2 -1 -3q-2 -1 -3 -1h-47q-1 0 -2 -1q-2 -1 -2 -3v-211q0 -2 -1 -3t-3 -1h-12q-2 0 -3 1t-1 3v211q0 2 -2 3q-1 1 -3 1h-46q-2 0 -3 1t-1 3v13q0 1 1 3q1 1 3 1h121q2 0 3 -1q2 -2 2 -3v-13z" />
    <glyph glyph-name="estimated" unicode="&#x212e;" horiz-adv-x="685" 
d="M653 595q3 -5 3 -11v-2q0 -5 -3 -8l-419 -419q67 -51 151 -53q83 -1 151 47q5 3 10 3t10 -5l4 -3q15 -12 26 -22q10 -8 25 -21q5 -4 5 -12t-6 -13q-98 -75 -221 -75h-10q-131 3 -229 91q-108 95 -120 241v30q0 126 81 226q90 109 228 128q26 3 51 3q108 0 201 -63l10 -8
q12 -10 23 -22q12 -10 20 -20zM155 252q5 -7 13 -9h3q5 0 10 5l319 319q5 5 5 12q2 2 0 3q0 8 -8 12q-52 23 -105 23q-27 0 -55 -5q-83 -17 -141 -81q-51 -60 -61 -136q-2 -19 -2 -35q-2 -57 22 -108z" />
    <glyph glyph-name="circumflex" unicode="&#x2c6;" horiz-adv-x="184" 
d="M166 760q-5 0 -8 3q-21 22 -58 59q-4 3 -8 3q-5 0 -8 -3l-57 -57q-5 -4 -11 -3q-6 0 -11 5t-5 10t3 8l81 80q4 4 8 4q5 0 9 -4l78 -78q3 -4 3 -10v-1q0 -6 -5.5 -11t-10.5 -5z" />
    <glyph glyph-name="caron" unicode="&#x2c7;" horiz-adv-x="184" 
d="M182 853v-1q0 -6 -3 -10l-78 -78q-4 -4 -9 -4q-4 0 -8 4l-81 80q-3 3 -3 8t5 10t11 5q6 1 11 -3l57 -57q3 -3 8 -3q4 0 8 3q37 37 58 59q3 3 8 3t10.5 -5t5.5 -11z" />
    <glyph glyph-name="uni02CA" unicode="&#x2ca;" horiz-adv-x="123" 
d="M59 862h45v-40q0 -17 -12 -29q-11 -12 -28 -12h-43v41q0 16 11 28q11 11 27 12z" />
    <glyph glyph-name="uni02CB" unicode="&#x2cb;" horiz-adv-x="143" 
d="M91 850q12 -12 12 -29v-40h-44q-17 0 -28 12q-12 12 -12 28v40h44q16 -1 28 -11z" />
    <glyph glyph-name="breve" unicode="&#x2d8;" horiz-adv-x="677" 
d="M246 839l-1 15q0 8 1 15q18 -2 24 -6q6 -29 25 -48q18 -19 41 -19t41 19q19 19 25 48q8 5 24 6q1 -7 1 -15l-1 -15q-6 -37 -36 -60q-25 -19 -54 -19t-54 19q-30 23 -36 60z" />
    <glyph glyph-name="dotaccent" unicode="&#x2d9;" horiz-adv-x="371" 
d="M228 823q0 -18 -12 -31q-13 -12 -31 -12t-30 13q-12 12 -12 30v43h42q18 0 30 -13q13 -12 13 -30z" />
    <glyph glyph-name="ring" unicode="&#x2da;" horiz-adv-x="405" 
d="M212 754q-5 -1 -10 -1q-21 0 -38 13q-21 16 -25 42q-1 5 -1 10q0 21 13 38q16 21 42 25q6 1 11 1q20 0 37 -13q22 -15 25 -42q1 -5 1 -10q0 -21 -13 -38q-16 -21 -42 -25zM189 828q-3 -5 -3 -10v-3q1 -7 7 -11q4 -3 7.5 -3.5t7.5 0.5t9 6q3 5 3 10v3q-1 7 -7 11
q-5 3 -10 4q-1 0 -5.5 -1t-8.5 -6z" />
    <glyph glyph-name="ogonek" unicode="&#x2db;" horiz-adv-x="398" 
d="M201 -103h-58v54q0 23 15 38q16 16 39 16h58v-54q0 -22 -16 -38t-38 -16z" />
    <glyph glyph-name="tilde" unicode="&#x2dc;" horiz-adv-x="595" 
d="M195 800h-31v31q0 12 8 20q8 9 20 10h242v-31q0 -13 -9 -22t-22 -9h-208v1z" />
    <glyph glyph-name="product" unicode="&#x220f;" horiz-adv-x="594" 
d="M542 742q5 0 9 -3q3 -4 3 -9v-719q0 -5 -3 -9q-4 -3 -9 -3h-40q-5 0 -9 3q-3 4 -3 9v654q0 5 -4 9q-4 3 -9 3h-359q-5 0 -9 -3q-3 -4 -3 -9v-656q0 -5 -4 -9q-4 -3 -9 -3h-39q-6 0 -9 3q-4 4 -4 9v720q0 5 4 9q3 4 9 4h488z" />
    <glyph glyph-name="uni2219" unicode="&#x2219;" horiz-adv-x="184" 
d="M94 406h-53v53q0 22 15 38q16 15 38 15t37 -15q16 -16 16 -38q0 -21 -16 -37t-37 -16z" />
    <glyph glyph-name="uni2215" unicode="&#x2215;" horiz-adv-x="390" 
d="M342 746q6 0 18 -1l12 -1q-1 -6 -1 -15q-1 -9 -2 -15q-1 -11 -7 -18q-92 -225 -274 -672q-3 -8 -8 -13q-8 -9 -21 -9h-30v29q0 10 5 18q93 228 277 680q3 6 8 10q9 7 21 7h2z" />
    <glyph glyph-name="minus" unicode="&#x2212;" horiz-adv-x="370" 
d="M306 349h-285v37q0 14 9 25q10 11 23 13h290v-37q0 -16 -11 -27t-26 -11z" />
    <glyph glyph-name="partialdiff" unicode="&#x2202;" horiz-adv-x="465" 
d="M379 448q-6 39 -27 70l-46 42q-38 24 -84 20q-3 0 -5 2q-4 3 -4 7q-4 28 -4 41q-1 5 1 8q3 3 7 4q74 6 133 -38l45 -43q33 -43 42 -102v-1q5 -43 0 -82v-367q0 -4 -3 -7t-7 -3h-199q-86 0 -148 62q-60 61 -60 146v4q1 85 63 146q62 60 147 59q37 0 71 -12q33 -13 60 -35
q5 -4 10 -2q5 3 9 23t-1 58zM79 205q1 -62 45 -104q45 -43 106 -43h137q4 0 7 3q3 2 3 6v146l-1 6v3q-5 57 -47 96q-43 39 -101 39q-62 0 -106 -44q-43 -44 -43 -105v-3z" />
    <glyph glyph-name="infinity" unicode="&#x221e;" horiz-adv-x="807" 
d="M138 509h183v-2q14 -3 28 -10q13 -8 23 -18q13 14 31 22q19 8 39 8h246v-2q34 -7 56 -34q22 -26 22 -62v-101q0 -40 -27 -68q-28 -29 -68 -30h-228q-21 0 -39 8t-32 22q-13 -13 -30 -21q-18 -9 -38 -9h-165q-41 0 -69 29q-29 28 -29 69v102q0 40 29 69q28 28 68 28z
M402 415v-110q0 -4 1 -8q1 -1 2 -4q2 -4 4 -7q1 -1 2 -3l3 -2l4 -4q7 -4 13 -6q2 -1 3 -1h239q13 2 23 11q11 12 11 29v102q0 12 -7 23l-4 5q-12 11 -27 12h-2v-1h-226q-16 -1 -27 -12q-11 -10 -12 -24zM99 412v-102q0 -17 11 -29q12 -11 29 -11h163q16 0 28 11q12 12 12 29
v101q0 17 -12 28q-12 12 -28 12h-164q-16 0 -27 -11q-12 -12 -12 -28z" />
    <glyph glyph-name="intersection" unicode="&#x2229;" horiz-adv-x="657" 
d="M623 -5h-37q-5 0 -8 4q-4 3 -4 8v401l-1 34q-2 33 -16 76q-8 23 -21 47q-13 23 -32 43q-30 31 -72 47t-95 16q-52 -1 -94 -16q-41 -16 -71 -46q-20 -20 -34 -44q-13 -23 -22 -46q-16 -43 -18 -76l-3 -33v-401q0 -5 -4 -8q-3 -4 -8 -4h-37q-5 0 -9 4q-3 3 -3 8v401
q0 3 3 42q3 40 23 92q10 27 27 55t41 53q40 40 92 59q52 20 117 20q66 0 119 -20q53 -21 92 -61q24 -24 40 -52q15 -28 25 -55q18 -50 20 -90q2 -36 2 -45v-400q0 -6 -3 -9q-4 -4 -9 -4z" />
    <glyph glyph-name="equivalence" unicode="&#x2261;" horiz-adv-x="451" 
d="M381 0h-339v36q0 16 11 26t26 10h331v-36q0 -15 -10 -25q-9 -9 -19 -11zM381 382h-297v1h-29v36q0 15 10 26q8 7 19 9v1h326v-36q0 -15 -10 -26q-9 -9 -19 -11zM381 191h-297v1h-29v36q0 15 10 26q8 7 19 9v1h326v-36q0 -15 -10 -26q-9 -9 -19 -11z" />
    <glyph glyph-name="notequal" unicode="&#x2260;" horiz-adv-x="451" 
d="M381 310h-179q-41 -102 -88 -218q-3 -8 -8 -13q-8 -9 -21 -9h-30v29q0 10 5 18q33 82 78 193h-96v36q0 16 11 26t26 10h89q22 56 48 119h-132v1h-29v36q0 15 10 26q8 7 19 9v1h162q42 104 91 223q3 6 8 10q9 7 21 7h2q6 0 18 -1l12 -1q-1 -6 -1 -15q-1 -9 -2 -15
q-1 -11 -7 -18q-33 -81 -78 -190h100v-36q0 -15 -10 -26q-9 -9 -19 -11h-101q-22 -56 -48 -119h178v-36q0 -15 -10 -25q-9 -9 -19 -11z" />
    <glyph glyph-name="lessequal" unicode="&#x2264;" horiz-adv-x="329" 
d="M31 239q-10 9 -10 23v32h253q12 -1 20 -10t8 -22v-33h-248q-14 0 -23 10zM125 468l160 -64q11 -6 15 -17q4 -12 -1 -24l-14 -30l-243 97q-13 6 -18 18q-5 10 -4.5 20t3.5 19q4 11 15 17l248 99l13 -29q6 -13 0 -26q-5 -12 -18 -18z" />
    <glyph glyph-name="greaterequal" unicode="&#x2265;" horiz-adv-x="329" 
d="M31 239q-10 9 -10 23v32h253q12 -1 20 -10t8 -22v-33h-248q-14 0 -23 10zM40 530q-13 6 -18 18q-6 13 0 26l13 29l248 -99q11 -6 15 -17q3 -9 3.5 -19t-4.5 -20q-5 -12 -18 -18l-243 -97l-14 30q-5 12 -1 24q4 11 15 17l160 64z" />
  </font>
</defs>
</svg>
